<svg xmlns="http://www.w3.org/2000/svg" viewBox="0 0 210 60"><path fill="#2f3847" d="M16.08 50.72a2.41 2.41 0 0 1 2.63-1.62H54.8a4.47 4.47 0 0 1 1.26.14 1.85 1.85 0 0 1 1.28 2.11A1.87 1.87 0 0 1 55.61 53H18.69a2.45 2.45 0 0 1-2.62-1.53zm175.28.28h-17.62v-2.68c0-.25.29-.5.5-.71 3.53-3.58 7.1-7.12 10.58-10.74a17.26 17.26 0 0 0 2.8-3.67c1.66-3.09.52-6.46-2.43-7.7a5.74 5.74 0 0 0-7.81 3.54c-.09.26-.16.52-.27.87l-2.64-.48c.07-.32.11-.59.18-.84a8.47 8.47 0 0 1 8.63-5.87c2.63.17 5 1 6.54 3.23a8.09 8.09 0 0 1-.24 9.17 26.26 26.26 0 0 1-3 3.53c-3 3.09-6.12 6.12-9.2 9.16a4.14 4.14 0 0 1-.69.46l.17.33h14.48zM42.64 3a2 2 0 0 1 1 2.13c-.05.57 0 1.14 0 1.84h2.27a1.51 1.51 0 0 1 1.63 1.15 1.45 1.45 0 0 1-1.48 1.74h-2.41v2.28a1.46 1.46 0 0 1-1.46 1.64c-.84 0-1.38-.61-1.41-1.6v-2.1s0-.09-.11-.21H38.4c-1.26-.08-2-1.27-1.29-2.19A2.32 2.32 0 0 1 38.49 7a15.1 15.1 0 0 1 2.31 0V5a1.82 1.82 0 0 1 1.1-2zm93.5 18l-.44 5.16c-.55-.07-1-.17-1.47-.19a2.5 2.5 0 0 0-2.95 2.23 29.9 29.9 0 0 0-.24 3.42h6.71v-.87a38.3 38.3 0 0 1 .31-3.95 6.84 6.84 0 0 1 6.59-5.9 11.39 11.39 0 0 1 4.47.34l-.42 4.92c-.54-.07-1-.17-1.46-.19a2.65 2.65 0 0 0-3.05 2.57c-.09.79-.06 1.6-.12 2.39 0 .55.15.75.72.73h3.57v4.68h-2.87c-1.41 0-1.41 0-1.41 1.37v13.3h-6.31V36.39c-.3 0-.51-.06-.73-.06h-5.25c-.6 0-.76.19-.76.77V51h-6.31V36.36h-3.54v-4.69h3.47v-.93a37.8 37.8 0 0 1 .3-3.88 6.76 6.76 0 0 1 6.46-5.94 43.69 43.69 0 0 1 4.73.08zm-83.42 5.39A6.83 6.83 0 0 1 58 28.64 6.51 6.51 0 0 1 59.21 36a6.52 6.52 0 0 1-6.12 4h-2.55a1.21 1.21 0 0 0-1.12.57 15.66 15.66 0 0 1-13.14 6.3 15.87 15.87 0 0 1-15.52-14.25c-.27-2.73-.14-5.49-.14-8.24a1.82 1.82 0 0 1 1.55-1.77 4.45 4.45 0 0 1 .89-.06h27.23a4.35 4.35 0 0 1 1 .09 1.77 1.77 0 0 1 1.45 1.68c.01.68-.02 1.33-.02 2.07zm-28.25 0v4.4a12.42 12.42 0 0 0 1.36 5.62 12.28 12.28 0 0 0 12.54 6.51 12 12 0 0 0 10.12-9.16 51.34 51.34 0 0 0 .45-6.48c.05-.73-.2-.92-.92-.91H25.38zm27.59 9.66a3.1 3.1 0 0 0 3.31-1.18 2.81 2.81 0 0 0 .11-3.18 2.59 2.59 0 0 0-2.54-1.34zm43.01 6.88l4.55 4.27c-2.76 3.57-8.58 5.63-14.85 4a14 14 0 0 1-10.58-12.74c-.39-7 3-12.48 9-14.73 5.72-2.14 13.21-.76 16.1 2.92l-4.43 4.43a6.51 6.51 0 0 0-4.39-2.31 7.84 7.84 0 0 0-9 6.75A9.5 9.5 0 0 0 83 42.66c2.78 3.94 9.1 4.09 11.88.52zm60.93.12a4 4 0 0 0 2.79 3.34 5.34 5.34 0 0 0 6.24-1.6l4.34 2.74a8.58 8.58 0 0 1-3.28 2.91c-4.19 2.25-10.29 1.39-13.51-1.95a9.79 9.79 0 0 1-2.61-8c.81-9 9.75-11 14.92-8.49 3.08 1.49 4.58 4.14 5.08 7.4.18 1.17.15 2.37.23 3.65H156zm8.31-3.93a3.49 3.49 0 0 0-1.73-3.22 4.51 4.51 0 0 0-4.83.3 3.52 3.52 0 0 0-1.7 2.92zM118.86 51h-5.78v-1.94h-.26c-1.79 2.24-4.21 2.58-6.83 2.24a8.18 8.18 0 0 1-1.95-.51c-3.06-1.21-4.17-4-3.43-7a5.37 5.37 0 0 1 3.28-3.48 15.18 15.18 0 0 1 5.58-1.31l3.34-.2a2.32 2.32 0 0 0-1.23-2.6 5 5 0 0 0-4.35-.15 28.17 28.17 0 0 0-2.8 1.47l-3.11-3.28a11.15 11.15 0 0 1 5.38-2.87 14.35 14.35 0 0 1 6.31-.08 6.55 6.55 0 0 1 5.36 5.56 23.4 23.4 0 0 1 .45 4.23c.07 3.07 0 6.15 0 9.22.04.24.04.43.04.7zM113 42.64a18 18 0 0 0-2.92 0 12.55 12.55 0 0 0-3 1 1.67 1.67 0 0 0-.84 1.86 1.75 1.75 0 0 0 1.25 1.5 4.29 4.29 0 0 0 4.13-.54 3.9 3.9 0 0 0 1.38-3.82zm-80.69-26.3h-2.34a1.43 1.43 0 1 1 0-2.85h2.34v-2.44a1.28 1.28 0 0 1 .86-1.35 1.94 1.94 0 0 1 1.45.2 2 2 0 0 1 .55 1.29 19.56 19.56 0 0 1 0 2.29h2.23c1.09 0 1.74.56 1.74 1.43s-.68 1.42-1.75 1.43h-1.95a1.37 1.37 0 0 0-.25.08v2.11c0 1.12-.53 1.71-1.44 1.71s-1.43-.63-1.44-1.72v-2.18z"/></svg>