<svg id="Layer_1" data-name="Layer 1" xmlns="http://www.w3.org/2000/svg" viewBox="0 0 210 60"><defs><style>.cls-1{fill:#2f3847;}</style></defs><title>caffe2</title><path class="cls-1" d="M16.08,50.72a2.41,2.41,0,0,1,2.63-1.62q18,0,36.09,0a4.47,4.47,0,0,1,1.26.14,1.85,1.85,0,0,1,1.28,2.11A1.87,1.87,0,0,1,55.61,53c-.25,0-.5,0-.75,0-12.06,0-24.11,0-36.17,0a2.45,2.45,0,0,1-2.62-1.53Z"/><path class="cls-1" d="M191.36,51H173.74c0-.95,0-1.82,0-2.68,0-.25.29-.5.5-.71,3.53-3.58,7.1-7.12,10.58-10.74a17.26,17.26,0,0,0,2.8-3.67c1.66-3.09.52-6.46-2.43-7.7a5.74,5.74,0,0,0-7.81,3.54c-.09.26-.16.52-.27.87l-2.64-.48c.07-.32.11-.59.18-.84a8.47,8.47,0,0,1,8.63-5.87c2.63.17,5,1,6.54,3.23a8.09,8.09,0,0,1-.24,9.17,26.26,26.26,0,0,1-3,3.53c-3,3.09-6.12,6.12-9.2,9.16a4.14,4.14,0,0,1-.69.46l.17.33h14.48Z"/><path class="cls-1" d="M42.64,3a2,2,0,0,1,1,2.13c-.05.57,0,1.14,0,1.84.79,0,1.53,0,2.27,0a1.51,1.51,0,0,1,1.63,1.15,1.45,1.45,0,0,1-1.48,1.74c-.77,0-1.54,0-2.41,0,0,.8,0,1.54,0,2.28a1.46,1.46,0,0,1-1.46,1.64c-.84,0-1.38-.61-1.41-1.6,0-.7,0-1.4,0-2.1,0,0,0-.09-.11-.21-.73,0-1.5,0-2.27,0-1.26-.08-2-1.27-1.29-2.19A2.32,2.32,0,0,1,38.49,7,15.1,15.1,0,0,1,40.8,7c0-.69,0-1.33,0-2a1.82,1.82,0,0,1,1.1-2Z"/><path class="cls-1" d="M136.14,21l-.44,5.16c-.55-.07-1-.17-1.47-.19a2.5,2.5,0,0,0-2.95,2.23,29.9,29.9,0,0,0-.24,3.42h6.71c0-.3,0-.58,0-.87a38.3,38.3,0,0,1,.31-3.95,6.84,6.84,0,0,1,6.59-5.9,11.39,11.39,0,0,1,4.47.34l-.42,4.92c-.54-.07-1-.17-1.46-.19a2.65,2.65,0,0,0-3.05,2.57c-.09.79-.06,1.6-.12,2.39,0,.55.15.75.72.73,1.17,0,2.34,0,3.57,0v4.68h-2.87c-1.41,0-1.41,0-1.41,1.37q0,6.15,0,12.3c0,.3,0,.6,0,1h-6.31V36.39c-.3,0-.51-.06-.73-.06-1.75,0-3.5,0-5.25,0-.6,0-.76.19-.76.77,0,4.3,0,8.6,0,12.9,0,.32,0,.63,0,1h-6.31V36.36h-3.54V31.67h3.47c0-.36,0-.64,0-.93a37.8,37.8,0,0,1,.3-3.88,6.76,6.76,0,0,1,6.46-5.94A43.69,43.69,0,0,1,136.14,21Z"/><path class="cls-1" d="M52.72,26.39A6.83,6.83,0,0,1,58,28.64,6.51,6.51,0,0,1,59.21,36,6.52,6.52,0,0,1,53.09,40c-.85,0-1.7,0-2.55,0a1.21,1.21,0,0,0-1.12.57,15.66,15.66,0,0,1-13.14,6.3A15.87,15.87,0,0,1,20.76,32.62c-.27-2.73-.14-5.49-.14-8.24a1.82,1.82,0,0,1,1.55-1.77,4.45,4.45,0,0,1,.89-.06H50.29a4.35,4.35,0,0,1,1,.09,1.77,1.77,0,0,1,1.45,1.68C52.75,25,52.72,25.65,52.72,26.39Zm-28.25,0c0,1.55,0,3,0,4.4a12.42,12.42,0,0,0,1.36,5.62,12.28,12.28,0,0,0,12.54,6.51,12,12,0,0,0,10.12-9.16,51.34,51.34,0,0,0,.45-6.48c.05-.73-.2-.92-.92-.91-7.55,0-15.09,0-22.64,0Zm27.59,9.66a3.1,3.1,0,0,0,3.31-1.18,2.81,2.81,0,0,0,.11-3.18,2.59,2.59,0,0,0-2.54-1.34Z"/><path class="cls-1" d="M95.07,42.93l4.55,4.27c-2.76,3.57-8.58,5.63-14.85,4A14,14,0,0,1,74.19,38.46c-.39-7,3-12.48,9-14.73,5.72-2.14,13.21-.76,16.1,2.92l-4.43,4.43a6.51,6.51,0,0,0-4.39-2.31,7.84,7.84,0,0,0-9,6.75A9.5,9.5,0,0,0,83,42.66c2.78,3.94,9.1,4.09,11.88.52Z"/><path class="cls-1" d="M156,43.05a4,4,0,0,0,2.79,3.34,5.34,5.34,0,0,0,6.24-1.6l4.34,2.74a8.58,8.58,0,0,1-3.28,2.91c-4.19,2.25-10.29,1.39-13.51-1.95a9.79,9.79,0,0,1-2.61-8c.81-9,9.75-11,14.92-8.49,3.08,1.49,4.58,4.14,5.08,7.4.18,1.17.15,2.37.23,3.65H156Zm8.31-3.93a3.49,3.49,0,0,0-1.73-3.22,4.51,4.51,0,0,0-4.83.3,3.52,3.52,0,0,0-1.7,2.92Z"/><path class="cls-1" d="M118.86,51h-5.78V49.06c-.13,0-.23,0-.26,0-1.79,2.24-4.21,2.58-6.83,2.24a8.18,8.18,0,0,1-1.95-.51c-3.06-1.21-4.17-4-3.43-7a5.37,5.37,0,0,1,3.28-3.48A15.18,15.18,0,0,1,109.47,39l3.34-.2a2.32,2.32,0,0,0-1.23-2.6,5,5,0,0,0-4.35-.15,28.17,28.17,0,0,0-2.8,1.47l-3.11-3.28a11.15,11.15,0,0,1,5.38-2.87,14.35,14.35,0,0,1,6.31-.08,6.55,6.55,0,0,1,5.36,5.56,23.4,23.4,0,0,1,.45,4.23c.07,3.07,0,6.15,0,9.22C118.86,50.54,118.86,50.73,118.86,51ZM113,42.64a18,18,0,0,0-2.92,0,12.55,12.55,0,0,0-3,1,1.67,1.67,0,0,0-.84,1.86A1.75,1.75,0,0,0,107.49,47a4.29,4.29,0,0,0,4.13-.54A3.9,3.9,0,0,0,113,42.64Z"/><path class="cls-1" d="M32.31,16.34c-.85,0-1.6,0-2.34,0a1.43,1.43,0,1,1,0-2.85c.74,0,1.49,0,2.34,0,0-.86,0-1.65,0-2.44a1.28,1.28,0,0,1,.86-1.35,1.94,1.94,0,0,1,1.45.2,2,2,0,0,1,.55,1.29,19.56,19.56,0,0,1,0,2.29H37.4c1.09,0,1.74.56,1.74,1.43s-.68,1.42-1.75,1.43l-1.95,0a1.37,1.37,0,0,0-.25.08c0,.68,0,1.4,0,2.11,0,1.12-.53,1.71-1.44,1.71s-1.43-.63-1.44-1.72C32.31,17.85,32.31,17.15,32.31,16.34Z"/></svg>