<svg height="316.17" width="367.83" xmlns="http://www.w3.org/2000/svg" xmlns:xlink="http://www.w3.org/1999/xlink"><clipPath id="a"><path d="m0 0h367.67v316h-367.67z"/></clipPath><path d="m120.37 52.32v212.64m64.03-104-64.03 104m-59.23-102.88 59.07 102.88m186.31-105.12-186.15 105.12m127.09 0h-127.1" fill="none" stroke="#e25a1c" stroke-linecap="round" stroke-linejoin="round" stroke-width="6.08"/><g fill-rule="evenodd"><path d="m.64 162.08v-3.04l.32-1.44.16-1.44.32-1.44.48-1.44.48-1.28.48-1.44.64-1.28.64-1.28.8-1.28.8-1.12.8-1.12.96-1.12.96-1.12.96-.96.96-1.12 1.12-.8 1.13-.96 1.28-.8 1.28-.8 1.12-.64 1.44-.64 1.28-.64 1.44-.48 1.28-.48 1.44-.48 1.44-.32 1.6-.16 1.44-.32h6.24l1.44.32 1.6.16 1.45.32 1.44.48 1.44.48 1.28.48 1.44.64 1.28.64 1.28.64 1.12.8 1.28.8 1.12.96 1.12.8.96 1.12.96.96.96 1.12.96 1.12.8 1.12.8 1.12.8 1.28.64 1.28.64 1.28.48 1.44.48 1.28.48 1.44.32 1.44.16 1.44.32 1.44v1.6l.16 1.44-.16 1.6v1.44l-.32 1.44-.16 1.44-.32 1.44-.48 1.44-.48 1.28-.48 1.44-.64 1.28-.64 1.28-.8 1.28-.8 1.12-.8 1.12-.96 1.12-.96 1.12-.96 1.12-.96.96-1.12.8-1.12.96-1.28.8-1.12.8-1.28.64-1.28.64-1.44.64-1.28.48-1.44.48-1.44.48-1.45.32-1.6.16-1.44.32h-1.6l-1.44.16-1.6-.16h-1.6l-1.44-.32-1.6-.16-1.44-.32-1.44-.48-1.28-.48-1.44-.48-1.28-.64-1.44-.64-1.12-.64-1.28-.8-1.28-.8-1.13-.96-1.12-.8-.96-.96-.96-1.12-.96-1.12-.96-1.12-.8-1.12-.8-1.12-.8-1.28-.64-1.28-.64-1.28-.48-1.44-.48-1.28-.48-1.44-.32-1.44-.16-1.44-.32-1.44v-3.04zm305.88-2.24v-3.04l.32-1.44.16-1.6.32-1.28.48-1.44.48-1.44.48-1.28.64-1.28.64-1.28.8-1.28.8-1.12.8-1.28.97-.96.96-1.12.96-1.12.96-.96 1.12-.8 1.12-.96 1.28-.8 1.28-.8 1.12-.64 1.44-.64 1.28-.64 1.44-.48 1.28-.48 1.44-.48 1.44-.32 1.6-.16 1.44-.32h6.24l1.45.32 1.6.16 1.44.32 1.44.48 1.44.48 1.28.48 1.44.64 1.28.64 1.28.64 1.12.8 1.28.8 1.12.96 1.12.8.96.96.96 1.12.96 1.12.96.96.8 1.28.8 1.12.8 1.28.65 1.28.64 1.28.48 1.28.48 1.44.48 1.44.32 1.28.16 1.6.32 1.44v1.44l.16 1.6-.16 1.44v1.44l-.32 1.6-.16 1.44-.32 1.44-.48 1.28-.48 1.44-.48 1.28-.64 1.28-.65 1.28-.8 1.28-.8 1.12-.8 1.28-.96 1.12-.96.96-.96 1.12-.96.96-1.12.96-1.12.8-1.28.8-1.12.8-1.28.64-1.28.64-1.44.64-1.28.48-1.44.48-1.44.48-1.44.32-1.6.16-1.44.32h-1.6l-1.45.16-1.6-.16h-1.6l-1.44-.32-1.6-.16-1.44-.32-1.44-.48-1.28-.48-1.44-.48-1.28-.64-1.44-.64-1.12-.64-1.28-.8-1.28-.8-1.12-.8-1.12-.96-.96-.96-.96-1.12-.96-.96-.97-1.12-.8-1.28-.8-1.12-.8-1.28-.64-1.28-.64-1.28-.48-1.28-.48-1.44-.48-1.28-.32-1.44-.16-1.44-.32-1.6zm-237.85-128.48v-3.04l.32-1.44.16-1.44.32-1.44.48-1.44.48-1.28.48-1.44.64-1.28.64-1.28.8-1.28.8-1.12.8-1.12.96-1.12.96-1.12.96-.96.96-1.12 1.12-.8 1.12-.96 1.28-.8 1.28-.8 1.12-.64 1.44-.64 1.28-.64 1.45-.48 1.28-.48 1.44-.48 1.44-.32 1.6-.16 1.44-.32h6.24l1.44.32 1.6.16 1.44.32 1.44.48 1.44.48 1.28.48 1.44.64 1.29.64 1.28.64 1.12.8 1.28.8 1.12.96 1.12.8.96 1.12.96.96.96 1.12.96 1.12.8 1.12.8 1.12.8 1.28.64 1.28.64 1.28.48 1.44.48 1.28.48 1.44.32 1.44.16 1.44.32 1.44v1.6l.16 1.44-.16 1.6v1.44l-.32 1.44-.16 1.44-.32 1.44-.48 1.44-.48 1.28-.48 1.44-.64 1.28-.64 1.28-.8 1.28-.8 1.12-.8 1.12-.96 1.12-.96 1.12-.96 1.12-.96.96-1.12.8-1.12.96-1.28.8-1.12.8-1.28.64-1.29.64-1.44.64-1.28.48-1.44.48-1.44.48-1.44.32-1.6.16-1.44.32h-1.6l-1.44.16-1.6-.16h-1.6l-1.44-.32-1.6-.16-1.44-.32-1.44-.48-1.28-.48-1.45-.48-1.28-.64-1.44-.64-1.12-.64-1.28-.8-1.28-.8-1.12-.96-1.12-.8-.96-.96-.96-1.12-.96-1.12-.96-1.12-.8-1.12-.8-1.12-.8-1.28-.64-1.28-.64-1.28-.48-1.44-.48-1.28-.48-1.44-.32-1.44-.16-1.44-.32-1.44z" fill="#00bbf1"/><path d="m68.67 285.76v-3.04l.32-1.44.16-1.44.32-1.44.48-1.44.48-1.28.48-1.44.64-1.28.64-1.28.8-1.28.8-1.12.8-1.12.96-1.12.96-1.12.96-.96.96-1.12 1.12-.8 1.12-.96 1.28-.8 1.28-.8 1.12-.64 1.44-.64 1.28-.64 1.45-.48 1.28-.48 1.44-.48 1.44-.32 1.6-.16 1.44-.32h6.24l1.44.32 1.6.16 1.44.32 1.44.48 1.44.48 1.28.48 1.44.64 1.29.64 1.28.64 1.12.8 1.28.8 1.12.96 1.12.8.96 1.12.96.96.96 1.12.96 1.12.8 1.12.8 1.12.8 1.28.64 1.28.64 1.28.48 1.44.48 1.28.48 1.44.32 1.44.16 1.44.32 1.44v1.6l.16 1.44-.16 1.6v1.44l-.32 1.44-.16 1.44-.32 1.44-.48 1.44-.48 1.28-.48 1.44-.64 1.28-.64 1.28-.8 1.28-.8 1.12-.8 1.12-.96 1.12-.96 1.12-.96 1.12-.96.96-1.12.8-1.12.96-1.28.8-1.12.8-1.28.64-1.29.64-1.44.64-1.28.48-1.44.48-1.44.48-1.44.32-1.6.16-1.44.32h-1.6l-1.44.16-1.6-.16h-1.6l-1.44-.32-1.6-.16-1.44-.32-1.44-.48-1.28-.48-1.45-.48-1.28-.64-1.44-.64-1.12-.64-1.28-.8-1.28-.8-1.12-.96-1.12-.8-.96-.96-.96-1.12-.96-1.12-.96-1.12-.8-1.12-.8-1.12-.8-1.28-.64-1.28-.64-1.28-.48-1.44-.48-1.28-.48-1.44-.32-1.44-.16-1.44-.32-1.44z" fill="#e25a1c"/><path d="m238.66 285.76v-3.04l.32-1.44.16-1.44.32-1.44.48-1.44.48-1.28.48-1.44.64-1.28.64-1.28.8-1.28.8-1.12.8-1.12.96-1.12.96-1.12.96-.96.96-1.12 1.12-.8 1.12-.96 1.28-.8 1.28-.8 1.12-.64 1.44-.64 1.28-.64 1.44-.48 1.28-.48 1.44-.48 1.44-.32 1.6-.16 1.45-.32h6.24l1.44.32 1.6.16 1.44.32 1.44.48 1.44.48 1.28.48 1.44.64 1.28.64 1.28.64 1.12.8 1.28.8 1.12.96 1.13.8.96 1.12.96.96.96 1.12.96 1.12.8 1.12.8 1.12.8 1.28.64 1.28.64 1.28.48 1.44.48 1.28.48 1.44.32 1.44.16 1.44.32 1.44v1.6l.16 1.44-.16 1.6v1.44l-.32 1.44-.16 1.44-.32 1.44-.48 1.44-.48 1.28-.48 1.44-.64 1.28-.64 1.28-.8 1.28-.8 1.12-.8 1.12-.96 1.12-.96 1.12-.96 1.12-.96.96-1.13.8-1.12.96-1.28.8-1.12.8-1.28.64-1.28.64-1.44.64-1.28.48-1.44.48-1.44.48-1.44.32-1.6.16-1.44.32h-1.6l-1.44.16-1.6-.16h-1.6l-1.44-.32-1.6-.16-1.45-.32-1.44-.48-1.28-.48-1.44-.48-1.28-.64-1.44-.64-1.12-.64-1.28-.8-1.28-.8-1.12-.96-1.12-.8-.96-.96-.96-1.12-.96-1.12-.96-1.12-.8-1.12-.8-1.12-.8-1.28-.64-1.28-.64-1.28-.48-1.44-.48-1.28-.48-1.44-.32-1.44-.16-1.44-.32-1.44z" fill="#00bbf1"/></g><path d="m120.37 52.32 127.09 212.64m-127.09-212.64 186.15 107.52m-245.38 2.24 59.07-109.76m-59.07 109.76 186.16 102.88m59.22-105.12-59.06 105.12m-186.32-102.88 245.22-2.24" fill="none" stroke="#00bbf1" stroke-linecap="round" stroke-linejoin="round" stroke-width="6.08"/><path d="m246.34 52 1.12 212.96m-1.12-212.96 60.18 107.68m-60.34-107.68-59.08 106.4" fill="none" stroke="#9fe0f5" stroke-linecap="round" stroke-linejoin="round" stroke-width="6.08"/><path d="m237.53 31.2v-1.44l.16-1.6.16-1.44.33-1.44.32-1.44.48-1.44.32-1.28.64-1.44.64-1.28.64-1.28.64-1.12.8-1.28.96-1.12.8-1.12.96-1.12.96-.96 1.12-.96 1.12-.96 1.12-.8 1.12-.96 1.28-.64 1.28-.8 1.28-.64 1.28-.64 1.44-.48 1.44-.48 1.44-.32 1.44-.32 1.44-.32 1.6-.16 1.45-.16h3.2l1.44.16 1.6.16 1.44.32 1.44.32 1.44.32 1.44.48 1.44.48 1.28.64 1.28.64 1.28.8 1.28.64 1.12.96 1.12.8 1.12.96 1.13.96.96.96.96 1.12.96 1.12.8 1.12.8 1.28.64 1.12.64 1.28.64 1.28.64 1.44.48 1.28.32 1.44.32 1.44.32 1.44.16 1.44.16 1.6v2.88l-.16 1.6-.16 1.44-.32 1.44-.32 1.44-.32 1.44-.48 1.28-.64 1.44-.64 1.28-.64 1.28-.64 1.12-.8 1.28-.8 1.12-.96 1.12-.96 1.12-.96.96-1.13.96-1.12.96-1.12.8-1.12.96-1.28.64-1.28.8-1.28.64-1.28.64-1.44.48-1.44.48-1.44.32-1.44.32-1.44.32-1.6.16-1.44.16h-3.2l-1.44-.16-1.6-.16-1.45-.32-1.44-.32-1.44-.32-1.44-.48-1.44-.48-1.28-.64-1.28-.64-1.28-.8-1.28-.64-1.12-.96-1.12-.8-1.12-.96-1.12-.96-.96-.96-.96-1.12-.8-1.12-.96-1.12-.8-1.28-.64-1.12-.64-1.28-.64-1.28-.64-1.44-.32-1.28-.48-1.44-.32-1.44-.33-1.44-.16-1.44-.16-1.6v-1.44z" fill="#80ddf8" fill-rule="evenodd"/><path d="m237.53 31.2v-1.44l.16-1.6.16-1.44.33-1.44.32-1.44.48-1.44.32-1.28.64-1.44.64-1.28.64-1.28.64-1.12.8-1.28.96-1.12.8-1.12.96-1.12.96-.96 1.12-.96 1.12-.96 1.12-.8 1.12-.96 1.28-.64 1.28-.8 1.28-.64 1.28-.64 1.44-.48 1.44-.48 1.44-.32 1.44-.32 1.44-.32 1.6-.16 1.45-.16h3.2l1.44.16 1.6.16 1.44.32 1.44.32 1.44.32 1.44.48 1.44.48 1.28.64 1.28.64 1.28.8 1.28.64 1.12.96 1.12.8 1.12.96 1.13.96.96.96.96 1.12.96 1.12.8 1.12.8 1.28.64 1.12.64 1.28.64 1.28.64 1.44.48 1.28.32 1.44.32 1.44.32 1.44.16 1.44.16 1.6v2.88l-.16 1.6-.16 1.44-.32 1.44-.32 1.44-.32 1.44-.48 1.28-.64 1.44-.64 1.28-.64 1.28-.64 1.12-.8 1.28-.8 1.12-.96 1.12-.96 1.12-.96.96-1.13.96-1.12.96-1.12.8-1.12.96-1.28.64-1.28.8-1.28.64-1.28.64-1.44.48-1.44.48-1.44.32-1.44.32-1.44.32-1.6.16-1.44.16h-3.2l-1.44-.16-1.6-.16-1.45-.32-1.44-.32-1.44-.32-1.44-.48-1.44-.48-1.28-.64-1.28-.64-1.28-.8-1.28-.64-1.12-.96-1.12-.8-1.12-.96-1.12-.96-.96-.96-.96-1.12-.8-1.12-.96-1.12-.8-1.28-.64-1.12-.64-1.28-.64-1.28-.64-1.44-.32-1.28-.48-1.44-.32-1.44-.33-1.44-.16-1.44-.16-1.6v-1.44" style="fill:none;stroke:#7fdcf7;stroke-width:2.08;stroke-linecap:round;stroke-linejoin:round;clip-path:url(#a)"/><path d="m246.18 52-185.04 110.08m59.23-109.92 125.97-.16" fill="none" stroke="#9fe0f5" stroke-linecap="round" stroke-linejoin="round" stroke-width="6.08"/></svg>