<?xml version="1.0" encoding="UTF-8" standalone="no"?>
<svg
   xmlns:dc="http://purl.org/dc/elements/1.1/"
   xmlns:cc="http://creativecommons.org/ns#"
   xmlns:rdf="http://www.w3.org/1999/02/22-rdf-syntax-ns#"
   xmlns:svg="http://www.w3.org/2000/svg"
   xmlns="http://www.w3.org/2000/svg"
   version="1.1"
   id="svg2"
   viewBox="0 0 322.95036 347.64681"
   height="98.113655mm"
   width="91.143768mm">
  <defs
     id="defs4" />
  <metadata
     id="metadata7">
    <rdf:RDF>
      <cc:Work
         rdf:about="">
        <dc:format>image/svg+xml</dc:format>
        <dc:type
           rdf:resource="http://purl.org/dc/dcmitype/StillImage" />
        <dc:title></dc:title>
      </cc:Work>
    </rdf:RDF>
  </metadata>
  <g
     transform="translate(0,-704.71604)"
     id="layer1">
    <path
       clip-path="none"
       id="path4201"
       d="m 67.547252,1052.0931 c -7.9281,-1.0284 -14.765312,-6.4715 -16.995602,-13.5302 -1.15533,-3.6566 -1.4286,-7.723 -1.26804,-18.8699 0.15141,-10.5114 0.36234,-12.4408 1.74312,-15.9439 2.3469,-5.95413 8.833052,-10.80912 15.960032,-11.94627 2.76648,-0.44142 7.36062,-0.23418 9.9636,0.44946 5.57166,1.46334 10.23918,5.31042 12.75594,10.51371 1.1997,2.4804 2.49993,6.6361 2.21865,7.0912 -0.088,0.1423 -2.15895,0.2588 -4.60209,0.2588 l -4.4421,0 -0.68157,-1.875 c -1.79976,-4.9512 -4.9053,-7.6593 -9.53649,-8.31612 -5.16024,-0.73185 -10.28448,1.61822 -12.348,5.66302 -1.547762,3.0339 -1.664342,4.1707 -1.664312,16.2281 0,9.8259 0.0679,11.515 0.53652,13.3433 0.684272,2.6699 1.612862,4.241 3.520262,5.9559 2.30196,2.0697 4.26417,2.7348 8.09319,2.7436 2.91435,0.01 3.29589,-0.063 5.1,-0.9257 3.12267,-1.4939 4.97958,-3.6297 6.29691,-7.2425 l 0.68349,-1.8746 4.6023,0 4.6023,0 -0.18747,0.975 c -0.42021,2.1854 -1.6989,5.5908 -2.79666,7.4483 -3.29232,5.5708 -8.65239,9.0011 -15.44478,9.8844 -2.43156,0.3161 -3.47634,0.3109 -6.1092,-0.031 z m 53.710978,0 c -7.02864,-0.9125 -13.16934,-5.0852 -15.89574,-10.8014 -2.21991,-4.6543 -2.16213,-3.911 -2.16213,-27.821 l 0,-21.35587 4.48686,0 4.48683,0 0.0938,21.22497 c 0.0926,20.9406 0.10257,21.2481 0.74526,22.945 1.80048,4.7538 5.30973,7.3356 10.40259,7.6534 6.61221,0.4125 11.38836,-2.8027 12.96615,-8.7284 0.32946,-1.2374 0.41205,-5.6807 0.4149,-22.32 l 0.004,-20.77377 4.6629,0 4.66293,0 -0.10359,21.67497 c -0.0939,19.6524 -0.15306,21.843 -0.6336,23.475 -2.43078,8.2555 -9.02364,13.7207 -17.89329,14.8328 -2.80899,0.3523 -3.49335,0.3518 -6.23748,0 z m 39.44214,-0.4783 c -0.11001,-0.1088 -0.20001,-13.549 -0.20001,-29.8659 l 0,-29.66707 13.275,0.0921 13.275,0.0921 2.4,0.84762 c 3.62868,1.28154 5.18235,2.23551 7.65834,4.70238 3.39852,3.38597 4.89102,6.78377 5.70531,12.98837 0.43158,3.2886 0.20277,21.7947 -0.29937,24.2116 -1.99815,9.6176 -7.50741,15.0199 -16.81428,16.4879 -2.1309,0.3361 -24.67491,0.4372 -24.99999,0.1121 z m 26.02902,-9.1831 c 2.66685,-1.2489 4.20561,-2.6573 5.2737,-4.827 1.60812,-3.2665 1.8612,-5.7939 1.72842,-17.261 -0.1092,-9.4285 -0.15966,-10.2087 -0.7821,-12.0912 -1.12671,-3.4078 -3.43449,-5.8188 -6.86436,-7.1714 -1.59951,-0.6309 -2.30157,-0.6934 -9.00969,-0.8025 l -7.275,-0.1183 0,21.65 0,21.65 7.575,-0.098 c 7.56111,-0.098 7.57827,-0.099 9.35403,-0.9309 z m 21.90378,8.8657 c 0.0979,-0.2929 5.00664,-13.6951 10.9083,-29.7826 l 10.73031,-29.24997 3.75267,-0.0835 3.75267,-0.0835 10.86267,29.63357 c 5.97447,16.2984 10.86222,29.7347 10.86162,29.8584 0,0.1238 -2.14827,0.225 -4.77267,0.225 l -4.77165,0 -0.88944,-2.475 c -0.48918,-1.3612 -1.40883,-4.0612 -2.0436,-6 l -1.15419,-3.525 -11.75994,0 -11.75994,0 -0.47676,1.275 c -0.26223,0.7013 -1.18464,3.3675 -2.04981,5.925 l -1.57305,4.65 -4.89762,0.082 c -4.57764,0.077 -4.88598,0.048 -4.71957,-0.45 z m 31.53204,-28.3576 c -4.2153,-12.3245 -5.54505,-16.1936 -5.74806,-16.725 -0.15369,-0.4021 -1.41273,3.0277 -7.6263,20.775 l -1.75929,5.025 9.11874,0 9.11877,0 -3.10386,-9.075 z m 10.87257,-21.2215 c -2.16087,-0.6514 -3.82425,-2.87114 -3.82425,-5.10347 0,-3.39192 3.61017,-6.13188 6.72489,-5.10393 2.38764,0.78798 3.76194,2.65254 3.76194,5.10393 0,0.84138 -0.19764,1.91202 -0.43923,2.37915 -0.60777,1.17532 -2.06649,2.33862 -3.3951,2.70762 -1.27851,0.3551 -1.69746,0.3576 -2.82825,0.017 z m 3.39075,-1.368 c 1.25922,-0.6512 2.06958,-2.11385 2.06958,-3.73547 0,-1.62162 -0.81036,-3.08427 -2.06958,-3.73545 -2.71467,-1.40259 -6.02817,0.65064 -6.02817,3.73665 0,3.08601 3.3135,5.13927 6.02817,3.73547 z m -3.80052,-1.13555 c -0.0845,-0.22005 -0.11397,-1.5363 -0.0656,-2.925 l 0.0879,-2.52492 1.60992,0.0147 c 1.22175,0.0111 1.71,0.15156 2.025,0.58233 0.555,0.759 0.52386,1.63554 -0.0819,2.30487 -0.46341,0.51204 -0.45924,0.6192 0.0618,1.58676 0.30735,0.57072 0.46929,1.12716 0.35991,1.23657 -0.38634,0.38631 -1.13178,-0.16953 -1.6308,-1.21599 -0.68988,-1.44669 -1.29399,-1.38096 -1.29399,0.14076 0,0.87759 -0.12342,1.2 -0.45942,1.2 -0.25266,0 -0.52851,-0.18003 -0.61293,-0.40008 z m 2.72235,-3.64872 c 0,-0.43152 -0.23163,-0.62664 -0.825,-0.69492 -0.71514,-0.0823 -0.825,0.0102 -0.825,0.69492 0,0.68466 0.10986,0.77721 0.825,0.69492 0.59337,-0.0683 0.825,-0.2634 0.825,-0.69492 z m 61.57578,-50.6166 c -1.3764,-0.85416 -1.86606,-1.52607 -2.30793,-3.16713 -1.14105,-4.23747 3.44814,-7.70826 7.66182,-5.79465 1.91292,0.86874 2.67033,2.16819 2.67033,4.58139 0,3.23235 -1.55109,4.8132 -4.8846,4.97826 -1.69494,0.0839 -2.19417,-0.0111 -3.13962,-0.59787 z m 4.81728,-1.14108 c 2.02662,-1.23561 2.35176,-4.25136 0.6426,-5.96052 -2.36772,-2.36769 -6.28122,-0.64158 -6.28455,2.77191 -0.003,3.02625 3.06465,4.75992 5.64195,3.18861 z m -3.9327,-0.48195 c -0.11568,-0.11571 -0.21036,-1.40286 -0.21036,-2.86038 l 0,-2.64999 1.66971,0 c 2.2437,0 2.83029,0.34998 2.83029,1.68864 0,0.81978 -0.14106,1.10442 -0.6078,1.22646 l -0.60777,0.15894 0.60777,1.03014 c 0.78108,1.32381 0.76644,1.66008 -0.0672,1.5417 -0.4197,-0.0596 -0.90192,-0.52107 -1.275,-1.22007 -0.33,-0.6183 -0.69309,-1.12455 -0.80688,-1.125 -0.11379,0 -0.24879,0.50433 -0.3,1.1217 -0.0888,1.0707 -0.70563,1.61499 -1.23276,1.08786 z m 2.96037,-3.74391 c 0.23898,-0.38667 -0.38388,-0.85521 -1.14573,-0.86187 -0.32652,-0.003 -0.525,0.22224 -0.525,0.59541 0,0.43614 0.20001,0.6 0.7323,0.6 0.40275,0 0.82506,-0.15009 0.93843,-0.33354 z M 3.7e-4,914.86603 l 0,-28.95 17.02499,0 c 10.23324,0 18.10212,0.12921 19.725,0.32259 11.58024,1.38 17.79528,6.27795 20.49681,16.15317 l 0.78606,2.8734 0.0979,19.275 0.0979,19.275 -7.96431,0 -7.96431,0 -0.003,-13.425 c -0.003,-13.06035 -0.25206,-18.78381 -0.94332,-21.63438 -0.92943,-3.83253 -3.16416,-6.68187 -6.1878,-7.88952 -1.61913,-0.64671 -2.19612,-0.69138 -10.1913,-0.78918 l -8.475,-0.10368 0,21.92088 0,21.92088 -8.24999,0 -8.25,0 0,-28.95 z m 70.114912,0.36759 c -5.0682,-15.72033 -9.21492,-28.74987 -9.21492,-28.95453 0,-0.2895 1.9464,-0.35445 8.76525,-0.29259 l 8.76522,0.0795 6.44676,22.57302 c 3.5457,12.41514 6.54051,22.47264 6.65514,22.35 0.15297,-0.16374 8.32689,-27.43161 13.353868,-44.54802 0.14211,-0.48384 0.81351,-0.525 8.56608,-0.525 6.60264,0 8.38236,0.0806 8.27472,0.375 -0.0754,0.20625 -4.30866,13.23324 -9.4071,28.94889 l -9.26994,28.57392 -11.860078,0 -11.86008,0 -9.21492,-28.58241 z m 58.585078,-0.37242 0,-28.9548 8.175,0.0798 8.175,0.0798 0.0765,28.875 0.0765,28.875 -8.2515,0 -8.2515,0 0,-28.95483 z m 26.1735,0.0988 0.0765,-28.89396 15.75,0.0156 c 13.54575,0.0132 16.16805,0.0883 18.73716,0.53553 7.9002,1.37535 12.96051,4.28523 16.69194,9.59859 5.97225,8.50419 6.63042,26.05185 1.37952,36.77946 -1.75656,3.58866 -6.53139,7.68078 -10.50534,9.00321 -4.85421,1.61538 -4.79616,1.61118 -24.12978,1.73754 l -18.0765,0.11814 0.0765,-28.89399 z m 29.4252,15.83337 c 5.3598,-1.47753 8.58195,-4.65033 9.9693,-9.81663 0.2379,-0.88587 0.51069,-2.9607 0.60621,-4.6107 0.41445,-7.16016 -2.13852,-13.04799 -6.74463,-15.55494 -2.79108,-1.51911 -5.52927,-1.99506 -11.47758,-1.99506 l -5.352,0 0,16.38933 0,16.38936 5.625,-0.15966 c 3.79293,-0.10764 6.19455,-0.31665 7.3737,-0.6417 z m 34.1748,-15.85233 0.0765,-28.875 8.175,-0.0798 8.175,-0.0798 0,28.9548 0,28.95483 -8.2515,0 -8.2515,0 0.0765,-28.875 z m 28.75962,14.55 c 3.11259,-7.87875 8.25456,-20.90625 11.42664,-28.95 l 5.76738,-14.625 10.86873,0 c 6.93549,0 10.93593,0.10878 11.05446,0.30054 0.19791,0.32022 21.82818,54.57291 22.51608,56.47446 l 0.40698,1.125 -8.76831,0 -8.76831,0 -1.66512,-5.025 -1.66512,-5.025 -13.51689,-0.078 -13.51686,-0.078 -1.76139,5.10186 -1.76139,5.10183 -8.13807,0 -8.13807,0 5.65926,-14.325 z m 37.46688,-6.07458 c 0,-0.42237 -9.30327,-25.90392 -9.55239,-26.1639 -0.16671,-0.17397 -3.45681,8.30235 -9.48585,24.43848 l -0.7566,2.025 9.89742,0 c 6.38901,0 9.89742,-0.1062 9.89742,-0.29958 z m -177.60003,-73.87542 0,-8.775 9.075,0 c 9.32157,0 11.277,-0.14121 21.37503,-1.53714 24.53751,-3.39198 55.23423,-12.78384 76.35,-23.35968 7.15836,-3.5853 15.12147,-8.46801 19.73868,-12.10308 l 1.88868,-1.48695 -1.28868,-1.0506 c -1.70478,-1.38984 -5.23158,-3.50814 -13.58868,-8.1618 -3.795,-2.11325 -7.95693,-4.49656 -9.24876,-5.29623 -1.29183,-0.79967 -2.4465,-1.45395 -2.56596,-1.45395 -0.11946,0 -1.83,1.36856 -3.80124,3.04125 -29.28573,24.85053 -51.2232,35.82435 -77.98404,39.01008 -3.44214,0.40974 -16.39914,0.51837 -18.525,0.15528 l -1.425,-0.24336 0,-6.31914 0,-6.31911 0.91689,0.18339 c 4.97931,0.99585 13.23582,0.94203 19.48311,-0.12702 16.59315,-2.83944 35.36433,-13.21176 53.86698,-29.7651 4.3203,-3.86514 13.28901,-12.85727 15.84999,-15.89138 l 1.45611,-1.72512 -1.74717,-2.02488 c -12.13173,-14.06083 -28.84491,-26.47359 -44.92953,-33.36946 -13.17369,-5.64787 -28.39311,-8.61419 -40.92138,-7.97572 l -3.975,0.20258 0,-10.21643 0,-10.21643 72.9,0 72.9,0 0,76.8 0,76.8 -72.9,0 -72.9,0 -3e-5,-8.775 z m -2.24997,-9.43179 c -32.558878,-4.22871 -59.14224,-23.74461 -77.6085,-56.97544 -2.10033,-3.77963 -6.10431,-12.25602 -6.66924,-14.11869 -0.16554,-0.54587 0.27669,-1.07324 2.74017,-3.26756 4.20855,-3.74877 10.63305,-8.8474 15.82275,-12.55732 22.026782,-15.74611 45.611822,-25.65404 65.78982,-27.63789 l 2.175,-0.21384 0,5.56076 0,5.56076 5.625,9e-4 c 8.15367,0.001 13.84341,0.94442 21.525,3.56869 8.63988,2.95164 17.05254,7.74796 25.33515,14.44437 6.03057,4.87564 14.78481,14.03696 14.18472,14.84432 -0.1422,0.19133 -1.44096,1.80186 -2.88609,3.57895 -14.52453,17.86063 -31.50372,29.97157 -46.00281,32.81293 -4.86762,0.95388 -11.19081,0.65745 -16.50597,-0.77379 l -1.275,-0.34335 0,-21.01659 0,-21.01658 1.575,0.21465 c 2.70879,0.36918 5.99202,1.33668 8.175,2.40902 5.10036,2.50542 8.05614,5.88907 14.39847,16.48263 1.28421,2.145 2.37162,3.9442 2.41647,3.99823 0.059,0.0711 17.37522,-14.37441 19.75737,-16.48192 0.76848,-0.6799 -6.09633,-7.09239 -11.37231,-10.62298 -5.59329,-3.74292 -11.41545,-6.24677 -17.9052,-7.70022 -2.74842,-0.61553 -3.87549,-0.69311 -10.06986,-0.69311 l -6.97506,0 6e-5,-6.825 6e-5,-6.825 -0.975,0.005 c -0.53625,0.003 -2.3925,0.20543 -4.125,0.44979 -10.097668,1.42425 -17.955388,3.8525 -27.169888,8.39624 -8.19069,4.0389 -15.633422,9.26739 -22.432202,15.75857 -3.16623,3.023 -8.06007,8.65635 -8.25084,9.4977 -0.26937,1.18772 3.64926,10.21782 7.12452,16.41774 12.892952,23.00146 31.341992,37.34854 52.67841,40.96585 l 3,0.50862 0.0813,5.90001 0.0814,5.89998 -0.68136,-0.0449 c -0.37473,-0.0246 -1.08633,-0.0976 -1.58133,-0.16185 z m -1.5,-25.42287 c -14.207248,-3.68421 -25.638388,-12.4827 -34.239868,-26.35424 -2.12097,-3.42045 -5.14176,-9.67435 -6.40785,-13.2661 l -0.95178,-2.7 2.19975,-2.05504 c 5.33289,-4.98205 13.23333,-10.19088 20.46021,-13.48962 6.47493,-2.95551 14.9049,-5.41548 20.814538,-6.07393 l 1.875,-0.20891 0,5.88875 0,5.88875 -2.96154,0 c -7.090408,0 -14.741878,3.49839 -21.235258,9.70917 l -2.55189,2.44083 0.81258,2.25 c 3.5124,9.7257 10.33065,19.00702 17.47959,23.79402 2.102338,1.40778 7.435888,4.10598 8.116228,4.10598 0.24111,0 0.34029,1.57377 0.34029,5.4 0,6.24777 0.40206,5.74704 -3.75,4.67034 z"
       style="fill:#8ec63f;fill-opacity:1" />
    <path
       clip-path="none"
       id="path4201-3"
       d="m 67.547251,1052.0924 c -7.9281,-1.0283 -14.765309,-6.4714 -16.995599,-13.5302 -1.15533,-3.6566 -1.4286,-7.7229 -1.26804,-18.8698 0.15141,-10.5114 0.36234,-12.4409 1.74312,-15.9439 2.3469,-5.95416 8.833049,-10.80915 15.960029,-11.9463 2.76648,-0.44142 7.36062,-0.23418 9.9636,0.44946 5.57166,1.46334 10.23918,5.31042 12.75594,10.51374 1.1997,2.4803 2.49993,6.636 2.21865,7.0911 -0.088,0.1424 -2.15895,0.2589 -4.60209,0.2589 l -4.4421,0 -0.68157,-1.875 c -1.79976,-4.9512 -4.9053,-7.6593 -9.53649,-8.31615 -5.16024,-0.73185 -10.28448,1.61825 -12.348,5.66305 -1.54776,3.0338 -1.66434,4.1707 -1.66431,16.2281 0,9.8258 0.0679,11.5149 0.53652,13.3433 0.68427,2.6698 1.61286,4.2409 3.52026,5.9558 2.30196,2.0697 4.26417,2.7349 8.09319,2.7436 2.91435,0.01 3.29589,-0.063 5.1,-0.9257 3.12267,-1.4939 4.97958,-3.6297 6.29691,-7.2425 l 0.68349,-1.8745 4.6023,0 4.6023,0 -0.18747,0.975 c -0.42021,2.1853 -1.6989,5.5908 -2.79666,7.4482 -3.29232,5.5708 -8.65239,9.0011 -15.44478,9.8844 -2.43156,0.3161 -3.47634,0.3109 -6.1092,-0.031 z m 53.710979,0 c -7.02864,-0.9125 -13.16934,-5.0852 -15.89574,-10.8014 -2.21991,-4.6543 -2.16213,-3.911 -2.16213,-27.821 l 0,-21.3558 4.48686,0 4.48683,0 0.0938,21.225 c 0.0926,20.9405 0.10257,21.248 0.74526,22.9449 1.80048,4.7538 5.30973,7.3356 10.40259,7.6534 6.61221,0.4125 11.38836,-2.8027 12.96615,-8.7284 0.32946,-1.2374 0.41205,-5.6806 0.4149,-22.3199 l 0.004,-20.7738 4.6629,0 4.66293,0 -0.10359,21.675 c -0.0939,19.6523 -0.15306,21.8429 -0.6336,23.475 -2.43078,8.2554 -9.02364,13.7206 -17.89329,14.8328 -2.80899,0.3522 -3.49335,0.3517 -6.23748,0 z m 39.44214,-0.4783 c -0.11001,-0.1087 -0.20001,-13.5489 -0.20001,-29.8658 l 0,-29.6671 13.275,0.0921 13.275,0.0921 2.4,0.84762 c 3.62868,1.28154 5.18235,2.23551 7.65834,4.70238 3.39852,3.386 4.89102,6.7837 5.70531,12.9884 0.43158,3.2886 0.20277,21.7947 -0.29937,24.2116 -1.99815,9.6175 -7.50741,15.0198 -16.81428,16.4878 -2.1309,0.3362 -24.67491,0.4373 -24.99999,0.1121 z m 26.02902,-9.1831 c 2.66685,-1.2489 4.20561,-2.6573 5.2737,-4.8269 1.60812,-3.2666 1.8612,-5.794 1.72842,-17.261 -0.1092,-9.4285 -0.15966,-10.2088 -0.7821,-12.0913 -1.12671,-3.4077 -3.43449,-5.8187 -6.86436,-7.1713 -1.59951,-0.6309 -2.30157,-0.6934 -9.00969,-0.8025 l -7.275,-0.1183 0,21.65 0,21.6499 7.575,-0.098 c 7.56111,-0.098 7.57827,-0.099 9.35403,-0.9308 z m 21.90378,8.8657 c 0.0979,-0.2929 5.00664,-13.695 10.9083,-29.7825 l 10.73031,-29.25 3.75267,-0.0835 3.75267,-0.0835 10.86267,29.6335 c 5.97447,16.2984 10.86222,29.7347 10.86162,29.8585 0,0.1237 -2.14827,0.225 -4.77267,0.225 l -4.77165,0 -0.88944,-2.475 c -0.48918,-1.3613 -1.40883,-4.0613 -2.0436,-6 l -1.15419,-3.525 -11.75994,0 -11.75994,0 -0.47676,1.275 c -0.26223,0.7012 -1.18464,3.3675 -2.04981,5.925 l -1.57305,4.65 -4.89762,0.082 c -4.57764,0.077 -4.88598,0.048 -4.71957,-0.45 z m 31.53204,-28.3575 c -4.2153,-12.3245 -5.54505,-16.1937 -5.74806,-16.725 -0.15369,-0.4022 -1.41273,3.0276 -7.6263,20.775 l -1.75929,5.025 9.11874,0 9.11877,0 z m 10.87257,-21.2215 c -2.16087,-0.6514 -3.82425,-2.87117 -3.82425,-5.1035 0,-3.39192 3.61017,-6.13188 6.72489,-5.10393 2.38764,0.78798 3.76194,2.65254 3.76194,5.10393 0,0.84138 -0.19764,1.91202 -0.43923,2.37915 -0.60777,1.17535 -2.06649,2.33865 -3.3951,2.70765 -1.27851,0.3551 -1.69746,0.3575 -2.82825,0.017 z m 3.39075,-1.368 c 1.25922,-0.65123 2.06958,-2.11388 2.06958,-3.7355 0,-1.62162 -0.81036,-3.08427 -2.06958,-3.73545 -2.71467,-1.40259 -6.02817,0.65064 -6.02817,3.73665 0,3.08601 3.3135,5.1392 6.02817,3.7355 z m -3.80052,-1.13558 c -0.0845,-0.22005 -0.11397,-1.5363 -0.0656,-2.925 l 0.0879,-2.52492 1.60992,0.0147 c 1.22175,0.0111 1.71,0.15156 2.025,0.58233 0.555,0.759 0.52386,1.63554 -0.0819,2.30487 -0.46341,0.51204 -0.45924,0.6192 0.0618,1.58676 0.30735,0.57072 0.46929,1.12716 0.35991,1.23657 -0.38634,0.38631 -1.13178,-0.16953 -1.6308,-1.21599 -0.68988,-1.44669 -1.29399,-1.38096 -1.29399,0.14076 0,0.87759 -0.12342,1.2 -0.45942,1.2 -0.25266,0 -0.52851,-0.18003 -0.61293,-0.40008 z m 2.72235,-3.64872 c 0,-0.43152 -0.23163,-0.62664 -0.825,-0.69492 -0.71514,-0.0823 -0.825,0.0102 -0.825,0.69492 0,0.68466 0.10986,0.77721 0.825,0.69492 0.59337,-0.0683 0.825,-0.2634 0.825,-0.69492 z m 61.57578,-50.6166 c -1.3764,-0.85416 -1.86606,-1.52607 -2.30793,-3.16713 -1.14105,-4.23747 3.44814,-7.70826 7.66182,-5.79465 1.91292,0.86874 2.67033,2.16819 2.67033,4.58139 0,3.23235 -1.55109,4.8132 -4.8846,4.97826 -1.69494,0.0839 -2.19417,-0.0111 -3.13962,-0.59787 z m 4.81728,-1.14108 c 2.02662,-1.23561 2.35176,-4.25136 0.6426,-5.96052 -2.36772,-2.36769 -6.28122,-0.64158 -6.28455,2.77191 -0.003,3.02625 3.06465,4.75992 5.64195,3.18861 z m -3.9327,-0.48195 c -0.11568,-0.11571 -0.21036,-1.40286 -0.21036,-2.86038 l 0,-2.64999 1.66971,0 c 2.2437,0 2.83029,0.34998 2.83029,1.68864 0,0.81978 -0.14106,1.10442 -0.6078,1.22646 l -0.60777,0.15894 0.60777,1.03014 c 0.78108,1.32381 0.76644,1.66008 -0.0672,1.5417 -0.4197,-0.0596 -0.90192,-0.52107 -1.275,-1.22007 -0.33,-0.6183 -0.69309,-1.12455 -0.80688,-1.125 -0.11379,0 -0.24879,0.50433 -0.3,1.1217 -0.0888,1.0707 -0.70563,1.61499 -1.23276,1.08786 z m 2.96037,-3.74391 c 0.23898,-0.38667 -0.38388,-0.85521 -1.14573,-0.86187 -0.32652,-0.003 -0.525,0.22224 -0.525,0.59541 0,0.43614 0.20001,0.6 0.7323,0.6 0.40275,0 0.82506,-0.15009 0.93843,-0.33354 z M 3.7e-4,914.8654 l 0,-28.95 17.024996,0 c 10.23324,0 18.102116,0.12921 19.724996,0.32259 11.58024,1.38 17.79528,6.27795 20.496809,16.15317 l 0.78606,2.8734 0.0979,19.275 0.0979,19.275 -7.964309,0 -7.96431,0 -0.003,-13.425 c -0.003,-13.06035 -0.25206,-18.78381 -0.94332,-21.63438 -0.92943,-3.83253 -3.16416,-6.68187 -6.1878,-7.88952 -1.61913,-0.64671 -2.19612,-0.69138 -10.191296,-0.78918 l -8.475,-0.10368 0,21.92088 0,21.92088 -8.249996,0 -8.25,0 0,-28.95 z m 70.114911,0.36759 c -5.0682,-15.72033 -9.21492,-28.74987 -9.21492,-28.95453 0,-0.2895 1.9464,-0.35445 8.76525,-0.29259 l 8.76522,0.0795 6.44676,22.57302 c 3.5457,12.41514 6.54051,22.47264 6.65514,22.35 0.15297,-0.16374 8.32689,-27.43161 13.353869,-44.54802 0.14211,-0.48384 0.81351,-0.525 8.56608,-0.525 6.60264,0 8.38236,0.0806 8.27472,0.375 -0.0754,0.20625 -4.30866,13.23324 -9.4071,28.94889 l -9.26994,28.57392 -11.860079,0 -11.86008,0 -9.21492,-28.58241 z m 58.585079,-0.37242 0,-28.9548 8.175,0.0798 8.175,0.0798 0.0765,28.875 0.0765,28.875 -8.2515,0 -8.2515,0 0,-28.95483 z m 26.1735,0.0988 0.0765,-28.89396 15.75,0.0156 c 13.54575,0.0132 16.16805,0.0883 18.73716,0.53553 7.9002,1.37535 12.96051,4.28523 16.69194,9.59859 5.97225,8.50419 6.63042,26.05185 1.37952,36.77946 -1.75656,3.58866 -6.53139,7.68078 -10.50534,9.00321 -4.85421,1.61538 -4.79616,1.61118 -24.12978,1.73754 l -18.0765,0.11814 0.0765,-28.89399 z m 29.4252,15.83337 c 5.3598,-1.47753 8.58195,-4.65033 9.9693,-9.81663 0.2379,-0.88587 0.51069,-2.9607 0.60621,-4.6107 0.41445,-7.16016 -2.13852,-13.04799 -6.74463,-15.55494 -2.79108,-1.51911 -5.52927,-1.99506 -11.47758,-1.99506 l -5.352,0 0,16.38933 0,16.38936 5.625,-0.15966 c 3.79293,-0.10764 6.19455,-0.31665 7.3737,-0.6417 z m 34.1748,-15.85233 0.0765,-28.875 8.175,-0.0798 8.175,-0.0798 0,28.9548 0,28.95483 -8.2515,0 -8.2515,0 0.0765,-28.875 z m 28.75962,14.55 c 3.11259,-7.87875 8.25456,-20.90625 11.42664,-28.95 l 5.76738,-14.625 10.86873,0 c 6.93549,0 10.93593,0.10878 11.05446,0.30054 0.19791,0.32022 21.82818,54.57291 22.51608,56.47446 l 0.40698,1.125 -8.76831,0 -8.76831,0 -1.66512,-5.025 -1.66512,-5.025 -13.51689,-0.078 -13.51686,-0.078 -1.76139,5.10186 -1.76139,5.10183 -8.13807,0 -8.13807,0 5.65926,-14.325 z m 37.46688,-6.07458 c 0,-0.42237 -9.30327,-25.90392 -9.55239,-26.1639 -0.16671,-0.17397 -3.45681,8.30235 -9.48585,24.43848 l -0.7566,2.025 9.89742,0 c 6.38901,0 9.89742,-0.1062 9.89742,-0.29958 z"
       style="fill:#000000;fill-opacity:1" />
  </g>
</svg>
