<svg xmlns="http://www.w3.org/2000/svg" viewBox="0 0 322.95036 347.64681" height="370.823" width="344.48"><path d="M67.547 347.377c-7.928-1.028-14.765-6.471-16.995-13.53-1.156-3.657-1.429-7.723-1.268-18.87.151-10.511.362-12.44 1.743-15.944 2.347-5.954 8.833-10.81 15.96-11.946 2.766-.442 7.36-.234 9.963.45a19.767 19.767 0 0 1 12.756 10.513c1.2 2.48 2.5 6.636 2.219 7.091-.088.142-2.159.259-4.602.259H82.88l-.682-1.875c-1.8-4.951-4.905-7.66-9.536-8.316-5.16-.732-10.285 1.618-12.348 5.663-1.548 3.034-1.665 4.17-1.665 16.228 0 9.826.068 11.515.537 13.343.684 2.67 1.613 4.241 3.52 5.956 2.302 2.07 4.264 2.735 8.093 2.744 2.915.01 3.296-.063 5.1-.926 3.123-1.494 4.98-3.63 6.297-7.242l.684-1.875h9.204l-.187.975c-.42 2.185-1.699 5.59-2.797 7.448-3.292 5.571-8.652 9.001-15.445 9.885-2.431.316-3.476.31-6.109-.031zm53.711 0c-7.028-.912-13.17-5.085-15.896-10.801-2.22-4.655-2.162-3.911-2.162-27.821v-21.356h8.974l.094 21.225c.092 20.94.102 21.248.745 22.945 1.8 4.754 5.31 7.335 10.403 7.653 6.612.413 11.388-2.803 12.966-8.728.33-1.238.412-5.68.415-22.32l.004-20.774h9.326l-.104 21.675c-.094 19.652-.153 21.843-.634 23.475-2.43 8.255-9.023 13.72-17.893 14.833-2.809.352-3.493.352-6.237 0zm39.442-.478c-.11-.109-.2-13.55-.2-29.866v-29.667l13.275.092 13.275.092 2.4.848c3.629 1.281 5.183 2.235 7.659 4.702 3.398 3.386 4.89 6.784 5.705 12.988.432 3.289.203 21.795-.3 24.212-1.998 9.618-7.507 15.02-16.814 16.488-2.13.336-24.675.437-25 .112zm26.03-9.183c2.666-1.25 4.205-2.658 5.273-4.827 1.608-3.267 1.861-5.794 1.729-17.261-.11-9.429-.16-10.209-.783-12.092-1.126-3.407-3.434-5.818-6.864-7.17-1.6-.632-2.302-.694-9.01-.803l-7.275-.119v43.3l7.575-.098c7.561-.098 7.579-.099 9.354-.93zm21.903 8.865c.098-.293 5.007-13.695 10.908-29.782l10.73-29.25 3.753-.084 3.753-.083 10.863 29.633c5.974 16.299 10.862 29.735 10.861 29.859 0 .124-2.148.225-4.772.225h-4.772l-.89-2.475a275.285 275.285 0 0 1-2.043-6l-1.154-3.525h-23.52l-.477 1.275c-.262.701-1.184 3.367-2.05 5.925l-1.573 4.65-4.897.082c-4.578.077-4.886.048-4.72-.45zm31.532-28.357c-4.215-12.325-5.545-16.194-5.748-16.725-.154-.402-1.413 3.027-7.626 20.775l-1.76 5.025h18.238l-3.104-9.075zm10.873-21.222c-2.161-.651-3.824-2.87-3.824-5.103 0-3.392 3.61-6.132 6.724-5.104 2.388.788 3.762 2.652 3.762 5.104 0 .841-.197 1.912-.439 2.379-.608 1.175-2.066 2.339-3.395 2.708-1.278.355-1.697.357-2.828.017zm3.39-1.368c1.26-.65 2.07-2.114 2.07-3.735 0-1.622-.81-3.084-2.07-3.736-2.714-1.402-6.028.651-6.028 3.737 0 3.086 3.314 5.14 6.029 3.735zm-3.8-1.135c-.084-.22-.114-1.537-.066-2.925l.088-2.525 1.61.014c1.222.012 1.71.152 2.025.583.555.759.524 1.635-.082 2.305-.463.512-.459.619.062 1.586.307.571.47 1.128.36 1.237-.386.386-1.132-.17-1.63-1.216-.69-1.447-1.295-1.38-1.295.14 0 .878-.123 1.2-.46 1.2-.252 0-.528-.18-.612-.4zm2.722-3.649c0-.432-.231-.627-.825-.695-.715-.082-.825.01-.825.695 0 .685.11.777.825.695.594-.068.825-.263.825-.695zm61.576-50.617c-1.376-.854-1.866-1.526-2.308-3.167-1.14-4.237 3.448-7.708 7.662-5.794 1.913.868 2.67 2.168 2.67 4.581 0 3.232-1.55 4.813-4.884 4.978-1.695.084-2.194-.01-3.14-.598zm4.817-1.14c2.027-1.236 2.352-4.252.643-5.961-2.368-2.368-6.281-.642-6.285 2.772-.003 3.026 3.065 4.76 5.642 3.188zm-3.932-.483c-.116-.115-.21-1.403-.21-2.86v-2.65h1.67c2.243 0 2.83.35 2.83 1.689 0 .82-.142 1.104-.608 1.226l-.608.159.608 1.03c.78 1.324.766 1.66-.068 1.542-.42-.06-.902-.521-1.275-1.22-.33-.619-.693-1.125-.807-1.125-.113 0-.248.504-.3 1.121-.088 1.071-.705 1.615-1.232 1.088zm2.96-3.744c.24-.386-.384-.855-1.146-.861-.326-.003-.525.222-.525.595 0 .436.2.6.733.6.402 0 .825-.15.938-.334zM.001 210.15V181.2h17.024c10.234 0 18.102.13 19.725.323 11.58 1.38 17.796 6.278 20.497 16.153l.786 2.873.098 19.275.098 19.275H42.3l-.003-13.425c-.003-13.06-.252-18.784-.943-21.634-.93-3.833-3.164-6.682-6.188-7.89-1.619-.646-2.196-.691-10.191-.789l-8.475-.104V239.1H0v-28.95zm70.114.368c-5.068-15.72-9.215-28.75-9.215-28.955 0-.29 1.947-.354 8.766-.293l8.765.08 6.447 22.573c3.545 12.415 6.54 22.473 6.655 22.35.153-.164 8.327-27.432 13.354-44.548.142-.484.813-.525 8.566-.525 6.602 0 8.382.08 8.274.375-.075.206-4.308 13.233-9.407 28.949l-9.27 28.574H79.33l-9.215-28.583zm58.585-.373V181.19l8.175.08 8.175.08.077 28.875.076 28.875H128.7v-28.955zm26.174.099l.076-28.894 15.75.016c13.546.013 16.168.088 18.738.535 7.9 1.375 12.96 4.285 16.691 9.599 5.973 8.504 6.63 26.052 1.38 36.78-1.757 3.588-6.531 7.68-10.505 9.002-4.855 1.616-4.797 1.612-24.13 1.738l-18.077.118.077-28.894zm29.425 15.833c5.36-1.477 8.582-4.65 9.97-9.816.237-.886.51-2.961.606-4.611.414-7.16-2.139-13.048-6.745-15.555-2.791-1.52-5.53-1.995-11.478-1.995H171.3V226.879l5.625-.16c3.793-.108 6.195-.317 7.374-.642zm34.175-15.852l.076-28.875 8.175-.08 8.175-.08v57.91h-16.503l.077-28.875zm28.76 14.55c3.112-7.879 8.254-20.906 11.426-28.95l5.767-14.625h10.87c6.935 0 10.935.109 11.054.3.198.32 21.828 54.573 22.516 56.475l.407 1.125h-17.537l-1.665-5.025-1.665-5.025-13.517-.078-13.517-.078-1.761 5.102-1.762 5.102h-16.276l5.66-14.325zM284.7 218.7c0-.422-9.303-25.904-9.552-26.163-.167-.174-3.457 8.302-9.486 24.438l-.756 2.025h9.897c6.389 0 9.897-.106 9.897-.3zm-177.6-73.875v-8.775h9.075c9.322 0 11.277-.141 21.375-1.537 24.538-3.392 55.235-12.784 76.35-23.36 7.159-3.585 15.122-8.468 19.739-12.103l1.889-1.487-1.289-1.05c-1.705-1.39-5.232-3.509-13.589-8.162-3.795-2.114-7.957-4.497-9.248-5.296-1.292-.8-2.447-1.454-2.566-1.454-.12 0-1.83 1.368-3.802 3.04-29.285 24.851-51.223 35.825-77.984 39.01-3.442.41-16.399.52-18.525.156l-1.425-.243v-12.638l.917.183c4.98.996 13.236.942 19.483-.127 16.594-2.84 35.365-13.212 53.867-29.765 4.32-3.865 13.29-12.857 15.85-15.892l1.456-1.725-1.747-2.025c-12.131-14.06-28.845-26.473-44.93-33.369-13.173-5.648-28.392-8.614-40.92-7.976l-3.976.203V0h145.8v153.6H107.1v-8.775zm-2.25-9.432c-32.559-4.229-59.142-23.744-77.608-56.975-2.1-3.78-6.104-12.256-6.67-14.119-.165-.546.277-1.073 2.74-3.267 4.21-3.75 10.634-8.848 15.824-12.558 22.026-15.746 45.611-25.654 65.79-27.638l2.174-.214v11.122h5.625c8.154.002 13.844.945 21.525 3.57 8.64 2.951 17.053 7.748 25.336 14.444 6.03 4.876 14.784 14.037 14.184 14.844a332.64 332.64 0 0 1-2.886 3.58c-14.524 17.86-31.504 29.97-46.003 32.812-4.867.954-11.19.658-16.506-.774l-1.275-.343V57.844l1.575.214c2.71.37 5.992 1.337 8.175 2.41 5.1 2.505 8.056 5.889 14.399 16.482 1.284 2.145 2.371 3.944 2.416 3.998.06.071 17.376-14.374 19.758-16.482.768-.68-6.097-7.092-11.373-10.623-5.593-3.742-11.415-6.246-17.905-7.7-2.748-.615-3.875-.693-10.07-.693H107.1V31.8l-.975.005c-.536.003-2.392.206-4.125.45-10.097 1.424-17.955 3.852-27.17 8.396-8.19 4.04-15.633 9.268-22.432 15.759-3.166 3.023-8.06 8.656-8.25 9.497-.27 1.188 3.649 10.218 7.124 16.418 12.893 23.002 31.342 37.349 52.678 40.966l3 .509.082 5.9.081 5.9-.681-.045a30.867 30.867 0 0 1-1.582-.162zm-1.5-25.423c-14.207-3.684-25.638-12.482-34.24-26.354-2.12-3.42-5.141-9.674-6.407-13.266l-.952-2.7 2.2-2.055c5.333-4.982 13.233-10.19 20.46-13.49 6.475-2.955 14.905-5.415 20.814-6.074l1.875-.209V57.6h-2.961c-7.09 0-14.742 3.498-21.235 9.71l-2.552 2.44.812 2.25c3.513 9.726 10.33 19.007 17.48 23.794 2.102 1.408 7.436 4.106 8.116 4.106.241 0 .34 1.574.34 5.4 0 6.248.402 5.747-3.75 4.67z" fill="#8ec63f"/><path d="M67.547 347.376c-7.928-1.028-14.765-6.471-16.995-13.53-1.156-3.656-1.429-7.723-1.268-18.87.151-10.511.362-12.44 1.743-15.944 2.347-5.954 8.833-10.809 15.96-11.946 2.766-.441 7.36-.234 9.963.45a19.767 19.767 0 0 1 12.756 10.513c1.2 2.48 2.5 6.636 2.219 7.091-.088.143-2.159.26-4.602.26H82.88l-.682-1.876c-1.8-4.95-4.905-7.659-9.536-8.316-5.16-.732-10.285 1.618-12.348 5.663-1.548 3.034-1.665 4.171-1.665 16.228 0 9.826.068 11.515.537 13.344.684 2.67 1.613 4.24 3.52 5.955 2.302 2.07 4.264 2.735 8.093 2.744 2.915.01 3.296-.063 5.1-.926 3.123-1.494 4.98-3.63 6.297-7.242l.684-1.875h9.204l-.187.975c-.42 2.186-1.699 5.591-2.797 7.449-3.292 5.57-8.652 9-15.445 9.884-2.431.316-3.476.31-6.109-.031zm53.711 0c-7.028-.912-13.17-5.085-15.896-10.801-2.22-4.654-2.162-3.911-2.162-27.821v-21.356h8.974l.094 21.225c.092 20.94.102 21.248.745 22.945 1.8 4.754 5.31 7.336 10.403 7.653 6.612.413 11.388-2.802 12.966-8.728.33-1.237.412-5.68.415-22.32l.004-20.774h9.326l-.104 21.675c-.094 19.653-.153 21.843-.634 23.475-2.43 8.256-9.023 13.721-17.893 14.833-2.809.352-3.493.352-6.237 0zm39.442-.478c-.11-.109-.2-13.549-.2-29.866v-29.667l13.275.092 13.275.092 2.4.848c3.629 1.282 5.183 2.235 7.659 4.702 3.398 3.386 4.89 6.784 5.705 12.989.432 3.288.203 21.794-.3 24.211-1.998 9.618-7.507 15.02-16.814 16.488-2.13.336-24.675.437-25 .112zm26.03-9.183c2.666-1.249 4.205-2.657 5.273-4.827 1.608-3.267 1.861-5.794 1.729-17.26-.11-9.43-.16-10.21-.783-12.092-1.126-3.408-3.434-5.819-6.864-7.172-1.6-.63-2.302-.693-9.01-.802l-7.275-.118v43.3l7.575-.098c7.561-.098 7.579-.1 9.354-.931zm21.903 8.866c.098-.293 5.007-13.695 10.908-29.783l10.73-29.25 3.753-.083 3.753-.084 10.863 29.634c5.974 16.298 10.862 29.734 10.861 29.858 0 .124-2.148.225-4.772.225h-4.772l-.89-2.475a275.653 275.653 0 0 1-2.043-6l-1.154-3.525h-23.52l-.477 1.275c-.262.701-1.184 3.368-2.05 5.925l-1.573 4.65-4.897.082c-4.578.077-4.886.048-4.72-.45zm31.532-28.358c-4.215-12.324-5.545-16.194-5.748-16.725-.154-.402-1.413 3.028-7.626 20.775l-1.76 5.025h18.238zm10.873-21.221c-2.161-.652-3.824-2.872-3.824-5.104 0-3.392 3.61-6.132 6.724-5.104 2.388.788 3.762 2.653 3.762 5.104 0 .842-.197 1.912-.439 2.38-.608 1.175-2.066 2.338-3.395 2.707-1.278.355-1.697.357-2.828.017zm3.39-1.368c1.26-.652 2.07-2.114 2.07-3.736 0-1.621-.81-3.084-2.07-3.735-2.714-1.403-6.028.65-6.028 3.736 0 3.086 3.314 5.14 6.029 3.736zm-3.8-1.136c-.084-.22-.114-1.536-.066-2.925l.088-2.525 1.61.015c1.222.011 1.71.151 2.025.582.555.76.524 1.636-.082 2.305-.463.512-.459.62.062 1.587.307.57.47 1.127.36 1.236-.386.387-1.132-.17-1.63-1.216-.69-1.446-1.295-1.38-1.295.141 0 .878-.123 1.2-.46 1.2-.252 0-.528-.18-.612-.4zm2.722-3.649c0-.431-.231-.626-.825-.695-.715-.082-.825.01-.825.695 0 .685.11.778.825.695.594-.068.825-.263.825-.695zm61.576-50.616c-1.376-.854-1.866-1.526-2.308-3.167-1.14-4.238 3.448-7.709 7.662-5.795 1.913.869 2.67 2.168 2.67 4.581 0 3.233-1.55 4.814-4.884 4.979-1.695.084-2.194-.011-3.14-.598zm4.817-1.141c2.027-1.236 2.352-4.252.643-5.96-2.368-2.369-6.281-.642-6.285 2.771-.003 3.026 3.065 4.76 5.642 3.189zm-3.932-.482c-.116-.116-.21-1.403-.21-2.86v-2.65h1.67c2.243 0 2.83.35 2.83 1.688 0 .82-.142 1.104-.608 1.226l-.608.16.608 1.03c.78 1.323.766 1.66-.068 1.541-.42-.06-.902-.52-1.275-1.22-.33-.618-.693-1.124-.807-1.125-.113 0-.248.504-.3 1.122-.088 1.07-.705 1.615-1.232 1.088zm2.96-3.744c.24-.387-.384-.855-1.146-.862-.326-.003-.525.222-.525.595 0 .436.2.6.733.6.402 0 .825-.15.938-.333zM.001 210.149V181.2h17.024c10.234 0 18.102.13 19.725.323 11.58 1.38 17.796 6.278 20.497 16.153l.786 2.874.098 19.275.098 19.275H42.3l-.003-13.425c-.003-13.06-.252-18.784-.943-21.635-.93-3.832-3.164-6.682-6.188-7.89-1.619-.646-2.196-.69-10.191-.789l-8.475-.103v43.842H0v-28.95zm70.114.368c-5.068-15.72-9.215-28.75-9.215-28.955 0-.29 1.947-.354 8.766-.292l8.765.08 6.447 22.572c3.545 12.415 6.54 22.473 6.655 22.35.153-.163 8.327-27.431 13.354-44.548.142-.484.813-.525 8.566-.525 6.602 0 8.382.08 8.274.375-.075.207-4.308 13.234-9.407 28.95l-9.27 28.573H79.33l-9.215-28.582zm58.585-.372V181.19l8.175.08 8.175.08.077 28.874.076 28.875H128.7v-28.955zm26.174.098l.076-28.894 15.75.016c13.546.013 16.168.088 18.738.535 7.9 1.376 12.96 4.286 16.691 9.6 5.973 8.503 6.63 26.05 1.38 36.779-1.757 3.588-6.531 7.68-10.505 9.003-4.855 1.615-4.797 1.61-24.13 1.737l-18.077.118.077-28.894zm29.425 15.834c5.36-1.478 8.582-4.65 9.97-9.817.237-.886.51-2.96.606-4.61.414-7.16-2.139-13.049-6.745-15.556-2.791-1.519-5.53-1.995-11.478-1.995H171.3v32.78l5.625-.16c3.793-.108 6.195-.317 7.374-.642zm34.175-15.853l.076-28.875 8.175-.08 8.175-.08v57.91h-16.503l.077-28.875zm28.76 14.55c3.112-7.878 8.254-20.906 11.426-28.95l5.767-14.625h10.87c6.935 0 10.935.11 11.054.3.198.321 21.828 54.574 22.516 56.475l.407 1.125h-17.537l-1.665-5.025-1.665-5.025-13.517-.078-13.517-.078-1.761 5.102-1.762 5.102h-16.276l5.66-14.325zM284.7 218.7c0-.423-9.303-25.904-9.552-26.164-.167-.174-3.457 8.302-9.486 24.438l-.756 2.025h9.897c6.389 0 9.897-.106 9.897-.3z"/></svg>