<svg viewBox="0 0 600 120" xmlns="http://www.w3.org/2000/svg">
    <path d="M26.1 111.327c-2.3 1.3-5.2 2.65-8.7 4.05-3.5 1.4-7.15 2.1-10.95 2.1-2.3 0-3.95-.2-4.95-.6-1-.4-1.5-1.2-1.5-2.4 0-.6.15-1.325.45-2.175.3-.85.7-1.275 1.2-1.275.2 0 .45.15.75.45.6.8 1.5 1.25 2.7 1.35 1.2.1 2.5.15 3.9.15 2.1-.1 4-.825 5.7-2.175 1.7-1.35 2.95-3.175 3.75-5.475.4-1.4.8-3.6 1.2-6.6.4-3 .725-6.6.975-10.8.25-4.2.45-8.875.6-14.025.15-5.15.225-10.575.225-16.275 0-13-.35-23.125-1.05-30.375-.7-7.25-1.6-11.425-2.7-12.525-1.1-.9-2.475-1.5-4.125-1.8-1.65-.3-3.325-.45-5.025-.45-.8 0-1.6.025-2.4.075-.8.05-1.45.075-1.95.075-.6 0-1.075-.225-1.425-.675-.35-.45-.525-.925-.525-1.425 0-1.8.65-2.7 1.95-2.7.7 0 1.95.075 3.75.225 1.8.15 3.875.3 6.225.45 2.35.15 4.825.275 7.425.375 2.6.1 4.95.15 7.05.15 2.6 0 5.025-.4 7.275-1.2 2.25-.8 4.575-1.7 6.975-2.7 2.4-1 5.025-1.9 7.875-2.7 2.85-.8 6.175-1.2 9.975-1.2 9.8 0 18.225 1.4 25.275 4.2 7.05 2.8 12.825 6.575 17.325 11.325 4.5 4.75 7.825 10.2 9.975 16.35 2.15 6.15 3.225 12.525 3.225 19.125 0 7.8-1.375 15.6-4.125 23.4-2.75 7.8-6.675 14.825-11.775 21.075-5.1 6.25-11.275 11.3-18.525 15.15-7.25 3.85-15.325 5.775-24.225 5.775-1.9 0-4.275-.175-7.125-.525-2.85-.35-5.775-.825-8.775-1.425-3-.6-5.925-1.275-8.775-2.025-2.85-.75-5.225-1.525-7.125-2.325zm35.25.15c5.9 0 11.05-1.425 15.45-4.275 4.4-2.85 8.075-6.6 11.025-11.25 2.95-4.65 5.175-9.975 6.675-15.975s2.25-12.15 2.25-18.45c0-6.7-.825-13.325-2.475-19.875-1.65-6.55-4.175-12.4-7.575-17.55-3.4-5.15-7.625-9.3-12.675-12.45C68.975 8.502 63.1 6.927 56.4 6.927c-1.1 0-2.45.125-4.05.375-1.6.25-3.15.725-4.65 1.425-1.5.7-2.85 1.6-4.05 2.7-1.2 1.1-2 2.5-2.4 4.2-.3 1.3-.575 3.1-.825 5.4-.25 2.3-.5 4.975-.75 8.025-.25 3.05-.425 6.35-.525 9.9-.1 3.55-.15 7.225-.15 11.025 0 8.6.025 15.8.075 21.6.05 5.8.125 10.5.225 14.1.1 3.6.225 6.275.375 8.025s.275 2.925.375 3.525c.3 1.7 1.025 3.375 2.175 5.025 1.15 1.65 2.65 3.175 4.5 4.575 1.85 1.4 4 2.525 6.45 3.375 2.45.85 5.175 1.275 8.175 1.275zm112.35-20.4c-.3-1.7-.6-3.55-.9-5.55-.3-2-.6-3.9-.9-5.7-.3-1.8-.575-3.35-.825-4.65-.25-1.3-.425-2.15-.525-2.55-1.6.6-3.4 1.3-5.4 2.1-2 .8-4 1.675-6 2.625s-3.9 1.9-5.7 2.85c-1.8.95-3.3 1.825-4.5 2.625-2.3 1.5-4.05 3-5.25 4.5-1.2 1.5-1.8 3.3-1.8 5.4 0 2.9.85 5.45 2.55 7.65 1.7 2.2 4.35 3.3 7.95 3.3 1.9 0 3.875-.35 5.925-1.05 2.05-.7 3.95-1.5 5.7-2.4 1.75-.9 3.275-1.8 4.575-2.7 1.3-.9 2.2-1.6 2.7-2.1.8-.8 1.425-1.475 1.875-2.025.45-.55.625-1.325.525-2.325zm-4.35-23.25c-.6-3.1-1.3-5.875-2.1-8.325-.8-2.45-1.8-4.5-3-6.15-1.2-1.65-2.65-2.9-4.35-3.75-1.7-.85-3.8-1.275-6.3-1.275-2.2 0-4.225.4-6.075 1.2-1.85.8-3.45 1.75-4.8 2.85-1.35 1.1-2.4 2.2-3.15 3.3-.75 1.1-1.175 1.95-1.275 2.55-.1.8-.55 1.2-1.35 1.2-1.4 0-2.7-.5-3.9-1.5-1.2-1-1.8-2.2-1.8-3.6 0-.8.1-1.4.3-1.8 2.3-1.3 5.1-2.7 8.4-4.2 3.3-1.5 6.725-2.9 10.275-4.2a98.042 98.042 0 0 1 10.575-3.225c3.5-.85 6.65-1.275 9.45-1.275 4.2 0 7.425.6 9.675 1.8 2.25 1.2 3.925 2.9 5.025 5.1 1.1 2.2 1.775 4.775 2.025 7.725.25 2.95.475 6.125.675 9.525.3 5.1.7 10.025 1.2 14.775s1.25 8.95 2.25 12.6c1 3.65 2.275 6.6 3.825 8.85 1.55 2.25 3.475 3.375 5.775 3.375 1.1 0 2.3-.2 3.6-.6 1.3-.4 2.55-.875 3.75-1.425 1.2-.55 2.275-1.1 3.225-1.65.95-.55 1.575-.925 1.875-1.125.9 0 1.45.45 1.65 1.35 0 .5-.1.95-.3 1.35-.2.2-.95.7-2.25 1.5s-2.9 1.75-4.8 2.85-4 2.275-6.3 3.525-4.575 2.425-6.825 3.525-4.325 2-6.225 2.7c-1.9.7-3.4 1.05-4.5 1.05-1.3 0-2.425-.525-3.375-1.575-.95-1.05-1.775-2.45-2.475-4.2-.7-1.75-1.3-3.775-1.8-6.075-.5-2.3-.95-4.7-1.35-7.2-1.8 1.5-4.1 3.275-6.9 5.325-2.8 2.05-5.85 3.975-9.15 5.775a73.195 73.195 0 0 1-10.125 4.575c-3.45 1.25-6.775 1.875-9.975 1.875-2.7 0-5.05-.425-7.05-1.275-2-.85-3.675-1.975-5.025-3.375a13.283 13.283 0 0 1-3-4.875 17.295 17.295 0 0 1-.975-5.775c0-3.2.975-5.825 2.925-7.875 1.95-2.05 4.975-4.175 9.075-6.375 1.9-1 4.55-2.325 7.95-3.975 3.4-1.65 6.875-3.325 10.425-5.025 3.55-1.7 6.85-3.325 9.9-4.875 3.05-1.55 5.275-2.775 6.675-3.675z"/>
    <path d="M276.45 50.727c-1.1.9-2.4 2.025-3.9 3.375a72.517 72.517 0 0 1-4.725 3.9 37.004 37.004 0 0 1-5.025 3.225c-1.7.9-3.35 1.35-4.95 1.35-1.4 0-2.65-.325-3.75-.975-1.1-.65-2.125-1.35-3.075-2.1-.95-.75-1.875-1.45-2.775-2.1-.9-.65-1.85-.975-2.85-.975-2.7 0-4.975 1.1-6.825 3.3-1.85 2.2-3.35 5-4.5 8.4-1.15 3.4-2 7.1-2.55 11.1-.55 4-.825 7.85-.825 11.55 0 3.1.125 5.625.375 7.575.25 1.95.625 3.5 1.125 4.65.5 1.15 1.175 1.925 2.025 2.325.85.4 1.875.6 3.075.6 1.3 0 2.7-.2 4.2-.6.3-.1.525.1.675.6.15.5.225.9.225 1.2 0 .2-.15.425-.45.675-.3.25-.5.375-.6.375-2.2.9-4.45 1.875-6.75 2.925-2.3 1.05-4.2 1.925-5.7 2.625-1.4.6-3.075 1.25-5.025 1.95-1.95.7-3.625 1.05-5.025 1.05-1.6 0-2.925-.25-3.975-.75-1.05-.5-1.575-1-1.575-1.5s.125-.95.375-1.35c.25-.4.475-1.15.675-2.25.2-1.5.425-3.275.675-5.325.25-2.05.5-4.275.75-6.675.25-2.4.45-4.875.6-7.425.15-2.55.225-5.075.225-7.575 0-5.6-.175-10.35-.525-14.25-.35-3.9-.975-7.05-1.875-9.45-.9-2.4-2.125-4.125-3.675-5.175-1.55-1.05-3.525-1.575-5.925-1.575h-1.35c-.4 0-.8.05-1.2.15-.6 0-.9-.3-.9-.9 0-.6.3-1.05.9-1.35 1.1-.7 2.8-1.725 5.1-3.075s4.675-2.65 7.125-3.9 4.825-2.375 7.125-3.375 4-1.5 5.1-1.5c1.3 0 2.4.425 3.3 1.275.9.85 1.575 1.925 2.025 3.225.45 1.3.775 2.775.975 4.425.2 1.65.3 3.275.3 4.875 0 1.2-.025 2.45-.075 3.75-.05 1.3-.075 2.7-.075 4.2 4.5-6.6 8.55-11.725 12.15-15.375 3.6-3.65 7-5.475 10.2-5.475 1.2 0 2.375.5 3.525 1.5s2.375 2.125 3.675 3.375c1.3 1.25 2.65 2.375 4.05 3.375s2.85 1.5 4.35 1.5c1.3 0 2.25-.15 2.85-.45l1.5-.75c.8 0 1.2.55 1.2 1.65v.15z"/>
    <path d="M294.15 79.827c0 2.001-.05 4.501-.15 7.5-.1 3-.15 6.1-.15 9.3 0 3.6.55 6.175 1.65 7.725 1.1 1.55 2.55 2.325 4.35 2.325.1 0 .35-.05.75-.15.4-.1.825-.175 1.275-.225.45-.05.875-.125 1.275-.225.4-.1.65-.15.75-.15.2 0 .425.175.675.525.25.35.325.625.225.825-.6.7-1.975 1.55-4.125 2.55-2.15 1-4.55 1.975-7.2 2.925-2.65.95-5.2 1.775-7.65 2.475-2.45.7-4.275 1.05-5.475 1.05-1.4 0-2.5-.4-3.3-1.2-.8-.8-1.2-1.4-1.2-1.8 0-.3.025-.5.075-.6l.15-.3c.05-.1.125-.275.225-.525s.2-.675.3-1.275c.3-1.3.6-2.975.9-5.025.3-2.05.575-4.6.825-7.65.25-3.05.475-6.75.675-11.1.2-4.35.4-9.525.6-15.525.1-4.7.175-9.325.225-13.875.05-4.55.1-8.825.15-12.825.05-4 .075-7.675.075-11.025v-8.475c0-4.8-.25-8.55-.75-11.25-.5-2.7-1.05-4.45-1.65-5.25-.7-1-1.675-1.525-2.925-1.575-1.25-.05-2.125-.125-2.625-.225-.1-.9-.05-1.7.15-2.4.2-.6.5-1.15.9-1.65s1.15-.75 2.25-.75c1.8 0 3.9-.025 6.3-.075 2.4-.05 4.9-.15 7.5-.3 2.6-.15 5.15-.35 7.65-.6s4.7-.575 6.6-.975c.6-.1.925.075.975.525.05.45-.025 1.225-.225 2.325-.1.6-.375.975-.825 1.125-.45.15-.95.225-1.5.225s-1.05.025-1.5.075c-.45.05-.775.275-.975.675-.2.5-.45 1.15-.75 1.95s-.55 1.95-.75 3.45c-.3 2-.6 4.675-.9 8.025-.3 3.35-.575 7.075-.825 11.175-.25 4.1-.5 8.4-.75 12.9s-.475 8.85-.675 13.05c-.2 4.2-.35 8.1-.45 11.7-.1 3.6-.15 6.55-.15 8.85 2.9 0 6.025-.7 9.375-2.1 3.35-1.4 6.45-3.3 9.3-5.7a32.31 32.31 0 0 0 7.125-8.475c1.9-3.25 2.85-6.725 2.85-10.425 0-2.9-.95-4.35-2.85-4.35-1.6 0-3.05.225-4.35.675-1.3.45-2.2.675-2.7.675-1.5 0-2.35-.4-2.55-1.2 0-.6.25-1.275.75-2.025s1-1.225 1.5-1.425c2.1 0 4.475-.1 7.125-.3 2.65-.2 5.325-.475 8.025-.825s5.3-.725 7.8-1.125 4.6-.75 6.3-1.05c.5.2.75.5.75.9 0 .9-.825 2.85-2.475 5.85-1.65 3-3.85 6.3-6.6 9.9-2.75 3.6-5.875 7.1-9.375 10.5-3.5 3.4-7.1 5.95-10.8 7.65 1.1.7 2.55 2 4.35 3.9 1.8 1.9 3.775 4.1 5.925 6.6s4.425 5.1 6.825 7.8c2.4 2.7 4.85 5.175 7.35 7.425s4.925 4.1 7.275 5.55c2.35 1.45 4.575 2.175 6.675 2.175 1.5 0 2.675-.15 3.525-.45.85-.3 1.725-.7 2.625-1.2.304.183.516.384.635.603.088-.803.177-1.679.265-2.628.2-2.15.4-4.5.6-7.05.2-2.55.375-5.2.525-7.95.15-2.75.225-5.425.225-8.025 0-1.1-.025-2.475-.075-4.125-.05-1.65-.125-3.775-.225-6.375-.1-2.9-.425-5.375-.975-7.425s-1.25-3.7-2.1-4.95c-.85-1.25-1.8-2.175-2.85-2.775-1.05-.6-2.074-.9-3.075-.9h-1.5c-.5 0-1 .05-1.5.15-.4 0-.6-.45-.6-1.35 0-.2.075-.375.225-.525.15-.15.625-.475 1.425-.975 1.3-.9 3.05-2 5.25-3.3 2.2-1.3 4.45-2.5 6.75-3.6s4.475-2.05 6.525-2.85c2.05-.8 3.625-1.2 4.725-1.2 2.9 0 4.35 1.65 4.35 4.95 0 .5-.05 1.4-.15 2.7-.1 1.3-.175 2.625-.225 3.975a83.28 83.28 0 0 1-.225 3.825c-.1 1.2-.15 2-.15 2.4 2.1-2 4.35-4.05 6.75-6.15 2.4-2.1 5-4.025 7.8-5.775a45.12 45.12 0 0 1 8.85-4.275 28.5 28.5 0 0 1 9.6-1.65c6 0 10.925 1.725 14.775 5.175 3.85 3.45 5.775 8.925 5.775 16.425 0 2-.125 4.35-.375 7.05s-.525 5.5-.825 8.4c-.3 2.9-.575 5.75-.825 8.55-.25 2.8-.375 5.3-.375 7.5 0 8 2.6 12 7.8 12 1 0 2.125-.175 3.375-.525 1.25-.35 2.45-.75 3.6-1.2 1.15-.45 2.175-.9 3.075-1.35.9-.45 1.5-.825 1.8-1.125.1-.1.225-.025.375.225s.275.575.375.975c.1.4.125.75.075 1.05-.05.3-.125.5-.225.6-.8.5-2.525 1.45-5.175 2.85-2.65 1.4-5.6 2.825-8.85 4.275-3.25 1.45-6.475 2.75-9.675 3.9-3.2 1.15-5.75 1.725-7.65 1.725-2.3 0-3.875-.55-4.725-1.65-.85-1.1-1.275-2.25-1.275-3.45 0-.8.125-1.8.375-3s.575-3.15.975-5.85c.4-2.9.775-6.3 1.125-10.2.35-3.9.525-8.1.525-12.6 0-8.8-1.625-15.475-4.875-20.025-3.25-4.55-7.325-6.825-12.225-6.825-3.1 0-5.85.6-8.25 1.8-2.4 1.2-4.45 2.825-6.15 4.875-1.7 2.05-3.05 4.4-4.05 7.05-1 2.65-1.65 5.475-1.95 8.475-.1.9-.2 1.7-.3 2.4-.1.7-.175 1.5-.225 2.4-.05.9-.1 2.025-.15 3.375-.05 1.35-.075 3.125-.075 5.325 0 3.6.125 6.55.375 8.85s.625 4.125 1.125 5.475c.5 1.35 1.125 2.275 1.875 2.775s1.675.75 2.775.75c.7 0 1.45-.1 2.25-.3.2 0 .375.275.525.825.15.55.125.925-.075 1.125-.6.5-1.775 1.225-3.525 2.175-1.75.95-3.725 1.875-5.925 2.775-2.2.9-4.475 1.7-6.825 2.4-2.35.7-4.325 1.05-5.925 1.05-1.4 0-2.5-.175-3.3-.525-.8-.35-1.2-.775-1.2-1.275 0-.5.05-.8.15-.9.1-.1.25-.35.45-.75.2-.5.35-1.125.45-1.875.1-.75.25-1.625.45-2.625.045-.314.09-.648.134-1a4.323 4.323 0 0 1-.809 1.075c-.75.75-2.425 1.525-5.025 2.325-1.7.5-3.65 1.175-5.85 2.025-2.2.85-4.325 1.65-6.375 2.4s-3.85 1.375-5.4 1.875c-1.55.5-2.525.7-2.925.6-.8-.2-2.075-1.175-3.825-2.925-1.75-1.75-3.75-3.9-6-6.45-2.25-2.55-4.65-5.35-7.2-8.4-2.55-3.05-5.05-5.925-7.5-8.625s-4.725-5.1-6.825-7.2c-2.1-2.099-3.85-3.499-5.25-4.2h-1.2zm214.796-27.992a187.04 187.04 0 0 1 3.529-2.683l6.45-4.8c2.35-1.75 4.6-3.375 6.75-4.875 2.15-1.5 4-2.775 5.55-3.825 1.55-1.05 2.575-1.675 3.075-1.875.6-.2 1.2-.1 1.8.3.6.4.8.7.6.9-.3.2-.75.575-1.35 1.125-.6.55-.8 1.025-.6 1.425 1.1.9 3 1.7 5.7 2.4s5.75 1.275 9.15 1.725c3.4.45 6.9.8 10.5 1.05 3.6.25 6.85.375 9.75.375 4.3 0 7.75-.125 10.35-.375 2.6-.25 4.75-.575 6.45-.975 1.6-.4 2.65-.7 3.15-.9.1 0 .3.15.6.45.3.3.45.65.45 1.05 0 .2-.725.7-2.175 1.5-1.45.8-2.925 1.65-4.425 2.55-.9.5-1.975 1.15-3.225 1.95s-2.6 1.575-4.05 2.325a42.198 42.198 0 0 1-4.575 2.025c-1.6.6-3.15.95-4.65 1.05-1.5.2-3.25.35-5.25.45-2 .1-4.1.175-6.3.225l-6.675.15c-2.25.05-4.325.075-6.225.075-.3.5-.775 1.325-1.425 2.475-.65 1.15-1.275 2.625-1.875 4.425-.6 1.8-1.15 3.85-1.65 6.15-.5 2.3-.75 4.8-.75 7.5 0 4.1.625 7.875 1.875 11.325 1.25 3.45 3 6.425 5.25 8.925 2.25 2.5 4.925 4.45 8.025 5.85 3.1 1.4 6.45 2.1 10.05 2.1 2.1 0 4.125-.25 6.075-.75 1.95-.5 3.8-1.15 5.55-1.95s3.375-1.675 4.875-2.625 2.8-1.875 3.9-2.775l1.8-1.65c.2-.2.375-.175.525.075.15.25.25.6.3 1.05.05.45.025.925-.075 1.425s-.3.9-.6 1.2c-2 1.9-4.5 3.9-7.5 6s-6.1 4.05-9.3 5.85c-.9.5-2.15 1.15-3.75 1.95a60.49 60.49 0 0 1-5.325 2.325c-1.95.75-3.95 1.4-6 1.95s-3.975.825-5.775.825c-3.6 0-7-.7-10.2-2.1-3.2-1.4-6-3.325-8.4-5.775-2.4-2.45-4.275-5.375-5.625-8.775-1.35-3.4-2.025-7.1-2.025-11.1 0-4.3.6-8.35 1.8-12.15 1.2-3.8 2.575-7.2 4.125-10.2 1.55-3 3.025-5.525 4.425-7.575s2.35-3.575 2.85-4.575c-1.9-.1-3.625-.175-5.175-.225-1.55-.05-3.025-.075-4.425-.075-3.2 0-5.9.025-8.1.075a36.31 36.31 0 0 0-2.268.121c-1.581.966-3.775 2.151-6.582 3.554-3 1.5-6.325 3.075-9.975 4.725-3.65 1.65-7.425 3.3-11.325 4.95-3.9 1.65-7.575 3.225-11.025 4.725a738.6 738.6 0 0 0-9 3.975c-2.55 1.15-4.275 1.975-5.175 2.475 0 3.4.675 6.575 2.025 9.525a23.832 23.832 0 0 0 5.625 7.725c2.4 2.2 5.275 3.925 8.625 5.175 3.35 1.25 7.025 1.875 11.025 1.875 3.6 0 6.85-.375 9.75-1.125 2.9-.75 5.35-1.6 7.35-2.55 2-.95 3.575-1.8 4.725-2.55 1.15-.75 1.775-1.125 1.875-1.125.4 0 .8.175 1.2.525.4.35.6.725.6 1.125-1.1 1.2-2.8 2.85-5.1 4.95s-5.075 4.2-8.325 6.3c-3.25 2.1-6.875 3.9-10.875 5.4-4 1.5-8.25 2.25-12.75 2.25-4.1 0-8.1-.625-12-1.875-3.9-1.25-7.4-3.15-10.5-5.7-3.1-2.55-5.575-5.8-7.425-9.75-1.85-3.95-2.775-8.675-2.775-14.175 0-4.5.3-8.375.9-11.625.6-3.25 1.4-6.1 2.4-8.55 1-2.45 2.125-4.55 3.375-6.3a47.555 47.555 0 0 1 3.825-4.725c1.6-1.8 3.55-3.5 5.85-5.1 2.3-1.6 4.775-3.05 7.425-4.35a43.16 43.16 0 0 1 8.4-3.075 36.088 36.088 0 0 1 8.925-1.125c5.4 0 9.625.9 12.675 2.7 3.05 1.8 4.575 4.3 4.575 7.5 0 2-.6 3.85-1.8 5.55 1-.3 2.275-.8 3.825-1.5a358.9 358.9 0 0 0 4.121-1.892zM461.4 73.977c1.7-.6 3.625-1.325 5.775-2.175 2.15-.85 4.25-1.775 6.3-2.775s3.925-1.95 5.625-2.85c1.7-.9 3-1.7 3.9-2.4 1.8-1.3 2.7-3.5 2.7-6.6 0-1.2-.225-2.45-.675-3.75A10.799 10.799 0 0 0 483 49.902c-.9-1.05-2-1.9-3.3-2.55-1.3-.65-2.75-.975-4.35-.975-1.4 0-2.9.475-4.5 1.425-1.6.95-3.1 2.5-4.5 4.65-1.4 2.15-2.575 5-3.525 8.55-.95 3.55-1.425 7.875-1.425 12.975z"/>
</svg>
