<svg viewBox="0 0 744 277" xmlns="http://www.w3.org/2000/svg" fill-rule="evenodd" clip-rule="evenodd" stroke-linejoin="round" stroke-miterlimit="1.414"><path d="M157.56 10.444c.149.012 5.649.551 6.06 1.569l17.198 54.526 93.258-26.273 4.728 3.97 8.743 119.713c.881.8.344-1.151 0 0l32.275 80.661c.704 2.321-1.386 4.681-3.917 3.902l-93.689-38.344-34.239 55.748s-.58 1.122-2.024 1.382c-1.097.198-1.92.149-3.057-1.332l-29.359-45.742-68.357 11.069-5.716 3.354s-1.726.748-3.005.018c-.676-.385-1.127-1.021-1.323-1.745l-.626.101c-3.169.248-5.178-4.876-.959-5.922l5.357-.868 34.903-41.748-53.283-28.307a3.161 3.161 0 0 1-1.057-4.359l21.994-31.707-11.69-15.717-1.729-.942c-14.21-7.744-28.462-15.481-42.704-23.219l-7.317-3.975-.118-.02c-1.668-.375-.597-5.985-.076-6.081l96.63-54.489s4.732-5.088 6.486-5.223h36.613zm57.564 199.806l-55.129 8.928 25.37 39.526 29.759-48.454zm68.484-39.103l-54.959 35.171 82.94 33.945-27.981-69.116zM99.49 222.898l50.513-8.18-10.004-15.586-40.509 23.766zm-8.162-2.168l43.107-25.291-15.208-8.08-27.899 33.371zm65.133-7.058l44.701-7.239-54.248-7.635 9.547 14.874zm-12.19-21.305l67.7 9.528-51.007-53.535-16.693 44.007zm80.366 9.395l55.505-35.521-43.845-51.056-11.66 86.577zm-52.85-77.271l-8.463 17.648 52.391 54.987-24.301-77.046-19.627 4.411zm25.502-5.731l22.756 72.147 10.399-77.213 2.117-2.86-35.272 7.926zm-64.19 52.007l3.912 13.979 2.472 3.327 16.891-44.53-.275-.288-23 27.512zm-9.939 11.888l7.973 4.235-5.421-7.288-2.552 3.053zm-56.835-30.193l51.419 27.316 4.286-5.126-36.787-49.462-18.918 27.272zm22.527-32.474l37.135 49.93.482-.576-20.656-73.806-16.961 24.452zm42.285 43.771l20.797-24.876-39.304-41.251 18.507 66.127zM273.095 48.44l-79.516 58.558 1.899 6.02 37.527-8.433c1.7-.263 1.833-.146 2.933.972l45.169 52.599-8.012-109.716zm-117.288 85.81l8.57-11.804-41.667-22.933 33.097 34.737zm-1.389-54.04l16.01 35.42c.973.513 3.729 2.179 3.729 2.179-.544-.568 12.41-13.098 12.41-13.098l-9.721-30.819-22.428 6.318zm26.565 36.065l8.62-1.937-1.129-3.58-7.491 5.517zm-62.504-25.94l45.169 24.861-15.071-33.34-30.098 8.479zm-42.394 12.487l8.988 12.086L99.4 94.255l-23.315 8.567zm106.539-30.558l9.048 28.687 68.695-50.589-77.743 21.902zM36.177 79.29a43085.49 43085.49 0 0 1 32.116 17.463l2.232 1.216c2.105-3.962 4.213-7.923 6.322-11.883l-40.67-6.796zm46.913 7.839c-1.485 2.787-2.97 5.575-4.453 8.363l17.037-6.261-12.584-2.102zm39.201-63.428l-12.866 61.651 1.562.86 35.091-9.886-23.787-52.625zm-6.648 2.482c-9.868 18.46-19.74 36.91-29.577 55.36l17.418 2.91 12.159-58.27zM27.274 71.719l52.55 8.781c9.431-17.688 18.896-35.37 28.34-53.048l1.029-1.926-81.919 46.193zm131.381-55.503c-.342.127-33.06.228-33.06.228l26.324 58.237 23.121-6.514-16.385-51.951z" fill="#3b3b3b" fill-rule="nonzero"/><circle cx="276.456" cy="41.867" r="18.212" fill="#3b3b3b" transform="translate(-1 1)"/><circle cx="169.898" cy="119.306" r="25.045" fill="#3b3b3b" transform="translate(-1 1)"/><circle cx="71.339" cy="101.913" r="11.042" fill="#3b3b3b"/><circle cx="60.408" cy="158.008" r="14.502" fill="#3b3b3b"/><circle cx="141.22" cy="194.507" r="15.577" fill="#3b3b3b" transform="translate(3.755 6.28) scale(.97011)"/><circle cx="75.976" cy="233.101" r="14.21" fill="#3b3b3b" transform="translate(0 -1)"/><circle cx="183.972" cy="264.381" r="12.394" fill="#3b3b3b"/><circle cx="220.249" cy="205.397" r="19.084" fill="#3b3b3b"/><circle cx="286.479" cy="167.209" r="14.835" fill="#3b3b3b"/><circle cx="234.558" cy="110.315" r="19.38" fill="#3b3b3b"/><circle cx="316.861" cy="246.399" r="11.279" fill="#3b3b3b"/><circle cx="158.512" cy="14.397" r="13.331" fill="#3b3b3b" transform="matrix(.92858 0 0 .92858 10.37 .076)"/><circle cx="121.18" cy="14.687" r="15.349" fill="#3b3b3b" transform="matrix(.9848 0 0 .9848 1.61 .99)"/><circle cx="19.17" cy="73.471" r="18.852" fill="#3b3b3b"/><circle cx="105.301" cy="90.246" r="18.458" fill="#3b3b3b" transform="translate(1.479 -2.292)"/><path fill="#3b3b3b" fill-rule="nonzero" d="M346.369 73.9h45.734c10.314 0 18.175.784 23.586 2.354 7.27 2.132 13.497 5.918 18.682 11.358 5.185 5.441 9.13 12.103 11.836 19.984 2.705 7.88 4.057 17.599 4.057 29.153 0 10.152-1.268 18.903-3.804 26.25-3.1 8.975-7.524 16.24-13.272 21.792-4.34 4.207-10.201 7.488-17.583 9.845-5.524 1.738-12.907 2.608-22.15 2.608H346.37V73.9zm25.022 20.865v81.696h18.683c6.989 0 12.032-.392 15.132-1.177 4.058-1.01 7.425-2.72 10.103-5.132 2.676-2.413 4.86-6.38 6.551-11.906 1.69-5.524 2.536-13.055 2.536-22.59 0-9.536-.845-16.856-2.536-21.961-1.692-5.104-4.058-9.086-7.102-11.947-3.043-2.861-6.903-4.796-11.58-5.806-3.496-.785-10.343-1.177-20.543-1.177h-11.244zM470.948 197.244V74.908h25.022V176.46h62.219v20.783h-87.241zM617.884 197.244v-24.821h-50.722v-20.697l53.765-78.332h19.951v78.247h15.386v20.782h-15.386v24.821h-22.994zm0-45.603V109.49l-28.488 42.152h28.488zM718.245 73.9h24.94v78.079c0 10.208-.902 18.06-2.706 23.557-2.424 7.18-6.82 12.943-13.188 17.29-6.368 4.348-14.765 6.52-25.192 6.52-12.23 0-21.641-3.406-28.236-10.22-6.593-6.817-9.919-16.815-9.975-29.996l23.587-2.693c.281 7.067 1.323 12.06 3.127 14.977 2.705 4.431 6.82 6.646 12.343 6.646 5.578 0 9.524-1.584 11.835-4.753 2.31-3.17 3.465-9.746 3.465-19.731V73.899z"/></svg>