<svg clip-rule="evenodd" fill-rule="evenodd" stroke-miterlimit="1.5" viewBox="0 0 228 33" xmlns="http://www.w3.org/2000/svg"><g fill-rule="nonzero"><path d="m6.554 32.514h-4.054l-.5-.5.017-31.551h5.035l.002 31.551z" fill="#484848"/><path d="m19.66 32.514h-4.293l-.499-.535 2.198-31.516h5.934l5.417 15.356c.926 2.754 1.793 5.536 2.57 8.342l.145.53c.852-2.984 1.851-5.941 2.883-8.879l5.65-15.349h5.932l1.965 31.519-.499.532h-4.436c-.44-8.139-.994-16.274-1.223-24.431l-.007-.25c-.154.491-.311.982-.468 1.472-.828 2.56-1.691 5.105-2.611 7.631l-5.601 15.393h-3.748l-5.185-15.128c-.979-2.955-1.917-5.921-2.741-8.919l-.022-.079c-.128 3.504-.299 7.015-.502 10.526z" fill="#484848"/><path d="m114.867 30.977c-2.215.838-3.539 1.143-5.265 1.44-5.913 1.016-12.497.438-16.904-3.949-7.173-7.141-5.38-21.343 3.858-26.234 5.122-2.711 11.796-3.01 16.968-.681l.528.25-1.142 3.684-.688.306c-.617-.286-.659-.292-.945-.399-1.869-.697-3.886-.909-5.881-.89-4.025.039-8.223 1.735-10.293 5.485-1.237 2.24-1.62 4.854-1.499 7.384.165 3.447 1.477 7.024 4.409 9.113 2.68 1.909 6.179 2.301 9.591 1.896.955-.114 2.301-.517 2.301-.517v-8.435h-6.265v-4.225h10.727l.5.5z" fill="#484848"/><path d="m139.824 32.514h-17.506l-.5-.5v-31.051l.5-.5h16.815c.167.166.334.333.5.5v3.363l-.5.5h-12.261v8.813h11.524l.5.5v3.317l-.5.5h-11.524v10.194h12.952l.5.5v3.364z" fill="#484848"/><path d="m150.724 32.514h-3.778l-.5-.5v-31.051l.5-.5h4.699c3.351 5.315 6.702 10.63 10.053 15.945 1.623 2.624 3.197 5.283 4.565 8.048-.241-3.501-.279-7.002-.283-10.501v-12.992l.5-.5h3.777l.5.5v31.051l-.5.5h-4.331c-5.042-8.059-10.518-15.833-14.871-24.477.156 3.566.167 7.138.169 10.708v13.269z" fill="#9e9e9e"/><path d="m197.636 32.514h-17.506l-.5-.5v-31.051l.5-.5h16.815c.167.166.333.333.5.5v3.363l-.5.5h-12.261v8.813h11.524l.5.5v3.317l-.5.5h-11.524v10.194h12.952l.5.5v3.364z" fill="#9e9e9e"/><path d="m215.446 32.514h-4.054l-.5-.5v-27.142h-8.945l-.5-.5v-3.409l.5-.5h22.989c.167.166.333.333.5.5v3.409l-.5.5h-8.99v27.142z" fill="#9e9e9e"/></g><path d="m115.579 31.147-9.422-18.836-9.912 19.234" fill="none" stroke="#909090" stroke-width="2" transform="translate(-36.393801 -4.16667)"/><path d="m111.87 8.744c0-1.594-1.294-2.888-2.888-2.888h-5.776c-1.594 0-2.888 1.294-2.888 2.888v5.776c0 1.594 1.294 2.888 2.888 2.888h5.776c1.594 0 2.888-1.294 2.888-2.888z" fill="#2bba00" transform="translate(-36.575352 -4.16667)"/><path d="m111.87 8.744c0-1.594-1.294-2.888-2.888-2.888h-5.776c-1.594 0-2.888 1.294-2.888 2.888v5.776c0 1.594 1.294 2.888 2.888 2.888h5.776c1.594 0 2.888-1.294 2.888-2.888z" fill="#c60d00" transform="translate(-27.39136 14.59203)"/><path d="m111.87 8.744c0-1.594-1.294-2.888-2.888-2.888h-5.776c-1.594 0-2.888 1.294-2.888 2.888v5.776c0 1.594 1.294 2.888 2.888 2.888h5.776c1.594 0 2.888-1.294 2.888-2.888z" fill="#fc8000" transform="translate(-45.75934 14.59203)"/></svg>