<svg height="389.67" width="461.17" xmlns="http://www.w3.org/2000/svg" xmlns:xlink="http://www.w3.org/1999/xlink"><clipPath id="a"><path d="m0 0h461v389.5h-461z"/></clipPath><g fill="none" stroke-linecap="round" stroke-linejoin="round" stroke-width="10.72"><path d="m188.02 194.83h85.12m-85.12 1.28-87.21 86.22m-.01-174.83 87.22 87.33" stroke="#00bbf1"/><path d="m103.53 109.57-61.29-.48m61.93-61.74-.16 61.74m.16 173.08.96 61.26m-63.05-60.46 61.77-1.28" stroke="#80ddf8"/><g stroke="#e25a1c"><path d="m103.53 46.55-22.56-22.72m45.76 0-22.88 22.72"/><path clip-path="url(#a)" d="m125.93 24.47.16-16"/><path d="m142.25 24.63h-16.15m-45.13 0-16 .16"/><path clip-path="url(#a)" d="m80.65 8.48.32 16"/><path d="m46.72 109.41-22.72 22.56m0-45.59 22.72 22.87"/><path clip-path="url(#a)" d="m24.64 86.86-16-.16"/><path d="m24.8 70.54-.16 16.16m.16 45.27.16 16"/><path clip-path="url(#a)" d="m8.64 132.13 16-.32"/><path d="m44.16 282.33-22.72 22.55m0-45.58 22.72 22.87"/><path clip-path="url(#a)" d="m22.08 259.77-16-.16"/><path d="m22.24 243.46v16.15m0 45.27.32 16"/><path clip-path="url(#a)" d="m6.08 305.04 16.16-.32"/><path d="m105.93 345.35 22.56 22.72m-45.76 0 22.88-22.72"/><path clip-path="url(#a)" d="m83.2 367.27v16"/><path d="m67.05 367.1 16.16.17m45.12-.17 16-.15"/><path clip-path="url(#a)" d="m128.5 383.42-.17-16.15"/></g><path d="m272.98 193.55 87.21-86.22m.01 174.67-87.22-87.33" stroke="#00bbf1"/><path d="m357.31 279.93 61.29.48m-61.93 61.59.32-61.6m-.32-173.07-.96-61.26m63.05 60.46-61.6 1.12" stroke="#80ddf8"/><path d="m357.47 342.95 22.56 22.72m-45.6 0 22.88-22.72" stroke="#e25a1c"/><path clip-path="url(#a)" d="m334.9 365.03-.15 16" stroke="#e25a1c"/><path d="m318.59 364.87h16.16m45.28-.17 16-.15" stroke="#e25a1c"/><path clip-path="url(#a)" d="m380.2 381.02-.33-16.15" stroke="#e25a1c"/><path d="m414.28 280.09 22.72-22.56m0 45.75-22.72-22.87" stroke="#e25a1c"/><path clip-path="url(#a)" d="m436.2 302.64 16 .16" stroke="#e25a1c"/><path d="m436.04 318.8.16-16.16m-.16-45.11-.16-16" stroke="#e25a1c"/><path clip-path="url(#a)" d="m452.36 257.37-16.16.32" stroke="#e25a1c"/><path d="m416.84 107.17 22.72-22.55m0 45.75-22.72-22.88" stroke="#e25a1c"/><path clip-path="url(#a)" d="m438.76 129.73 16 .16" stroke="#e25a1c"/><path d="m438.6 145.88v-16.15m0-45.11-.16-16" stroke="#e25a1c"/><path clip-path="url(#a)" d="m454.76 84.46-16 .32" stroke="#e25a1c"/><path d="m355.23 44.15-22.56-22.72m45.6 0-22.87 22.72" stroke="#e25a1c"/><path clip-path="url(#a)" d="m377.63 22.07.16-16" stroke="#e25a1c"/><path d="m393.8 22.23h-16m-45.3 0-16 .32" stroke="#e25a1c"/><path clip-path="url(#a)" d="m332.35 6.08.32 16.15" stroke="#e25a1c"/></g></svg>