<svg height="456.833" width="490.167" xmlns="http://www.w3.org/2000/svg" xmlns:xlink="http://www.w3.org/1999/xlink"><clipPath id="a"><path d="m0 0h490v456.667h-490z"/></clipPath><g fill="none" stroke-linecap="round" stroke-linejoin="round"><path d="m44.327 47.843h99.857m-99.857 48.323h81.774m-83.854 45.922h91.375m-91.375 47.043h108.338m-106.258 46.243 250.601 1.12" stroke="#80ddf8" stroke-width="8.001"/><path d="m42.247 281.296h285.006m-285.006 47.044h292.208" stroke="#e25a1c" stroke-width="8.001"/><path d="m42.247 372.182h294.288m-294.288 47.042h292.208" stroke="#80ddf8" stroke-width="8.001"/><path clip-path="url(#a)" d="m4.64 4.64h355.42v447.386h-355.42z" stroke="#80ddf8" stroke-width="8.001"/><path clip-path="url(#a)" d="m315.892 192.971-4.321 2.72-4.32 2.56-4.482 2.24-4.32 2.08-4.641 1.76-4.64 1.601-4.642 1.28-4.64 1.12-4.641.8-4.8.64-4.642.48h-9.441l-4.8-.32-4.642-.48-4.64-.8-4.641-.96-4.641-1.12-4.48-1.44-4.481-1.6-4.321-1.76-4.32-2.08-4.162-2.24-4.16-2.56-3.84-2.72-4.001-2.88-3.681-3.041-3.52-3.2-3.521-3.52-3.36-3.68-3.041-4.001-3.04-4-2.721-4.32-2.56-4.32-2.241-4.321-2.08-4.48-1.76-4.64-1.6-4.48-1.281-4.641-1.12-4.64-.8-4.8-.64-4.64-.48-4.801-.16-4.8.16-4.64.32-4.801.48-4.64.8-4.64.96-4.64 1.12-4.481 1.44-4.64 1.6-4.32 1.76-4.48 2.081-4.161 2.24-4.32 2.56-4 2.561-4 2.88-3.841 3.201-3.84 3.2-3.52 3.521-3.52 3.681-3.2 4-3.201 4.001-3.04 4.321-2.72 4.32-2.56 4.321-2.24 4.481-2.08 4.64-1.76 4.482-1.6 4.64-1.281 4.641-1.12 4.801-.8 4.64-.64 4.802-.32 4.8-.16h4.641l4.8.32 4.642.48 4.64.8 4.641.96 4.48 1.12 4.642 1.44 4.32 1.6 4.481 1.92 4.16 1.92 4.321 2.4 4.001 2.4 4 2.72 3.841 2.881 3.841 3.04 3.52 3.36 3.521 3.36 3.2 3.84 3.201 3.841 3.04 4.16 2.721 4.16 2.56 4.32 2.24 4.481 2.081 4.48 1.76 4.48 1.6 4.64 1.281 4.641 1.12 4.64.8 4.64.64 4.8.32 4.641.16 4.8v4.64l-.32 4.801-.48 4.64-.8 4.64-.96 4.64-1.12 4.641-1.44 4.48-1.6 4.48-1.92 4.32-1.921 4.321-2.4 4.16-2.401 4.16-2.72 3.84-2.88 4.001-3.041 3.68-3.361 3.52-3.36 3.52-3.841 3.36-3.84 3.041z" stroke="#00bbf1" stroke-width="13.282"/></g><path d="m424.71 402.423-113.78-186.73 38.567-26.562 134.103 172.81z" fill="#e25a1c" fill-rule="evenodd"/><path clip-path="url(#a)" d="m482.159 359.701 1.12 1.76.96 1.6.8 1.76.8 1.76.8 1.6.64 1.92.48 1.76.48 1.76.48 1.76.16 1.761.32 1.92v1.76l.16 1.76-.16 1.92-.16 1.76-.16 1.76-.32 1.76-.32 1.6-.48 1.761-.64 1.6-.64 1.76-.64 1.6-.8 1.6-.8 1.44-.96 1.44-1.12 1.44-1.12 1.44-1.12 1.28-1.28 1.28-1.281 1.28-1.44 1.121-1.44 1.12-1.6.96-1.601.96-1.6.8-1.6.8-1.6.48-1.761.64-1.76.48-1.6.32-1.761.32-1.76.16h-5.281l-1.76-.16-1.76-.32-1.761-.32-1.76-.48-1.6-.48-1.76-.64-1.601-.64-1.76-.64-1.6-.96-1.6-.8-1.441-1.12-1.6-.96-1.44-1.12-1.44-1.28-1.441-1.28-1.28-1.44-1.28-1.44-1.28-1.44-1.12-1.6 29.444-20.322z" fill="#e25a1c" fill-rule="evenodd"/><path d="m307.25 179.37-3.68 2.24-3.681 2.24-3.68 1.92-3.681 1.6-3.84 1.601-3.841 1.28-4.001 1.12-3.84.96-4.001.64-4.001.48-4 .32-4.001.16h-4.001l-4-.32-3.841-.32-4.001-.64-3.84-.8-3.841-1.12-3.84-1.12-3.681-1.44-3.681-1.44-3.68-1.76-3.521-1.92-3.36-2.08-3.361-2.24-3.36-2.4-3.041-2.56-3.04-2.881-3.041-2.88-2.72-3.2-2.721-3.2-2.4-3.52-2.401-3.521-2.08-3.68-1.92-3.68-1.761-3.84-1.44-3.68-1.28-4.001-1.12-3.84-.96-4-.8-3.84-.481-4.001-.32-4-.16-4 .16-4 .16-4 .48-3.841.64-4 .8-3.84.96-3.84 1.28-3.841 1.28-3.68 1.601-3.68 1.76-3.68 1.76-3.52 2.081-3.521 2.24-3.36 2.56-3.2 2.561-3.2 2.72-3.04 3.041-2.881 3.04-2.72 3.361-2.72 3.36-2.4 3.681-2.4 3.521-2.08 3.84-1.92 3.681-1.761 3.84-1.44 3.841-1.44 4.001-1.12 3.84-.8 4.001-.8 4.001-.48 4-.32 4.001-.16h3.841l4 .32 4.001.48 4 .64 3.842.8 3.84.96 3.84 1.12 3.681 1.44 3.681 1.6 3.68 1.6 3.521 1.92 3.36 2.08 3.361 2.24 3.36 2.56 3.041 2.56 3.04 2.721 2.881 3.04 2.88 3.04 2.561 3.2 2.56 3.52 2.401 3.521 2.08 3.68 1.92 3.68 1.76 3.84 1.441 3.84 1.28 3.841 1.12 3.84.96 4 .64 4 .64 4.001.321 3.84v8l-.16 4-.48 4.001-.64 3.84-.8 4-.96 3.84-1.28 3.681-1.28 3.84-1.601 3.68-1.76 3.52-1.92 3.52-2.081 3.521-2.24 3.36-2.4 3.2-2.561 3.2-2.88 3.04-2.881 2.881-3.04 2.88-3.361 2.56-3.36 2.56z" fill="#7fdcf7" fill-rule="evenodd"/><path d="m192.031 158.09 136.343-93.926m-21.124 115.206-94.095-136.327m128.501 83.044-162.907-29.921m66.411 96.485 30.085-162.89" fill="none" stroke="#fff" stroke-linecap="round" stroke-linejoin="round" stroke-width="8.001"/></svg>