<svg xmlns="http://www.w3.org/2000/svg" viewBox="-31 0 819 165"><defs stroke-miterlimit="100000" stroke-linejoin="round"><clipPath id="a"><path d="M54 73.26a33.662 33.662 0 0 0 23.801-57.461A33.662 33.662 0 0 0 20.34 39.6 33.662 33.662 0 0 0 54 73.26z"/></clipPath></defs><path d="M102.806 127.09q-.07.936-.685 1.685-.61.655-1.955 1.123-1.345.468-3.606.655-2.267.281-5.73.281-3.556 0-5.781-.28-2.232-.188-3.601-.656-1.276-.468-1.789-1.123-.412-.749-.343-1.685l3.682-49.507q.314-4.211-.271-7.674-.491-3.463-1.994-5.896-1.404-2.527-3.833-3.837-2.329-1.404-5.792-1.404-4.21 0-8.76 3.276-4.548 3.275-10.068 9.545l-4.128 55.497q-.07.936-.686 1.685-.61.655-2.05 1.123-1.344.468-3.604.655-2.267.281-5.636.281-3.463 0-5.69-.28-2.23-.188-3.6-.656-1.275-.468-1.788-1.123-.505-.749-.436-1.685l3.682-49.507q.314-4.211-.272-7.674-.49-3.463-1.901-5.896-1.403-2.527-3.832-3.837-2.423-1.404-5.792-1.404-4.305 0-8.853 3.276-4.549 3.275-9.975 9.545L-6.41 127.09q-.07.936-.687 1.685-.61.655-2.048 1.123-1.345.468-3.605.655-2.267.281-5.73.281-3.463 0-5.688-.28-2.232-.188-3.601-.656-1.276-.468-1.788-1.123-.506-.749-.437-1.685l6.209-83.479q.07-.936.586-1.591.524-.749 1.776-1.217 1.25-.468 3.136-.655 1.986-.28 4.887-.28 2.995 0 4.94.28 1.951.187 2.946.655 1.088.468 1.5 1.217.42.655.35 1.591l-.717 9.64q7.483-7.487 14.592-11.231 7.205-3.743 14.692-3.743 5.147 0 9.181 1.123 4.041 1.03 7.07 3.088 3.13 1.965 5.26 4.773 2.132 2.808 3.464 6.27 4.043-4.024 7.815-6.925 3.866-2.901 7.461-4.68 3.695-1.871 7.221-2.714 3.626-.935 7.276-.935 8.33 0 13.829 2.807 5.5 2.808 8.601 7.674 3.201 4.773 4.218 11.23 1.018 6.458.482 13.664l-3.975 53.438zm94.41.281q-.098 1.31-1.09 2.06-.991.748-3.071 1.029-1.993.374-5.924.374-4.21 0-6.148-.374-1.851-.281-2.638-1.03-.694-.749-.596-2.059l.494-6.644q-5.557 5.521-12.432 8.61-6.78 3.088-14.83 3.088-6.643 0-12.127-1.778-5.396-1.685-9.263-5.054-3.767-3.463-5.637-8.516-1.87-5.054-1.369-11.792.543-7.3 3.747-12.634 3.304-5.429 9.178-8.891 5.972-3.557 14.52-5.241 8.549-1.685 19.686-1.685h8.142l.376-5.053q.292-3.931-.334-6.832-.526-2.995-2.251-4.96-1.633-1.966-4.651-2.901-2.926-.936-7.418-.936-5.896 0-10.673 1.31-4.683 1.31-8.358 2.901-3.674 1.591-6.206 2.901-2.436 1.31-3.933 1.31-1.03 0-1.823-.655-.7-.655-1.171-1.871-.378-1.217-.527-2.995-.147-1.778.013-3.93.216-2.902.808-4.587.593-1.684 2-2.994 1.415-1.404 4.81-2.995 3.4-1.685 7.903-3.088 4.503-1.404 9.713-2.247 5.31-.935 10.833-.935 9.826 0 16.605 1.965 6.88 1.872 11.072 5.896 4.2 3.93 5.793 10.2 1.593 6.271.953 14.881l-4.176 56.152zm-20.458-35.75h-8.984q-5.71 0-9.795.842-4.088.843-6.74 2.527-2.652 1.685-4.05 4.118-1.297 2.34-1.526 5.428-.39 5.24 2.663 8.236 3.147 2.994 9.043 2.994 4.96 0 9.266-2.526 4.398-2.527 9.065-7.394l1.058-14.225zm92.217 27.234q-.306 4.118-1.035 6.364-.628 2.152-1.54 3.088-.905.842-2.645 1.591-1.639.655-3.92 1.123-2.195.562-4.836.842-2.547.281-5.168.281-7.02 0-12.034-1.778t-8.113-5.428q-3.091-3.743-4.264-9.359-1.173-5.615-.602-13.289l3.18-42.77h-10.013q-1.78 0-2.555-2.152-.768-2.246-.385-7.393.201-2.714.528-4.586.419-1.872.963-2.901.552-1.123 1.243-1.591.782-.468 1.718-.468h9.92l1.386-18.624q.07-.936.593-1.684.617-.749 1.962-1.217 1.446-.561 3.706-.749 2.36-.28 5.73-.28 3.462 0 5.687.28 2.326.188 3.594.75 1.275.467 1.782 1.216.506.748.437 1.684l-1.386 18.625h18.155q.936 0 1.557.468.715.468 1.098 1.591.392 1.03.44 2.901.14 1.872-.062 4.586-.382 5.147-1.484 7.393-1.096 2.153-2.874 2.153h-18.25l-2.917 39.213q-.508 6.832 1.388 10.294 1.902 3.37 7.423 3.37 1.872 0 3.391-.281 1.525-.375 2.676-.75 1.25-.467 2.02-.748.87-.374 1.525-.374.562 0 1.002.374.54.281.745 1.31.211.936.273 2.62.155 1.685-.04 4.306zm103.843-34.721q-.828 11.137-3.93 20.121-3 8.891-8.053 15.161t-12.134 9.64q-7.082 3.369-15.88 3.369-3.65 0-6.683-.749-2.945-.655-5.742-2.059-2.696-1.497-5.344-3.65-2.647-2.152-5.426-5.053l-2.923 39.306q-.07.936-.688 1.685-.616.749-2.055 1.216-1.352.562-3.619.843-2.267.28-5.73.28-3.463 0-5.688-.28-2.225-.281-3.587-.843-1.275-.467-1.782-1.216-.505-.749-.435-1.685l8.672-116.609q.07-.936.586-1.591.524-.749 1.68-1.217 1.252-.468 3.14-.655 1.985-.28 4.886-.28 2.807 0 4.658.28 1.951.187 3.04.655 1.182.468 1.594 1.217.42.655.35 1.591l-.731 9.827q3.928-3.744 7.6-6.551 3.772-2.902 7.561-4.773 3.796-1.966 7.703-2.902 4-.935 8.399-.935 9.17 0 15.357 3.65 6.193 3.556 9.751 9.826 3.651 6.27 4.905 14.6 1.25 8.329.547 17.781zm-24.645 1.685q.397-5.335-.084-10.201-.38-4.96-2.06-8.797-1.586-3.837-4.6-6.084-2.915-2.34-7.595-2.34-2.34 0-4.735.75-2.294.655-4.847 2.246-2.457 1.59-5.172 4.117t-5.8 6.27l-2.046 27.515q4.493 6.27 8.728 9.733 4.241 3.37 9.108 3.37 4.586 0 7.941-2.34 3.45-2.34 5.788-6.083 2.344-3.838 3.635-8.61 1.385-4.773 1.74-9.546zm63.938 41.271q-.07.936-.686 1.685-.61.655-2.05 1.123-1.344.468-3.604.655-2.267.281-5.73.281-3.462 0-5.687-.28-2.233-.188-3.601-.656-1.276-.468-1.789-1.123-.506-.749-.437-1.685L397.68 4.024q.07-.936.687-1.685.617-.748 1.963-1.216 1.444-.562 3.712-.843 2.267-.28 5.73-.28 3.462 0 5.688.28 2.224.281 3.493.843 1.369.468 1.875 1.216.506.749.436 1.685L412.11 127.09zm111.167-42.582q-.793 10.67-4.255 19.467-3.463 8.797-9.644 15.16-6.183 6.365-15.05 9.827-8.868 3.463-20.378 3.463-11.137 0-19.144-3.088-8.006-3.089-12.995-8.985-4.99-5.896-6.97-14.506t-1.158-19.653q.793-10.669 4.255-19.466 3.562-8.89 9.737-15.161 6.183-6.364 14.956-9.827 8.868-3.462 20.38-3.462 11.23 0 19.236 3.088 8.012 2.995 12.909 8.89 4.99 5.897 6.969 14.507t1.151 19.746zm-24.31.936q.46-6.176-.186-11.324-.546-5.24-2.6-9.078-2.055-3.837-5.825-5.99-3.677-2.152-9.573-2.152-5.24 0-9.318 1.966-4.069 1.871-6.875 5.615-2.799 3.65-4.498 8.89-1.6 5.148-2.093 11.793-.46 6.176.18 11.417.647 5.147 2.607 8.985 2.055 3.837 5.825 5.99 3.777 2.058 9.58 2.058 5.334 0 9.404-1.872 4.076-1.965 6.875-5.615 2.798-3.65 4.398-8.797 1.607-5.241 2.1-11.886zm89.7 33.411q-.306 4.118-1.035 6.364-.628 2.152-1.54 3.088-.905.842-2.645 1.591-1.639.655-3.92 1.123-2.196.562-4.836.842-2.548.281-5.168.281-7.02 0-12.035-1.778t-8.112-5.428q-3.092-3.743-4.264-9.359-1.174-5.615-.603-13.289l3.18-42.77h-10.013q-1.778 0-2.554-2.152-.77-2.246-.386-7.393.201-2.714.528-4.586.42-1.872.965-2.901.55-1.123 1.24-1.591.784-.468 1.72-.468h9.92l1.386-18.624q.07-.936.593-1.684.616-.749 1.962-1.217 1.445-.561 3.706-.749 2.36-.28 5.729-.28 3.463 0 5.689.28 2.325.188 3.593.75 1.275.467 1.782 1.216.505.748.436 1.684L572.6 40.43h18.156q.936 0 1.557.468.714.468 1.098 1.591.392 1.03.44 2.901.14 1.872-.062 4.586-.382 5.147-1.484 7.393-1.096 2.153-2.874 2.153h-18.25l-2.917 39.213q-.508 6.832 1.388 10.294 1.901 3.37 7.423 3.37 1.872 0 3.39-.281 1.525-.375 2.676-.75 1.251-.467 2.021-.748.87-.374 1.525-.374.562 0 1.002.374.54.281.745 1.31.21.936.273 2.62.155 1.685-.04 4.306zm40.19 8.235q-.07.936-.686 1.685-.61.655-2.048 1.123-1.345.468-3.606.655-2.267.281-5.729.281-3.463 0-5.69-.28-2.23-.188-3.6-.656-1.276-.468-1.787-1.123-.506-.749-.437-1.685l9.153-123.066q.07-.936.686-1.685.618-.748 1.963-1.216 1.445-.562 3.712-.843 2.267-.28 5.73-.28 3.462 0 5.687.28 2.225.281 3.495.843 1.368.468 1.874 1.216.506.749.436 1.685l-9.153 123.066zm47.168 0q-.07.936-.686 1.685-.61.655-2.05 1.123-1.344.468-3.604.655-2.267.281-5.73.281-3.462 0-5.687-.28-2.233-.188-3.601-.656-1.276-.468-1.789-1.123-.506-.749-.437-1.685l6.195-83.292q.07-.936.68-1.59.617-.75 1.963-1.217 1.444-.562 3.712-.843 2.267-.28 5.73-.28 3.462 0 5.688.28 2.224.281 3.493.843 1.369.468 1.875 1.216.513.655.443 1.591l-6.195 83.292zm10.089-111.742q-.53 7.112-3.631 9.826-3.104 2.714-10.965 2.714-7.955 0-10.568-2.62-2.52-2.62-2.011-9.452.529-7.113 3.539-9.827 3.11-2.808 11.065-2.808 7.86 0 10.467 2.715 2.612 2.62 2.104 9.452zm100.725 68.88q-.83 11.137-3.923 20.027-3.094 8.891-8.148 15.161-5.051 6.27-12.04 9.64-6.895 3.369-15.411 3.369-4.212 0-7.799-.842-3.594-.749-6.832-2.527-3.142-1.778-6.216-4.492-2.98-2.714-6.064-6.551l-.676 9.078q-.076 1.029-.693 1.778-.517.655-1.768 1.123-1.158.468-3.137.655t-4.787.187q-2.9 0-4.853-.187-1.857-.187-3.04-.655-1.088-.468-1.506-1.123-.413-.749-.337-1.778l9.153-123.067q.07-.936.687-1.685.617-.748 1.962-1.216 1.445-.562 3.712-.843 2.267-.28 5.731-.28 3.462 0 5.687.28 2.225.281 3.494.843 1.369.468 1.875 1.216.506.749.436 1.685l-3.431 46.138q3.418-3.182 6.767-5.428t6.636-3.65q3.293-1.497 6.71-2.152 3.419-.655 7.163-.655 9.265 0 15.443 3.743 6.187 3.65 9.744 9.92 3.652 6.27 4.898 14.693 1.251 8.33.562 17.595zm-24.552 1.684q.397-5.334-.077-10.294-.38-4.96-2.06-8.797-1.68-3.837-4.695-6.084-2.914-2.34-7.686-2.34-2.34 0-4.636.656-2.294.655-4.846 2.246-2.458 1.59-5.172 4.118-2.715 2.527-5.801 6.27l-2.06 27.702q4.486 6.364 8.728 9.733 4.342 3.275 9.302 3.275 4.586 0 7.942-2.34 3.356-2.339 5.693-6.082 2.431-3.744 3.723-8.517 1.29-4.773 1.645-9.546z" stroke-miterlimit="100000" fill="#11557c" stroke-linejoin="round"/><g stroke-miterlimit="100000" transform="translate(-37.673 -24.503) scale(.94805)" stroke-linejoin="round"><circle cx="546.024" cy="114.291" r="74.596" fill="#fff" stroke="#fff" stroke-width="4.8"/><path d="M545.509 184.602a70.803 70.803 0 0 0 50.061-120.86 70.803 70.803 0 0 0-120.86 50.061 70.803 70.803 0 0 0 70.799 70.799z" opacity=".05" fill="#fff"/><path clip-path="url(#a)" d="M54 39.6h33.66M54 39.6l23.801-23.801M54 39.6V5.94m0 33.66L30.199 15.799M54 39.6H20.34m33.66 0L30.199 63.401M54 39.6v33.66m0-33.66l23.801 23.801" opacity=".9" fill="none" transform="translate(431.928 30.511) scale(2.10335)" stroke="#858585" stroke-width=".204" stroke-dasharray=".20408517,40817035"/><g fill="none" stroke="#818181" stroke-width=".204" stroke-dasharray=".20408517,40817035"><path clip-path="url(#a)" d="M57.74 39.6l-.111-.905-.327-.85-.523-.748-.688-.598-.812-.413-.888-.206-.912.016-.88.236-.797.442-.667.622-.496.764-.297.862-.08.909.143.9.356.839.549.728.708.574.826.385.895.174.91-.048.872-.266.782-.47.644-.644.47-.782.266-.872.057-.649" opacity=".9" transform="translate(431.928 30.511) scale(2.10335)"/><path clip-path="url(#a)" d="M65.22 39.6l-.11-1.562-.325-1.53-.535-1.472-.735-1.382-.92-1.266-1.087-1.126-1.234-.964-1.355-.782-1.452-.587-1.519-.379-1.556-.163-1.565.054-1.541.272-1.49.484-1.406.686-1.298.876-1.163 1.047-1.006 1.199-.83 1.328-.636 1.43-.432 1.504-.218 1.55v1.566l.218 1.55.432 1.504.636 1.43.83 1.328 1.006 1.2 1.163 1.046 1.298.876 1.407.686 1.489.484 1.541.272 1.565.054 1.556-.163 1.52-.38 1.45-.586 1.356-.782 1.234-.964 1.087-1.126.92-1.266.735-1.382.535-1.471.326-1.531.109-1.562" opacity=".9" transform="translate(431.928 30.511) scale(2.10335)"/><path clip-path="url(#a)" d="M72.7 39.6l-.102-1.955-.307-1.933-.506-1.89-.702-1.828-.888-1.744-1.066-1.642-1.232-1.52-1.384-1.385-1.521-1.232-1.642-1.066-1.744-.888-1.827-.702-1.891-.506-1.933-.307L54 20.9l-1.955.102-1.933.307-1.89.506-1.828.702-1.744.888-1.642 1.066-1.52 1.232-1.385 1.384-1.232 1.521-1.066 1.642-.888 1.744-.702 1.827-.506 1.891-.307 1.933L35.3 39.6l.102 1.955.307 1.933.506 1.89.702 1.828.888 1.744 1.066 1.642 1.232 1.52 1.384 1.385 1.521 1.232 1.642 1.066 1.744.888 1.827.702 1.891.506 1.933.307L54 58.3l1.955-.102 1.933-.307 1.89-.506 1.828-.702 1.744-.888 1.642-1.066 1.52-1.232 1.385-1.384 1.232-1.521 1.066-1.642.888-1.744.702-1.827.506-1.891.307-1.933.102-1.955" opacity=".9" transform="translate(431.928 30.511) scale(2.10335)"/><path clip-path="url(#a)" d="M80.18 39.6l-.143-2.737-.43-2.706-.708-2.647-.982-2.558-1.244-2.442-1.493-2.298-1.724-2.13-1.938-1.938-2.13-1.724-2.298-1.493-2.442-1.244-2.558-.982-2.647-.709-2.706-.429L54 13.42l-2.737.143-2.706.43-2.647.708-2.558.982-2.442 1.244-2.298 1.493-2.13 1.724-1.938 1.938-1.724 2.13-1.493 2.298-1.244 2.442-.982 2.558-.709 2.647-.429 2.706-.143 2.737.143 2.737.43 2.706.708 2.647.982 2.558 1.244 2.442 1.493 2.298 1.724 2.13 1.938 1.938 2.13 1.724 2.298 1.493 2.442 1.244 2.558.982 2.647.709 2.706.429L54 65.78l2.737-.143 2.706-.43 2.647-.708 2.558-.982 2.442-1.244 2.298-1.493 2.13-1.724 1.938-1.938 1.724-2.13 1.493-2.298 1.244-2.442.982-2.558.709-2.647.429-2.706.143-2.737" opacity=".9" transform="translate(431.928 30.511) scale(2.10335)"/></g><g opacity=".938"><path clip-path="url(#a)" d="M54 39.6l.071-.023.071-.023.071-.023.072-.023.07-.024.072-.023.071-.023.071-.023.071-.023.071-.023.072-.023.07-.023.072-.023.071-.024.071-.023.071-.023.071-.023.072-.023.07-.023.072-.023.07-.023.072-.023.071-.024.071-.023.071-.023.072-.023.07-.023.072-.023.071-.023.071-.023.071-.023.071-.024.072-.023.07-.023.072-.023.071-.023.071-.023.071-.023.071-.023.072-.023.07-.024.072-.023.071-.023.071-.023.071-.023.071-.023.072-.023.07-.023.072-.023.071-.024.071-.023.071-.023.071-.023.072-.023.07-.023.072-.023.071-.023.071-.023.071-.024.071-.023.072-.023.07-.023.072-.023.071-.023.071-.023.071-.023.071-.024.072-.023.07-.023.072-.023.07-.023.072-.023.071-.023.071-.023.071-.023.072-.024.07-.023.072-.023.071-.023.071-.023.071-.023.071-.023.072-.023.07-.023.072-.024.071-.023.071-.023.071-.023.071-.023.072-.023.07-.023.072-.023.071-.023.071-.024.071-.023.071-.023.072-.023.07-.023.072-.023.071-.023.007.022.007.023.007.022.007.022.007.023.007.022.007.023.007.022.006.023.007.022.007.023.006.023.006.022.007.023.006.023.006.022.006.023.006.023.006.022.006.023.006.023.006.023.005.022.006.023.005.023.006.023.005.023.006.023.005.023.005.023.005.023.005.022.005.023.005.023.005.023.004.023.005.023.005.024.004.023.005.023.004.023.004.023.004.023.005.023.004.023.004.023.004.024.003.023.004.023.004.023.004.023.003.024.004.023.003.023.003.023.004.024.003.023.003.023.003.023.003.024.003.023.003.023.003.024.002.023.003.023.002.024.003.023.002.024.003.023.002.023.002.024.002.023.002.024.002.023.002.023.002.024.001.023.002.024.002.023.001.024.002.023.001.024.001.023.002.023v.024l.002.023v.024l.002.023v.024l.001.023.001.024v.023l.001.024v.023l.001.024v.07l.001.024v.023h-7.405z" opacity=".6" fill="#004cff" transform="translate(431.928 30.511) scale(2.10335)" stroke="#000" stroke-width=".456"/></g><g opacity=".938"><path clip-path="url(#a)" d="M54 39.6l.079-.21.079-.21.079-.21.078-.21.08-.21.078-.21.079-.21.079-.21.079-.21.079-.21.078-.211.08-.21.078-.21.079-.21.079-.21.079-.21.078-.21.08-.21.078-.21.079-.21.079-.21.079-.211.079-.21.078-.21.08-.21.078-.21.079-.21.079-.21.079-.21.079-.21.078-.21.08-.21.078-.211.079-.21.079-.21.079-.21.078-.21.08-.21.078-.21.079-.21.079-.21.079-.21.079-.21.078-.211.08-.21.078-.21.079-.21.079-.21.079-.21.079-.21.078-.21.08-.21.078-.21.079-.21.079-.211.079-.21.078-.21.08-.21.078-.21.079-.21.079-.21.079-.21.079-.21.078-.21.08-.21.078-.211.079-.21.079-.21.079-.21.079-.21.078-.21.08-.21.078-.21.079-.21.079-.21.079-.21.078-.211.08-.21.078-.21.079-.21.079-.21.079-.21.079-.21.078-.21.08-.21.078-.21.079-.21.079-.211.079-.21.079-.21.078-.21.08-.21.078-.21.079-.21.079-.21.079-.21.078-.21.08-.21.078-.211.079-.21.066.025.066.025.066.025.065.026.066.025.066.026.065.026.065.027.066.026.065.027.065.027.065.027.065.027.065.028.065.028.065.028.064.028.065.028.064.029.065.028.064.03.064.029.064.029.064.03.064.03.064.03.064.03.063.03.064.03.063.031.063.031.064.031.063.032.063.031.063.032.063.032.062.032.063.032.063.033.062.033.062.033.063.033.062.033.062.034.062.033.061.034.062.034.062.035.061.034.061.035.062.035.06.035.062.035.06.036.062.035.06.036.061.036.06.036.06.037.061.036.06.037.06.037.06.037.06.038.06.037.06.038.059.038.059.038.059.038.06.039.058.039.059.038.059.04.058.039.059.039.058.04.058.04.058.04.058.04.058.04.058.04.057.041.058.04.057.042.057.041.057.041.057.042.057.042.057.042.056.042.057.042.056.043.056.042.056.043.056.043.056.043.055.044.056.043.055.044.055.044-.14.175-.14.176-.14.175-.14.175-.14.176-.14.175-.14.176-.139.175-.14.176-.14.175-.14.176-.14.175-.14.175-.14.176-.14.175-.14.176-.14.175-.14.176-.14.175-.139.176-.14.175-.14.175-.14.176-.14.175-.14.176-.14.175-.14.176-.14.175-.14.176-.14.175-.139.175-.14.176-.14.175-.14.176-.14.175-.14.176-.14.175-.14.176-.14.175-.14.175-.14.176-.139.175-.14.176-.14.175-.14.176-.14.175-.14.176-.14.175-.14.175-.14.176-.14.175-.14.176-.139.175-.14.176-.14.175-.14.175-.14.176-.14.175-.14.176-.14.175-.14.176-.14.175-.14.176-.14.175-.139.175-.14.176-.14.175-.14.176-.14.175-.14.176-.14.175-.14.176-.14.175-.14.175-.14.176-.139.175-.14.176-.14.175-.14.176-.14.175-.14.176-.14.175-.14.175-.14.176-.14.175-.14.176-.139.175-.14.176-.14.175-.14.176-.14.175-.14.175-.14.176-.14.175-.14.176-.14.175-.14.176-.139.175-.14.176z" opacity=".6" fill="#ceff29" transform="translate(431.928 30.511) scale(2.10335)" stroke="#000" stroke-width=".456"/></g><g opacity=".938"><path clip-path="url(#a)" d="M54 39.6l-.192-.23-.191-.23-.192-.229-.192-.23-.192-.23-.191-.23-.192-.229-.192-.23-.192-.23-.191-.229-.192-.23-.192-.23-.192-.229-.191-.23-.192-.23-.192-.229-.192-.23-.192-.23-.191-.229-.192-.23-.192-.23-.191-.229-.192-.23-.192-.23-.192-.229-.192-.23-.191-.23-.192-.229-.192-.23-.191-.23-.192-.23-.192-.229-.192-.23-.191-.23-.192-.229-.192-.23-.192-.23-.191-.229-.192-.23-.192-.23-.192-.229-.191-.23-.192-.23-.192-.229-.192-.23-.191-.23-.192-.229-.192-.23-.192-.23-.191-.229-.192-.23-.192-.23-.192-.229-.191-.23-.192-.23-.192-.229-.192-.23-.191-.23-.192-.23-.192-.229-.192-.23-.191-.23-.192-.229-.192-.23-.192-.23-.191-.229-.192-.23-.192-.23-.192-.229-.191-.23-.192-.23-.192-.229-.192-.23-.191-.23-.192-.229-.192-.23-.192-.23-.191-.229-.192-.23-.192-.23-.192-.229-.191-.23-.192-.23-.192-.23-.192-.229-.191-.23-.192-.23-.192-.229-.192-.23-.191-.23-.192-.229-.192-.23-.192-.23-.191-.229-.192-.23-.192-.23-.192-.229-.191-.23-.192-.23-.192-.229.108-.09.11-.09.109-.089.11-.088.11-.088.11-.088.11-.087.112-.086.112-.086.112-.086.113-.085.113-.084.113-.084.114-.083.114-.083.115-.082.115-.082.115-.08.116-.081.116-.08.116-.08.117-.079.117-.078.118-.078.118-.078.118-.076.118-.076.12-.076.119-.075.12-.075.12-.073.12-.074.12-.073.122-.072.121-.072.122-.07.122-.071.123-.07.122-.07.123-.068.124-.068.124-.068.124-.067.124-.066.125-.066.125-.066.125-.064.125-.064.126-.064.127-.063.126-.062.127-.062.127-.06.127-.061.128-.06.128-.06.128-.058.128-.058.13-.058.128-.057.13-.056.129-.056.13-.055.13-.054.13-.054.13-.053.132-.053.13-.052.132-.051.132-.05.131-.05.132-.05.133-.05.132-.047.133-.048.133-.047.133-.046.133-.046.134-.045.134-.045.134-.044.134-.043.134-.042.135-.042.135-.042.135-.04.135-.04.135-.04.136-.039.135-.038.136-.037.136-.037.137-.036.136-.036.137-.035.137-.034.136-.034.138-.033.137-.032.137-.032.067.292.066.292.067.291.066.292.067.292.067.291.066.292.067.292.066.291.067.292.067.292.066.292.067.291.066.292.067.292.066.291.067.292.067.292.066.291.067.292.066.292.067.292.067.291.066.292.067.292.066.291.067.292.066.292.067.291.067.292.066.292.067.292.066.291.067.292.066.292.067.291.067.292.066.292.067.291.066.292.067.292.067.292.066.291.067.292.066.292.067.291.066.292.067.292.067.291.066.292.067.292.066.291.067.292.066.292.067.292.067.291.066.292.067.292.066.291.067.292.067.292.066.291.067.292.066.292.067.292.066.291.067.292.067.292.066.291.067.292.066.292.067.291.067.292.066.292.067.292.066.291.067.292.066.292.067.291.067.292.066.292.067.291.066.292.067.292.066.292.067.291.067.292.066.292.067.291.066.292.067.292.067.291.066.292.067.292.066.292.067.291.066.292.067.292.067.291z" opacity=".6" fill="#ff6800" transform="translate(431.928 30.511) scale(2.10335)" stroke="#000" stroke-width=".456"/></g><g opacity=".938"><path clip-path="url(#a)" d="M54 39.6l-.258.047-.257.047-.258.046-.257.047-.258.047-.258.047-.257.046-.258.047-.257.047-.258.047-.258.046-.257.047-.258.047-.257.047-.258.046-.257.047-.258.047-.258.047-.257.046-.258.047-.257.047-.258.047-.258.046-.257.047-.258.047-.257.047-.258.046-.258.047-.257.047-.258.047-.257.046-.258.047-.258.047-.257.047-.258.046-.257.047-.258.047-.258.047-.257.046-.258.047-.257.047-.258.047-.257.046-.258.047-.258.047-.257.047-.258.046-.257.047-.258.047-.258.047-.257.046-.258.047-.257.047-.258.047-.258.046-.257.047-.258.047-.257.047-.258.046-.258.047-.257.047-.258.047-.257.046-.258.047-.258.047-.257.047-.258.046-.257.047-.258.047-.257.047-.258.046-.258.047-.257.047-.258.047-.257.046-.258.047-.258.047-.257.047-.258.046-.257.047-.258.047-.258.047-.257.046-.258.047-.257.047-.258.047-.258.046-.257.047-.258.047-.257.047-.258.046-.258.047-.257.047-.258.047-.257.046-.258.047-.257.047-.258.047-.258.046-.257.047-.03-.162-.027-.162-.027-.162-.026-.163-.024-.162-.024-.163-.023-.163-.022-.163-.02-.163-.02-.164-.019-.163-.017-.164-.017-.163-.015-.164-.015-.164-.013-.164-.013-.164-.011-.164-.01-.164-.01-.164-.008-.165-.008-.164-.006-.164-.005-.165-.004-.164-.004-.165-.002-.164v-.494l.002-.164.003-.165.004-.164.005-.164.006-.165.008-.164.008-.164.01-.165.01-.164.01-.164.013-.164.013-.164.015-.164.015-.164.016-.163.018-.164.018-.163.02-.164.02-.163.022-.163.023-.163.023-.163.025-.162.026-.163.026-.162.028-.162.029-.162.03-.162.03-.161.032-.162.033-.161.034-.161.034-.16.036-.161.037-.16.038-.16.039-.16.04-.16.04-.16.042-.159.043-.158.044-.159.045-.158.045-.158.047-.158.048-.157.049-.157.05-.157.05-.157.052-.156.053-.156.054-.155.054-.155.056-.155.056-.155.058-.154.059-.153.06-.154.06-.153.061-.152.062-.152.064-.152.064-.152.065-.15.067-.151.067-.15.068-.15.069-.15.07-.148.07-.149.237.114.236.113.235.114.236.114.236.113.236.114.236.113.236.114.236.114.236.113.235.114.236.113.236.114.236.114.236.113.236.114.236.113.236.114.235.114.236.113.236.114.236.113.236.114.236.113.236.114.235.114.236.113.236.114.236.113.236.114.236.114.236.113.236.114.235.113.236.114.236.114.236.113.236.114.236.113.236.114.236.114.235.113.236.114.236.113.236.114.236.113.236.114.236.114.236.113.235.114.236.113.236.114.236.114.236.113.236.114.236.113.236.114.235.114.236.113.236.114.236.113.236.114.236.114.236.113.236.114.235.113.236.114.236.113.236.114.236.114.236.113.236.114.236.113.235.114.236.114.236.113.236.114.236.113.236.114.236.114.236.113.235.114.236.113.236.114.236.114.236.113.236.114.236.113.236.114.235.113.236.114.236.114.236.113.236.114.236.113.236.114.236.114.235.113.236.114z" opacity=".6" fill="#ffc400" transform="translate(431.928 30.511) scale(2.10335)" stroke="#000" stroke-width=".456"/></g><path clip-path="url(#a)" d="M54 39.6l-.123.085-.123.085-.123.086-.123.085-.123.085-.123.085-.123.085-.123.086-.123.085-.123.085-.123.085-.123.085-.123.085-.123.086-.123.085-.123.085-.123.085-.122.085-.123.086-.123.085-.123.085-.123.085-.123.085-.123.086-.123.085-.123.085-.123.085-.123.085-.123.086-.123.085-.123.085-.123.085-.123.085-.123.086-.123.085-.123.085-.123.085-.123.085-.123.085-.123.086-.123.085-.123.085-.123.085-.123.085-.123.086-.123.085-.123.085-.123.085-.123.085-.123.086-.123.085-.123.085-.122.085-.123.085-.123.086-.123.085-.123.085-.123.085-.123.085-.123.085-.123.086-.123.085-.123.085-.123.085-.123.085-.123.086-.123.085-.123.085-.123.085-.123.085-.123.086-.123.085-.123.085-.123.085-.123.085-.123.086-.123.085-.123.085-.123.085-.123.085-.123.086-.123.085-.123.085-.123.085-.123.085-.123.085-.123.086-.122.085-.123.085-.123.085-.123.085-.123.086-.123.085-.123.085-.123.085-.123.085-.123.086-.123.085-.123.085-.123.085-.014-.02-.013-.019-.013-.019-.013-.02-.014-.019-.013-.02-.013-.019-.013-.02-.013-.019-.013-.02-.014-.019-.013-.02-.013-.019-.013-.02-.012-.019-.013-.02-.013-.02-.013-.019-.013-.02-.013-.02-.012-.02-.013-.019-.013-.02-.013-.02-.012-.02-.013-.02-.012-.019-.013-.02-.012-.02-.013-.02-.012-.02-.013-.02-.012-.02-.012-.02-.013-.02-.012-.02-.012-.02-.012-.02-.013-.02-.012-.02-.012-.02-.012-.02-.012-.02-.012-.02-.012-.02-.012-.02-.012-.021-.012-.02-.012-.02-.012-.021-.011-.02-.012-.02-.012-.021-.012-.02-.011-.02-.012-.021-.012-.02-.011-.021-.012-.02-.011-.021-.012-.02-.011-.021-.012-.02-.011-.021-.011-.02-.012-.021-.011-.02-.011-.021-.012-.021-.01-.02-.012-.021-.011-.021-.011-.02-.011-.022-.011-.02-.011-.021-.011-.02-.011-.022-.011-.02-.011-.021-.01-.021-.012-.021-.01-.02-.011-.022-.01-.02-.011-.022-.011-.02-.01-.022-.011-.02-.01-.022-.011-.02-.01-.022-.011-.02-.01-.022-.011-.02-.01-.022-.01-.021-.011-.021-.01-.021-.01-.021.134-.065.135-.065.135-.065.135-.065.134-.065.135-.065.135-.065.135-.065.135-.065.134-.065.135-.064.135-.065.135-.065.135-.065.134-.065.135-.065.135-.065.135-.065.134-.065.135-.065.135-.065.135-.064.135-.065.134-.065.135-.065.135-.065.135-.065.135-.065.134-.065.135-.065.135-.065.135-.065.134-.065.135-.064.135-.065.135-.065.135-.065.134-.065.135-.065.135-.065.135-.065.134-.065.135-.065.135-.065.135-.064.135-.065.134-.065.135-.065.135-.065.135-.065.135-.065.134-.065.135-.065.135-.065.135-.065.134-.064.135-.065.135-.065.135-.065.135-.065.134-.065.135-.065.135-.065.135-.065.135-.065.134-.065.135-.064.135-.065.135-.065.134-.065.135-.065.135-.065.135-.065.135-.065.134-.065.135-.065.135-.065.135-.064.135-.065.134-.065.135-.065.135-.065.135-.065.134-.065.135-.065.135-.065.135-.065.135-.065.134-.064.135-.065.135-.065.135-.065.135-.065.134-.065.135-.065.135-.065.135-.065.134-.065.135-.065z" opacity=".6" fill="#29ffce" transform="translate(431.928 30.511) scale(2.10335)" stroke="#000" stroke-width=".456"/><g opacity=".938"><path clip-path="url(#a)" d="M54 39.6l.031.184.032.185.031.184.031.184.032.185.03.184.032.185.032.184.03.184.032.185.032.184.03.184.032.185.031.184.032.184.031.185.031.184.032.184.031.185.031.184.032.185.031.184.031.184.032.185.031.184.031.184.032.185.031.184.031.184.032.185.03.184.032.184.032.185.03.184.032.185.032.184.03.184.032.185.031.184.032.184.031.185.031.184.032.184.031.185.031.184.032.184.031.185.031.184.032.185.031.184.031.184.032.185.031.184.031.184.032.185.03.184.032.184.032.185.03.184.032.184.032.185.03.184.032.185.031.184.032.184.031.185.031.184.032.184.031.185.031.184.032.184.031.185.031.184.032.184.031.185.031.184.032.185.031.184.031.184.032.185.03.184.032.184.032.185.03.184.032.184.032.185.03.184.032.184.031.185.032.184.031.185.031.184.032.184.031.185.031.184.032.184.031.185.031.184.032.184.031.185-.072.012-.073.012-.072.011-.073.012-.073.01-.072.011-.073.01-.073.011-.072.01-.073.01-.073.009-.073.009-.073.009-.073.008-.073.008-.073.008-.073.008-.073.007-.073.007-.073.007-.073.006-.073.006-.074.006-.073.006-.073.005-.073.005-.074.005-.073.004-.073.004-.074.004-.073.004-.073.003-.074.003-.073.003-.073.002-.074.002-.073.002-.074.001-.073.002h-.074l-.073.001h-.367l-.074-.002h-.073l-.073-.002-.074-.002-.073-.003-.074-.002-.073-.003-.073-.003-.074-.003-.073-.004-.073-.004-.074-.004-.073-.005-.073-.004-.074-.005-.073-.006-.073-.006-.073-.005-.073-.007-.073-.006-.074-.007-.073-.007-.073-.007-.073-.008-.073-.008-.073-.008-.073-.009-.073-.009-.072-.009-.073-.01-.073-.009-.073-.01-.073-.01-.072-.01-.073-.011-.072-.012-.073-.011-.073-.012-.072-.012-.072-.012-.073-.012-.072-.013-.072-.013-.073-.014-.072-.013-.072-.014-.072-.014-.072-.015-.072-.015-.072-.015-.071-.015-.072-.016-.072-.016-.071-.016.041-.182.042-.183.041-.182.042-.182.042-.183.041-.182.042-.182.041-.182.042-.183.042-.182.041-.182.042-.183.041-.182.042-.182.042-.183.041-.182.042-.182.042-.183.041-.182.042-.182.041-.182.042-.183.042-.182.041-.182.042-.183.041-.182.042-.182.042-.183.041-.182.042-.182.041-.183.042-.182.042-.182.041-.183.042-.182.041-.182.042-.182.042-.183.041-.182.042-.182.042-.183.041-.182.042-.182.041-.183.042-.182.042-.182.041-.183.042-.182.041-.182.042-.183.042-.182.041-.182.042-.182.041-.183.042-.182.042-.182.041-.183.042-.182.042-.182.041-.183.042-.182.041-.182.042-.183.042-.182.041-.182.042-.183.041-.182.042-.182.042-.182.041-.183.042-.182.041-.182.042-.183.042-.182.041-.182.042-.183.041-.182.042-.182.042-.183.041-.182.042-.182.042-.182.041-.183.042-.182.041-.182.042-.183.042-.182.041-.182.042-.183.041-.182.042-.182.042-.183.041-.182.042-.182.041-.183.042-.182.042-.182.041-.182.042-.183z" opacity=".6" fill="#7dff7a" transform="translate(431.928 30.511) scale(2.10335)" stroke="#000" stroke-width=".456"/></g><g opacity=".938"><path clip-path="url(#a)" d="M54 39.6l.236.184.236.184.236.184.236.184.236.184.236.183.236.184.236.184.236.184.236.184.236.184.236.184.236.184.236.184.236.184.236.184.236.184.236.183.236.184.236.184.236.184.236.184.236.184.236.184.236.184.236.184.236.184.236.184.236.183.236.184.236.184.236.184.236.184.236.184.236.184.236.184.236.184.236.184.236.184.236.183.236.184.236.184.236.184.236.184.236.184.236.184.236.184.236.184.236.184.236.184.236.184.236.183.236.184.236.184.236.184.236.184.236.184.236.184.236.184.236.184.236.184.236.184.236.183.236.184.236.184.236.184.236.184.236.184.236.184.236.184.236.184.236.184.236.184.236.183.236.184.236.184.236.184.236.184.236.184.236.184.236.184.236.184.236.184.236.184.236.184.236.183.236.184.236.184.236.184.236.184.236.184.236.184.236.184.236.184.236.184.236.184.236.183.236.184.236.184.236.184-.043.056-.044.055-.043.056-.044.055-.044.055-.044.055-.044.055-.045.055-.044.054-.045.055-.044.055-.045.054-.045.054-.045.055-.045.054-.046.054-.045.053-.046.054-.045.054-.046.053-.046.054-.046.053-.047.054-.046.053-.046.053-.047.053-.047.052-.047.053-.047.053-.047.052-.047.052-.047.053-.048.052-.047.052-.048.052-.048.051-.048.052-.048.052-.048.051-.048.052-.049.05-.048.052-.049.05-.049.052-.049.05-.049.051-.049.05-.05.051-.048.05-.05.05-.05.05-.05.05-.05.05-.05.05-.05.05-.05.05-.05.049-.05.049-.05.049-.052.049-.05.049-.051.049-.051.048-.051.049-.052.048-.051.049-.052.048-.051.048-.052.048-.052.047-.052.048-.052.048-.052.047-.052.047-.052.048-.053.047-.052.047-.053.046-.053.047-.053.047-.053.046-.053.046-.053.047-.054.046-.053.046-.054.045-.054.046-.053.046-.054.045-.054.045-.054.046-.055.045-.054.045-.054.044-.055.045-.055.045-.054.044-.055.044-.055.044-.055.044-.187-.234-.186-.233-.187-.234-.186-.234-.187-.234-.186-.234-.187-.234-.187-.234-.186-.234-.187-.234-.186-.234-.187-.234-.186-.234-.187-.234-.186-.233-.187-.234-.187-.234-.186-.234-.187-.234-.186-.234-.187-.234-.186-.234-.187-.234-.186-.234-.187-.234-.186-.234-.187-.234-.187-.233-.186-.234-.187-.234-.186-.234-.187-.234-.186-.234-.187-.234-.186-.234-.187-.234-.186-.234-.187-.234-.187-.234-.186-.234-.187-.233-.186-.234-.187-.234-.186-.234-.187-.234-.186-.234-.187-.234-.186-.234-.187-.234-.187-.234-.186-.234-.187-.234-.186-.234-.187-.233-.186-.234-.187-.234-.186-.234-.187-.234-.187-.234-.186-.234-.187-.234-.186-.234-.187-.234-.186-.234-.187-.234-.186-.234-.187-.234-.186-.233-.187-.234-.187-.234-.186-.234-.187-.234-.186-.234-.187-.234-.186-.234-.187-.234-.186-.234-.187-.234-.186-.234-.187-.234-.187-.233-.186-.234-.187-.234-.186-.234-.187-.234-.186-.234-.187-.234-.186-.234-.187-.234-.187-.234-.186-.234-.187-.234-.186-.234-.187-.233-.186-.234-.187-.234-.186-.234-.187-.234-.186-.234z" opacity=".6" fill="#ff6800" transform="translate(431.928 30.511) scale(2.10335)" stroke="#000" stroke-width=".456"/></g><path d="M545.509 184.602a70.803 70.803 0 0 0 50.062-120.86 70.803 70.803 0 0 0-120.86 50.062 70.803 70.803 0 0 0 70.798 70.798z" fill="none" stroke="#11557c" stroke-width="2.103"/><path clip-path="url(#a)" d="M54 39.6l.071-.023.071-.023.071-.023.072-.023.07-.024.072-.023.071-.023.071-.023.071-.023.071-.023.072-.023.07-.023.072-.023.071-.024.071-.023.071-.023.071-.023.072-.023.07-.023.072-.023.07-.023.072-.023.071-.024.071-.023.071-.023.072-.023.07-.023.072-.023.071-.023.071-.023.071-.023.071-.024.072-.023.07-.023.072-.023.071-.023.071-.023.071-.023.071-.023.072-.023.07-.024.072-.023.071-.023.071-.023.071-.023.071-.023.072-.023.07-.023.072-.023.071-.024.071-.023.071-.023.071-.023.072-.023.07-.023.072-.023.071-.023.071-.023.071-.024.071-.023.072-.023.07-.023.072-.023.071-.023.071-.023.071-.023.071-.024.072-.023.07-.023.072-.023.07-.023.072-.023.071-.023.071-.023.071-.023.072-.024.07-.023.072-.023.071-.023.071-.023.071-.023.071-.023.072-.023.07-.023.072-.024.071-.023.071-.023.071-.023.071-.023.072-.023.07-.023.072-.023.071-.023.071-.024.071-.023.071-.023.072-.023.07-.023.072-.023.071-.023.007.022.007.023.007.022.007.022.007.023.007.022.007.023.007.022.006.023.007.022.007.023.006.023.006.022.007.023.006.023.006.022.006.023.006.023.006.022.006.023.006.023.006.023.005.022.006.023.005.023.006.023.005.023.006.023.005.023.005.023.005.023.005.022.005.023.005.023.005.023.004.023.005.023.005.024.004.023.005.023.004.023.004.023.004.023.005.023.004.023.004.023.004.024.003.023.004.023.004.023.004.023.003.024.004.023.003.023.003.023.004.024.003.023.003.023.003.023.003.024.003.023.003.023.003.024.002.023.003.023.002.024.003.023.002.024.003.023.002.023.002.024.002.023.002.024.002.023.002.023.002.024.001.023.002.024.002.023.001.024.002.023.001.024.001.023.002.023v.024l.002.023v.024l.002.023v.024l.001.023.001.024v.023l.001.024v.023l.001.024v.07l.001.024v.023h-7.405zm0 0l.079-.21.079-.21.079-.21.078-.21.08-.21.078-.21.079-.21.079-.21.079-.21.079-.21.078-.211.08-.21.078-.21.079-.21.079-.21.079-.21.078-.21.08-.21.078-.21.079-.21.079-.21.079-.211.079-.21.078-.21.08-.21.078-.21.079-.21.079-.21.079-.21.079-.21.078-.21.08-.21.078-.211.079-.21.079-.21.079-.21.078-.21.08-.21.078-.21.079-.21.079-.21.079-.21.079-.21.078-.211.08-.21.078-.21.079-.21.079-.21.079-.21.079-.21.078-.21.08-.21.078-.21.079-.21.079-.211.079-.21.078-.21.08-.21.078-.21.079-.21.079-.21.079-.21.079-.21.078-.21.08-.21.078-.211.079-.21.079-.21.079-.21.079-.21.078-.21.08-.21.078-.21.079-.21.079-.21.079-.21.078-.211.08-.21.078-.21.079-.21.079-.21.079-.21.079-.21.078-.21.08-.21.078-.21.079-.21.079-.211.079-.21.079-.21.078-.21.08-.21.078-.21.079-.21.079-.21.079-.21.078-.21.08-.21.078-.211.079-.21.066.025.066.025.066.025.065.026.066.025.066.026.065.026.065.027.066.026.065.027.065.027.065.027.065.027.065.028.065.028.065.028.064.028.065.028.064.029.065.028.064.03.064.029.064.029.064.03.064.03.064.03.064.03.063.03.064.03.063.031.063.031.064.031.063.032.063.031.063.032.063.032.062.032.063.032.063.033.062.033.062.033.063.033.062.033.062.034.062.033.061.034.062.034.062.035.061.034.061.035.062.035.06.035.062.035.06.036.062.035.06.036.061.036.06.036.06.037.061.036.06.037.06.037.06.037.06.038.06.037.06.038.059.038.059.038.059.038.06.039.058.039.059.038.059.04.058.039.059.039.058.04.058.04.058.04.058.04.058.04.058.04.057.041.058.04.057.042.057.041.057.041.057.042.057.042.057.042.056.042.057.042.056.043.056.042.056.043.056.043.056.043.055.044.056.043.055.044.055.044-.14.175-.14.176-.14.175-.14.175-.14.176-.14.175-.14.176-.139.175-.14.176-.14.175-.14.176-.14.175-.14.175-.14.176-.14.175-.14.176-.14.175-.14.176-.14.175-.139.176-.14.175-.14.175-.14.176-.14.175-.14.176-.14.175-.14.176-.14.175-.14.176-.14.175-.139.175-.14.176-.14.175-.14.176-.14.175-.14.176-.14.175-.14.176-.14.175-.14.175-.14.176-.139.175-.14.176-.14.175-.14.176-.14.175-.14.176-.14.175-.14.175-.14.176-.14.175-.14.176-.139.175-.14.176-.14.175-.14.175-.14.176-.14.175-.14.176-.14.175-.14.176-.14.175-.14.176-.14.175-.139.175-.14.176-.14.175-.14.176-.14.175-.14.176-.14.175-.14.176-.14.175-.14.175-.14.176-.139.175-.14.176-.14.175-.14.176-.14.175-.14.176-.14.175-.14.175-.14.176-.14.175-.14.176-.139.175-.14.176-.14.175-.14.176-.14.175-.14.175-.14.176-.14.175-.14.176-.14.175-.14.176-.139.175-.14.176zm0 0l-.192-.23-.191-.23-.192-.229-.192-.23-.192-.23-.191-.23-.192-.229-.192-.23-.192-.23-.191-.229-.192-.23-.192-.23-.192-.229-.191-.23-.192-.23-.192-.229-.192-.23-.192-.23-.191-.229-.192-.23-.192-.23-.191-.229-.192-.23-.192-.23-.192-.229-.192-.23-.191-.23-.192-.229-.192-.23-.191-.23-.192-.23-.192-.229-.192-.23-.191-.23-.192-.229-.192-.23-.192-.23-.191-.229-.192-.23-.192-.23-.192-.229-.191-.23-.192-.23-.192-.229-.192-.23-.191-.23-.192-.229-.192-.23-.192-.23-.191-.229-.192-.23-.192-.23-.192-.229-.191-.23-.192-.23-.192-.229-.192-.23-.191-.23-.192-.23-.192-.229-.192-.23-.191-.23-.192-.229-.192-.23-.192-.23-.191-.229-.192-.23-.192-.23-.192-.229-.191-.23-.192-.23-.192-.229-.192-.23-.191-.23-.192-.229-.192-.23-.192-.23-.191-.229-.192-.23-.192-.23-.192-.229-.191-.23-.192-.23-.192-.23-.192-.229-.191-.23-.192-.23-.192-.229-.192-.23-.191-.23-.192-.229-.192-.23-.192-.23-.191-.229-.192-.23-.192-.23-.192-.229-.191-.23-.192-.23-.192-.229.108-.09.11-.09.109-.089.11-.088.11-.088.11-.088.11-.087.112-.086.112-.086.112-.086.113-.085.113-.084.113-.084.114-.083.114-.083.115-.082.115-.082.115-.08.116-.081.116-.08.116-.08.117-.079.117-.078.118-.078.118-.078.118-.076.118-.076.12-.076.119-.075.12-.075.12-.073.12-.074.12-.073.122-.072.121-.072.122-.07.122-.071.123-.07.122-.07.123-.068.124-.068.124-.068.124-.067.124-.066.125-.066.125-.066.125-.064.125-.064.126-.064.127-.063.126-.062.127-.062.127-.06.127-.061.128-.06.128-.06.128-.058.128-.058.13-.058.128-.057.13-.056.129-.056.13-.055.13-.054.13-.054.13-.053.132-.053.13-.052.132-.051.132-.05.131-.05.132-.05.133-.05.132-.047.133-.048.133-.047.133-.046.133-.046.134-.045.134-.045.134-.044.134-.043.134-.042.135-.042.135-.042.135-.04.135-.04.135-.04.136-.039.135-.038.136-.037.136-.037.137-.036.136-.036.137-.035.137-.034.136-.034.138-.033.137-.032.137-.032.067.292.066.292.067.291.066.292.067.292.067.291.066.292.067.292.066.291.067.292.067.292.066.292.067.291.066.292.067.292.066.291.067.292.067.292.066.291.067.292.066.292.067.292.067.291.066.292.067.292.066.291.067.292.066.292.067.291.067.292.066.292.067.292.066.291.067.292.066.292.067.291.067.292.066.292.067.291.066.292.067.292.067.292.066.291.067.292.066.292.067.291.066.292.067.292.067.291.066.292.067.292.066.291.067.292.066.292.067.292.067.291.066.292.067.292.066.291.067.292.067.292.066.291.067.292.066.292.067.292.066.291.067.292.067.292.066.291.067.292.066.292.067.291.067.292.066.292.067.292.066.291.067.292.066.292.067.291.067.292.066.292.067.291.066.292.067.292.066.292.067.291.067.292.066.292.067.291.066.292.067.292.067.291.066.292.067.292.066.292.067.291.066.292.067.292.067.291zm0 0l-.258.047-.257.047-.258.046-.257.047-.258.047-.258.047-.257.046-.258.047-.257.047-.258.047-.258.046-.257.047-.258.047-.257.047-.258.046-.257.047-.258.047-.258.047-.257.046-.258.047-.257.047-.258.047-.258.046-.257.047-.258.047-.257.047-.258.046-.258.047-.257.047-.258.047-.257.046-.258.047-.258.047-.257.047-.258.046-.257.047-.258.047-.258.047-.257.046-.258.047-.257.047-.258.047-.257.046-.258.047-.258.047-.257.047-.258.046-.257.047-.258.047-.258.047-.257.046-.258.047-.257.047-.258.047-.258.046-.257.047-.258.047-.257.047-.258.046-.258.047-.257.047-.258.047-.257.046-.258.047-.258.047-.257.047-.258.046-.257.047-.258.047-.257.047-.258.046-.258.047-.257.047-.258.047-.257.046-.258.047-.258.047-.257.047-.258.046-.257.047-.258.047-.258.047-.257.046-.258.047-.257.047-.258.047-.258.046-.257.047-.258.047-.257.047-.258.046-.258.047-.257.047-.258.047-.257.046-.258.047-.257.047-.258.047-.258.046-.257.047-.03-.162-.027-.162-.027-.162-.026-.163-.024-.162-.024-.163-.023-.163-.022-.163-.02-.163-.02-.164-.019-.163-.017-.164-.017-.163-.015-.164-.015-.164-.013-.164-.013-.164-.011-.164-.01-.164-.01-.164-.008-.165-.008-.164-.006-.164-.005-.165-.004-.164-.004-.165-.002-.164v-.494l.002-.164.003-.165.004-.164.005-.164.006-.165.008-.164.008-.164.01-.165.01-.164.01-.164.013-.164.013-.164.015-.164.015-.164.016-.163.018-.164.018-.163.02-.164.02-.163.022-.163.023-.163.023-.163.025-.162.026-.163.026-.162.028-.162.029-.162.03-.162.03-.161.032-.162.033-.161.034-.161.034-.16.036-.161.037-.16.038-.16.039-.16.04-.16.04-.16.042-.159.043-.158.044-.159.045-.158.045-.158.047-.158.048-.157.049-.157.05-.157.05-.157.052-.156.053-.156.054-.155.054-.155.056-.155.056-.155.058-.154.059-.153.06-.154.06-.153.061-.152.062-.152.064-.152.064-.152.065-.15.067-.151.067-.15.068-.15.069-.15.07-.148.07-.149.237.114.236.113.235.114.236.114.236.113.236.114.236.113.236.114.236.114.236.113.235.114.236.113.236.114.236.114.236.113.236.114.236.113.236.114.235.114.236.113.236.114.236.113.236.114.236.113.236.114.235.114.236.113.236.114.236.113.236.114.236.114.236.113.236.114.235.113.236.114.236.114.236.113.236.114.236.113.236.114.236.114.235.113.236.114.236.113.236.114.236.113.236.114.236.114.236.113.235.114.236.113.236.114.236.114.236.113.236.114.236.113.236.114.235.114.236.113.236.114.236.113.236.114.236.114.236.113.236.114.235.113.236.114.236.113.236.114.236.114.236.113.236.114.236.113.235.114.236.114.236.113.236.114.236.113.236.114.236.114.236.113.235.114.236.113.236.114.236.114.236.113.236.114.236.113.236.114.235.113.236.114.236.114.236.113.236.114.236.113.236.114.236.114.235.113.236.114z" opacity=".6" transform="translate(431.928 30.511) scale(2.10335)" fill="none" stroke="#000" stroke-width=".456"/><g opacity=".938"><path clip-path="url(#a)" d="M54 39.6l-.123.085-.123.085-.123.086-.123.085-.123.085-.123.085-.123.085-.123.086-.123.085-.123.085-.123.085-.123.085-.123.085-.123.086-.123.085-.123.085-.123.085-.122.085-.123.086-.123.085-.123.085-.123.085-.123.085-.123.086-.123.085-.123.085-.123.085-.123.085-.123.086-.123.085-.123.085-.123.085-.123.085-.123.086-.123.085-.123.085-.123.085-.123.085-.123.085-.123.086-.123.085-.123.085-.123.085-.123.085-.123.086-.123.085-.123.085-.123.085-.123.085-.123.086-.123.085-.123.085-.122.085-.123.085-.123.086-.123.085-.123.085-.123.085-.123.085-.123.085-.123.086-.123.085-.123.085-.123.085-.123.085-.123.086-.123.085-.123.085-.123.085-.123.085-.123.086-.123.085-.123.085-.123.085-.123.085-.123.086-.123.085-.123.085-.123.085-.123.085-.123.086-.123.085-.123.085-.123.085-.123.085-.123.085-.123.086-.122.085-.123.085-.123.085-.123.085-.123.086-.123.085-.123.085-.123.085-.123.085-.123.086-.123.085-.123.085-.123.085-.014-.02-.013-.019-.013-.019-.013-.02-.014-.019-.013-.02-.013-.019-.013-.02-.013-.019-.013-.02-.014-.019-.013-.02-.013-.019-.013-.02-.012-.019-.013-.02-.013-.02-.013-.019-.013-.02-.013-.02-.012-.02-.013-.019-.013-.02-.013-.02-.012-.02-.013-.02-.012-.019-.013-.02-.012-.02-.013-.02-.012-.02-.013-.02-.012-.02-.012-.02-.013-.02-.012-.02-.012-.02-.012-.02-.013-.02-.012-.02-.012-.02-.012-.02-.012-.02-.012-.02-.012-.02-.012-.02-.012-.021-.012-.02-.012-.02-.012-.021-.011-.02-.012-.02-.012-.021-.012-.02-.011-.02-.012-.021-.012-.02-.011-.021-.012-.02-.011-.021-.012-.02-.011-.021-.012-.02-.011-.021-.011-.02-.012-.021-.011-.02-.011-.021-.012-.021-.01-.02-.012-.021-.011-.021-.011-.02-.011-.022-.011-.02-.011-.021-.011-.02-.011-.022-.011-.02-.011-.021-.01-.021-.012-.021-.01-.02-.011-.022-.01-.02-.011-.022-.011-.02-.01-.022-.011-.02-.01-.022-.011-.02-.01-.022-.011-.02-.01-.022-.011-.02-.01-.022-.01-.021-.011-.021-.01-.021-.01-.021.134-.065.135-.065.135-.065.135-.065.134-.065.135-.065.135-.065.135-.065.135-.065.134-.065.135-.064.135-.065.135-.065.135-.065.134-.065.135-.065.135-.065.135-.065.134-.065.135-.065.135-.065.135-.064.135-.065.134-.065.135-.065.135-.065.135-.065.135-.065.134-.065.135-.065.135-.065.135-.065.134-.065.135-.064.135-.065.135-.065.135-.065.134-.065.135-.065.135-.065.135-.065.134-.065.135-.065.135-.065.135-.064.135-.065.134-.065.135-.065.135-.065.135-.065.135-.065.134-.065.135-.065.135-.065.135-.065.134-.064.135-.065.135-.065.135-.065.135-.065.134-.065.135-.065.135-.065.135-.065.135-.065.134-.065.135-.064.135-.065.135-.065.134-.065.135-.065.135-.065.135-.065.135-.065.134-.065.135-.065.135-.065.135-.064.135-.065.134-.065.135-.065.135-.065.135-.065.134-.065.135-.065.135-.065.135-.065.135-.065.134-.064.135-.065.135-.065.135-.065.135-.065.134-.065.135-.065.135-.065.135-.065.134-.065.135-.065z" opacity=".6" transform="translate(431.928 30.511) scale(2.10335)" fill="none" stroke="#000" stroke-width=".456"/></g><path clip-path="url(#a)" d="M54 39.6l.031.184.032.185.031.184.031.184.032.185.03.184.032.185.032.184.03.184.032.185.032.184.03.184.032.185.031.184.032.184.031.185.031.184.032.184.031.185.031.184.032.185.031.184.031.184.032.185.031.184.031.184.032.185.031.184.031.184.032.185.03.184.032.184.032.185.03.184.032.185.032.184.03.184.032.185.031.184.032.184.031.185.031.184.032.184.031.185.031.184.032.184.031.185.031.184.032.185.031.184.031.184.032.185.031.184.031.184.032.185.03.184.032.184.032.185.03.184.032.184.032.185.03.184.032.185.031.184.032.184.031.185.031.184.032.184.031.185.031.184.032.184.031.185.031.184.032.184.031.185.031.184.032.185.031.184.031.184.032.185.03.184.032.184.032.185.03.184.032.184.032.185.03.184.032.184.031.185.032.184.031.185.031.184.032.184.031.185.031.184.032.184.031.185.031.184.032.184.031.185-.072.012-.073.012-.072.011-.073.012-.073.01-.072.011-.073.01-.073.011-.072.01-.073.01-.073.009-.073.009-.073.009-.073.008-.073.008-.073.008-.073.008-.073.007-.073.007-.073.007-.073.006-.073.006-.074.006-.073.006-.073.005-.073.005-.074.005-.073.004-.073.004-.074.004-.073.004-.073.003-.074.003-.073.003-.073.002-.074.002-.073.002-.074.001-.073.002h-.074l-.073.001h-.367l-.074-.002h-.073l-.073-.002-.074-.002-.073-.003-.074-.002-.073-.003-.073-.003-.074-.003-.073-.004-.073-.004-.074-.004-.073-.005-.073-.004-.074-.005-.073-.006-.073-.006-.073-.005-.073-.007-.073-.006-.074-.007-.073-.007-.073-.007-.073-.008-.073-.008-.073-.008-.073-.009-.073-.009-.072-.009-.073-.01-.073-.009-.073-.01-.073-.01-.072-.01-.073-.011-.072-.012-.073-.011-.073-.012-.072-.012-.072-.012-.073-.012-.072-.013-.072-.013-.073-.014-.072-.013-.072-.014-.072-.014-.072-.015-.072-.015-.072-.015-.071-.015-.072-.016-.072-.016-.071-.016.041-.182.042-.183.041-.182.042-.182.042-.183.041-.182.042-.182.041-.182.042-.183.042-.182.041-.182.042-.183.041-.182.042-.182.042-.183.041-.182.042-.182.042-.183.041-.182.042-.182.041-.182.042-.183.042-.182.041-.182.042-.183.041-.182.042-.182.042-.183.041-.182.042-.182.041-.183.042-.182.042-.182.041-.183.042-.182.041-.182.042-.182.042-.183.041-.182.042-.182.042-.183.041-.182.042-.182.041-.183.042-.182.042-.182.041-.183.042-.182.041-.182.042-.183.042-.182.041-.182.042-.182.041-.183.042-.182.042-.182.041-.183.042-.182.042-.182.041-.183.042-.182.041-.182.042-.183.042-.182.041-.182.042-.183.041-.182.042-.182.042-.182.041-.183.042-.182.041-.182.042-.183.042-.182.041-.182.042-.183.041-.182.042-.182.042-.183.041-.182.042-.182.042-.182.041-.183.042-.182.041-.182.042-.183.042-.182.041-.182.042-.183.041-.182.042-.182.042-.183.041-.182.042-.182.041-.183.042-.182.042-.182.041-.182.042-.183zm0 0l.236.184.236.184.236.184.236.184.236.184.236.183.236.184.236.184.236.184.236.184.236.184.236.184.236.184.236.184.236.184.236.184.236.184.236.183.236.184.236.184.236.184.236.184.236.184.236.184.236.184.236.184.236.184.236.184.236.183.236.184.236.184.236.184.236.184.236.184.236.184.236.184.236.184.236.184.236.184.236.183.236.184.236.184.236.184.236.184.236.184.236.184.236.184.236.184.236.184.236.184.236.184.236.183.236.184.236.184.236.184.236.184.236.184.236.184.236.184.236.184.236.184.236.184.236.183.236.184.236.184.236.184.236.184.236.184.236.184.236.184.236.184.236.184.236.184.236.183.236.184.236.184.236.184.236.184.236.184.236.184.236.184.236.184.236.184.236.184.236.184.236.183.236.184.236.184.236.184.236.184.236.184.236.184.236.184.236.184.236.184.236.184.236.183.236.184.236.184.236.184-.043.056-.044.055-.043.056-.044.055-.044.055-.044.055-.044.055-.045.055-.044.054-.045.055-.044.055-.045.054-.045.054-.045.055-.045.054-.046.054-.045.053-.046.054-.045.054-.046.053-.046.054-.046.053-.047.054-.046.053-.046.053-.047.053-.047.052-.047.053-.047.053-.047.052-.047.052-.047.053-.048.052-.047.052-.048.052-.048.051-.048.052-.048.052-.048.051-.048.052-.049.05-.048.052-.049.05-.049.052-.049.05-.049.051-.049.05-.05.051-.048.05-.05.05-.05.05-.05.05-.05.05-.05.05-.05.05-.05.05-.05.049-.05.049-.05.049-.052.049-.05.049-.051.049-.051.048-.051.049-.052.048-.051.049-.052.048-.051.048-.052.048-.052.047-.052.048-.052.048-.052.047-.052.047-.052.048-.053.047-.052.047-.053.046-.053.047-.053.047-.053.046-.053.046-.053.047-.054.046-.053.046-.054.045-.054.046-.053.046-.054.045-.054.045-.054.046-.055.045-.054.045-.054.044-.055.045-.055.045-.054.044-.055.044-.055.044-.055.044-.187-.234-.186-.233-.187-.234-.186-.234-.187-.234-.186-.234-.187-.234-.187-.234-.186-.234-.187-.234-.186-.234-.187-.234-.186-.234-.187-.234-.186-.233-.187-.234-.187-.234-.186-.234-.187-.234-.186-.234-.187-.234-.186-.234-.187-.234-.186-.234-.187-.234-.186-.234-.187-.234-.187-.233-.186-.234-.187-.234-.186-.234-.187-.234-.186-.234-.187-.234-.186-.234-.187-.234-.186-.234-.187-.234-.187-.234-.186-.234-.187-.233-.186-.234-.187-.234-.186-.234-.187-.234-.186-.234-.187-.234-.186-.234-.187-.234-.187-.234-.186-.234-.187-.234-.186-.234-.187-.233-.186-.234-.187-.234-.186-.234-.187-.234-.187-.234-.186-.234-.187-.234-.186-.234-.187-.234-.186-.234-.187-.234-.186-.234-.187-.234-.186-.233-.187-.234-.187-.234-.186-.234-.187-.234-.186-.234-.187-.234-.186-.234-.187-.234-.186-.234-.187-.234-.186-.234-.187-.234-.187-.233-.186-.234-.187-.234-.186-.234-.187-.234-.186-.234-.187-.234-.186-.234-.187-.234-.187-.234-.186-.234-.187-.234-.186-.234-.187-.233-.186-.234-.187-.234-.186-.234-.187-.234-.186-.234z" opacity=".6" transform="translate(431.928 30.511) scale(2.10335)" fill="none" stroke="#000" stroke-width=".456"/></g></svg>