<svg viewBox="0 0 730 255" xmlns="http://www.w3.org/2000/svg" fill-rule="evenodd" clip-rule="evenodd" stroke-linejoin="round" stroke-miterlimit="1.414"><path d="M259.368 192.36l-.598-.598v-3.055l.598-.531c2.699-.043 4.857-.2 6.475-.465 1.615-.266 2.656-.707 3.12-1.328.466-.62.774-1.615.93-2.988.155-1.371.31-4.471.466-9.297.154-4.824.232-8.277.232-10.36v-53.655c0-2.258-.41-3.928-1.23-5.014-.82-1.084-1.937-1.77-3.353-2.06-1.418-.286-3.83-.452-7.238-.497l-.531-.531V98.86l.53-.598c6.11.223 20.166.222 23.044 0L334.14 164.8a249.952 249.952 0 0 0 11.488 13.48v-51.398c0-1.594-.077-4.99-.231-10.193-.156-5.201-.344-8.5-.565-9.895-.223-1.395-.608-2.334-1.161-2.822-.555-.486-1.594-.852-3.122-1.096-1.526-.242-3.597-.387-6.209-.432l-.53-.531v-3.055l.53-.598c3.587.223 25.81.222 28.556 0l.598.598v3.055l-.531.53c-2.922.046-5.18.212-6.773.499-1.594.289-2.59.764-2.988 1.428-.398.664-.676 1.639-.83 2.922-.156 1.285-.311 4.34-.465 9.164-.156 4.826-.233 8.3-.233 10.426l.067 49.805c.087 5.977.175 11.977.266 17.996-2.215-.754-6.043-1.684-11.488-2.79l-4.715-5.577-59.169-73.512v50.934c0 2.037.077 5.668.233 10.89.154 5.226.341 8.392.563 9.497.221 1.107.509 1.87.863 2.29.355.423 1.118.81 2.291 1.163 1.173.355 3.596.555 7.272.598l.53.53v3.122l-.53.53c-2.303-.31-23.533-.309-28.49.001l.001.001zm131.617-63.75l1.262.863c-.488 5.8-.73 13.172-.73 22.113v15.473c0 5.668.432 9.607 1.295 11.82.863 2.215 2.357 3.908 4.482 5.08 2.125 1.174 4.648 1.76 7.57 1.76 3.23 0 6.176-.631 8.832-1.893a18.301 18.301 0 0 0 6.673-5.346c1.793-2.301 2.822-3.852 3.089-4.648.265-.796.44-3.031.53-6.707 0 0 .11-18.794-.066-21.848-.178-3.055-.322-4.936-.433-5.645-.11-.707-.454-1.23-1.028-1.561-.577-.332-1.727-.498-3.453-.498l-5.578-.066-.599-.531v-2.855l.531-.531c8.456-1.018 15.582-2.678 21.384-4.98l1.262.863c-.488 5.8-.73 13.172-.73 22.113 0 0 .108 17.776.332 27.958.088 3.764.32 6.055.697 6.873.375.82.896 1.395 1.56 1.727.666.332 2.634.498 5.91.498h1.86l.598.53v2.657l-.531.598c-6.243-.355-10.426-.531-12.551-.531-2.702 0-5.822.154-9.363.465l-.599-.531c.267-4.516.466-8.344.599-11.488-2.79 2.17-5.978 5.07-9.563 8.699-1.373 1.373-3.344 2.523-5.91 3.453-2.568.93-5.49 1.395-8.767 1.395-4.959 0-8.822-.787-11.587-2.357-2.769-1.57-4.728-3.74-5.877-6.508-1.152-2.766-1.727-7.537-1.727-14.311l.066-18.196c0-1.77-.09-4.183-.267-7.237-.178-3.055-.322-4.936-.431-5.645-.111-.707-.455-1.23-1.03-1.561-.575-.332-1.726-.498-3.452-.498l-5.578-.066-.598-.531v-2.855l.53-.531c8.458-1.02 15.585-2.68 21.386-4.983zm83.473 0l1.261.863c-.265 2.922-.442 6.42-.53 10.492l6.308-5.777c1.77-1.637 2.943-2.69 3.52-3.154.575-.465 1.927-1.006 4.052-1.627 2.125-.62 4.359-.93 6.707-.93 4.426 0 8.3 1.096 11.62 3.287 3.32 2.19 5.778 5.213 7.371 9.064 5.977-5.666 9.463-8.81 10.46-9.43.995-.62 2.577-1.25 4.747-1.893a22.885 22.885 0 0 1 6.508-.963c3.496 0 6.707.754 9.63 2.258 2.922 1.506 5.245 3.477 6.972 5.91 1.728 2.436 2.733 5.07 3.022 7.902.286 2.834.432 18.661.432 18.661 0 .754.132 6.266.397 16.535.089 4.207.553 6.707 1.395 7.504.84.797 3.563 1.195 8.168 1.195l.531.53v2.856l-.53.53c-5.624-.354-9.43-.53-11.423-.53-1.107 0-4.316.176-9.629.53l-.863-.73c.575-5.753.864-13.257.864-22.511v-7.97c0-7.038-.332-11.962-.996-14.774-.664-2.811-2.216-5.113-4.649-6.906-2.436-1.793-5.336-2.69-8.699-2.69-2.39 0-4.627.478-6.707 1.429-2.082.953-3.95 2.369-5.61 4.25-1.66 1.883-2.58 3.63-2.757 5.246-.178 1.617-.265 4.594-.265 8.932 0 0 .087 13.903.265 19.258.177 5.357.365 8.479.564 9.363.2.887.508 1.518.93 1.893.42.377.906.62 1.462.73.553.11 2.932.299 7.139.564l.597.53v2.79l-.53.598a249.879 249.879 0 0 0-16.005-.531c-4.738 0-10.05.176-15.938.53l-.598-.597v-2.79l.599-.53c4.293-.266 6.716-.465 7.27-.598a3.035 3.035 0 0 0 1.462-.83c.42-.42.706-1.063.862-1.926.154-.863.332-3.72.531-8.566.2-4.847.3-18.56.3-18.56 0-5.002-.345-8.854-1.03-11.555-.688-2.7-2.158-4.98-4.416-6.84-2.257-1.86-5.092-2.79-8.5-2.79-2.656 0-5.08.522-7.27 1.562-2.192 1.04-3.985 2.324-5.38 3.852s-2.257 2.955-2.59 4.283c-.332 1.328-.498 4.207-.498 8.633 0 0 .088 15.43.266 20.785.176 5.357.365 8.479.565 9.363.198.887.507 1.518.93 1.893.42.377.905.62 1.46.73.553.11 2.933.299 7.14.564l.597.53v2.79l-.53.598a249.879 249.879 0 0 0-16.005-.531c-5.091 0-10.404.176-15.938.53l-.598-.597v-2.79l.599-.53c4.293-.266 6.716-.465 7.27-.598a3.036 3.036 0 0 0 1.461-.83c.42-.42.707-1.063.863-1.926.154-.863.332-3.72.531-8.566.2-4.847.3-24.072.3-24.072 0-1.77-.09-4.184-.267-7.238-.178-3.055-.322-4.936-.432-5.645-.11-.707-.455-1.23-1.029-1.561-.576-.332-1.726-.498-3.452-.498l-5.579-.066-.598-.531v-2.855l.531-.531c8.453-1.017 15.58-2.677 21.381-4.98h.001zM574 98.064c11.156.355 18.262.53 21.316.53 4.16 0 8.832-.108 14.012-.331 5.488-.176 8.875-.266 10.16-.266 6.197 0 11.322.643 15.373 1.926 4.05 1.285 7.404 3.63 10.06 7.039 2.657 3.41 3.985 7.527 3.985 12.352 0 3.984-.93 7.836-2.79 11.555-1.858 3.719-4.448 6.885-7.77 9.496-3.32 2.613-6.685 4.482-10.093 5.61a33.584 33.584 0 0 1-10.625 1.694c-2.746 0-5.801-.31-9.164-.93l-1.13-4.051.599-.664c3.32.754 6.02 1.129 8.102 1.129 5.799 0 10.459-1.914 13.979-5.744 3.52-3.828 5.279-8.732 5.279-14.71 0-6.02-1.826-10.823-5.48-14.41-3.652-3.585-9.175-5.378-16.567-5.378-4.03 0-8.457.754-13.281 2.258-.398 3.41-.532 68.398-.532 68.398.043 5.004.176 8.234.398 9.695.22 1.46.54 2.436.963 2.922.42.488 1.229.896 2.424 1.229 1.195.333 4.139.588 8.832.764l.53.398v3.32l-.53.53c-11.29-.354-17.644-.53-19.06-.53-1.505 0-7.835.176-18.991.53l-.531-.53v-3.32l.53-.398c4.118-.176 6.862-.398 8.235-.664 1.37-.266 2.29-.607 2.756-1.03.465-.42.84-1.315 1.129-2.688.287-1.371.453-4.426.498-9.164 0 0-.233-66.008-.432-67.469-.2-1.461-.51-2.434-.93-2.922-.422-.486-1.23-.885-2.424-1.195-1.195-.31-4.141-.553-8.832-.73l-.531-.465v-3.32l.533-.466zm81.215 129.89c1.504-3.72 2.633-7.13 3.387-10.227h1.594c2.168 2.346 4.516 3.52 7.039 3.52 3.143 0 5.877-1.561 8.2-4.682 2.325-3.121 5.612-10.018 9.862-20.686-1.598-4.511-18.418-46.141-20.586-51.166-2.17-5.023-3.465-7.791-3.885-8.301-.422-.508-.963-.984-1.627-1.428-.664-.441-2.457-.863-5.38-1.262l-.53-.531v-2.656l.598-.531c5.09.31 10.314.465 15.672.465 6.285 0 11.133-.154 14.543-.465l.53.53v2.657l-.464.53c-1.361.11-2.722.21-4.084.3-2.236.156-3.631.51-4.184 1.063-.555.555-.83 1.186-.83 1.893 0 .754.686 3.199 2.059 7.338 1.37 4.14 13.037 33.193 14.543 36.423l14.345-34.731c1.416-3.63 2.225-5.887 2.424-6.773.199-.885.299-1.527.299-1.926 0-.973-.355-1.637-1.063-1.992-.71-.354-2.281-.664-4.715-.93l-2.79-.398-.464-.531v-2.922l.53-.531c3.72.31 8.124.465 13.216.465 4.648 0 8.367-.154 11.156-.465l.53.53v2.923l-.53.53c-1.64.046-2.945.267-3.918.665-.975.398-1.904 1.107-2.79 2.125-.886 1.02-2.48 3.885-4.78 8.6-2.367 4.85-13.414 28.92-13.414 28.92l-15.34 35.859c-1.328 3.098-2.98 6.418-4.947 9.96-1.971 3.542-4.383 6.099-7.238 7.67-2.855 1.57-5.877 2.358-9.064 2.358-2.791.002-5.426-.73-7.904-2.19z" fill="#0721a0" fill-rule="nonzero"/><path d="M47.953 179.614L3.33 171.745l22.53-17.484 44.622 7.868-22.529 17.485z" fill="#7684ca" fill-rule="nonzero"/><path d="M48.86 224.872l-.907-45.258 22.529-17.485.908 45.259-22.53 17.484z" fill="#7a88cc" fill-rule="nonzero"/><path d="M2.862 170.743l22.53-17.484 45.522 8.027-22.53 17.485-45.522-8.028z" fill="#7684ca" fill-rule="nonzero"/><path d="M48.835 179.306l22.53-17.484.926 46.18-22.53 17.485-.926-46.181z" fill="#7a88cc" fill-rule="nonzero"/><path d="M98.334 188.965l-44.622-7.868 22.53-17.484 44.622 7.868-22.53 17.484z" fill="#7684ca" fill-rule="nonzero"/><path d="M99.242 234.224l-.908-45.259 22.53-17.484.907 45.259-22.529 17.484z" fill="#7a88cc" fill-rule="nonzero"/><path d="M53.244 180.095l22.529-17.484 45.522 8.027-22.529 17.484-45.522-8.027z" fill="#7684ca" fill-rule="nonzero"/><path d="M99.217 188.665l22.53-17.484.925 46.173-22.529 17.484-.926-46.173z" fill="#7a88cc" fill-rule="nonzero"/><path d="M149.716 198.316l-44.622-7.868 22.529-17.485 44.623 7.868-22.53 17.485z" fill="#7684ca" fill-rule="nonzero"/><path d="M150.624 243.573l-.908-45.257 22.53-17.485.907 45.258-22.529 17.484z" fill="#7a88cc" fill-rule="nonzero"/><path d="M104.625 189.446l22.53-17.485 45.522 8.027-22.53 17.484-45.522-8.026z" fill="#7684ca" fill-rule="nonzero"/><path d="M150.599 198.015l22.529-17.484.926 46.173-22.53 17.485-.925-46.174z" fill="#7a88cc" fill-rule="nonzero"/><path d="M46.954 128.611l-44.631-7.87 22.53-17.484 44.63 7.87-22.529 17.484z" fill="#7684ca" fill-rule="nonzero"/><path d="M47.861 173.869l-.907-45.258 22.529-17.484.908 45.258-22.53 17.484z" fill="#7a88cc" fill-rule="nonzero"/><path d="M1.863 119.74l22.53-17.483 45.514 8.025-22.53 17.484-45.514-8.026z" fill="#7684ca" fill-rule="nonzero"/><path d="M47.836 128.311l22.53-17.485.926 46.173-22.53 17.485-.926-46.173z" fill="#7a88cc" fill-rule="nonzero"/><path d="M52.705 130.093l22.529-17.485.908 45.259-22.53 17.485-.907-45.259z" fill="#7a88cc" fill-rule="nonzero"/><path d="M97.335 137.962l-44.63-7.869 22.529-17.485 44.631 7.87-22.53 17.484z" fill="#7684ca" fill-rule="nonzero"/><path d="M98.243 183.221l-.908-45.259 22.53-17.484.907 45.259-22.529 17.484z" fill="#7a88cc" fill-rule="nonzero"/><path d="M52.245 129.092l22.529-17.484 45.515 8.025-22.53 17.484-45.514-8.025z" fill="#7684ca" fill-rule="nonzero"/><path d="M98.218 137.662l22.53-17.485.925 46.174-22.529 17.483-.926-46.172z" fill="#7a88cc" fill-rule="nonzero"/><path d="M46.54 77.437L1.917 69.569l22.53-17.484 44.622 7.868L46.54 77.437z" fill="#7684ca" fill-rule="nonzero"/><path d="M47.447 122.688l-.907-45.251 22.529-17.484.908 45.25-22.53 17.485z" fill="#7a88cc" fill-rule="nonzero"/><path d="M1.449 68.567l22.53-17.484L69.5 59.11 46.971 76.594 1.449 68.567z" fill="#7684ca" fill-rule="nonzero"/><path d="M47.422 77.129l22.53-17.484.925 46.181-22.529 17.484-.926-46.181z" fill="#7a88cc" fill-rule="nonzero"/><path d="M96.922 86.787L52.3 78.919l22.529-17.484 44.623 7.868-22.53 17.484z" fill="#7684ca" fill-rule="nonzero"/><path d="M97.829 132.046l-.907-45.259 22.53-17.484.907 45.259-22.53 17.484z" fill="#7a88cc" fill-rule="nonzero"/><path d="M51.831 77.917l22.53-17.484 45.522 8.027-22.529 17.484-45.523-8.027z" fill="#7684ca" fill-rule="nonzero"/><path d="M97.805 86.488l22.529-17.485.926 46.173-22.53 17.484-.925-46.172zM47.349 72.307l22.529-17.484.01.465-22.53 17.485-.009-.466zm-.901-.614l-.907-45.259L68.07 8.95l.908 45.258-22.53 17.485z" fill="#7a88cc" fill-rule="nonzero"/><path d="M45.541 26.434L.91 18.565 23.44 1.08l44.63 7.87-22.529 17.484z" fill="#7684ca" fill-rule="nonzero"/><path d="M.45 17.564L22.979.08l45.515 8.025-22.53 17.484L.45 17.564z" fill="#7684ca" fill-rule="nonzero"/><path d="M46.423 26.134L68.953 8.65l.925 46.173-22.529 17.484-.926-46.173z" fill="#7a88cc" fill-rule="nonzero"/><path d="M95.922 35.794L51.3 27.926l22.53-17.485 44.622 7.868-22.53 17.485z" fill="#7684ca" fill-rule="nonzero"/><path d="M96.83 81.044l-.908-45.25 22.53-17.485.907 45.251L96.83 81.044z" fill="#7a88cc" fill-rule="nonzero"/><path d="M50.832 26.924l22.53-17.485 45.522 8.027-22.53 17.484-45.522-8.026z" fill="#7684ca" fill-rule="nonzero"/><path d="M96.805 35.486l22.529-17.485.926 46.181-22.53 17.485-.925-46.181z" fill="#7a88cc" fill-rule="nonzero"/><path d="M200.835 207.406l-44.63-7.87 22.529-17.484 44.631 7.869-22.53 17.485z" fill="#7684ca" fill-rule="nonzero"/><path d="M201.743 252.664l-.908-45.258 22.53-17.485.907 45.259-22.529 17.484z" fill="#7a88cc" fill-rule="nonzero"/><path d="M155.745 198.535l22.529-17.484 45.515 8.025-22.53 17.485-45.514-8.026z" fill="#7684ca" fill-rule="nonzero"/><path d="M201.718 207.106l22.53-17.485.925 46.173-22.529 17.485-.926-46.173z" fill="#7a88cc" fill-rule="nonzero"/><path d="M105.002 184.703l22.529-17.484 44.623 7.868-22.529 17.485-44.623-7.869zm45.533 8.949l-.442-.079 22.53-17.484.441.078-22.529 17.485zM148.717 147.321l-44.622-7.869 22.53-17.484 44.622 7.868-22.53 17.485z" fill="#7684ca" fill-rule="nonzero"/><path d="M149.625 192.572l-.908-45.251 22.53-17.485.907 45.251-22.529 17.485z" fill="#7a88cc" fill-rule="nonzero"/><path d="M103.626 138.45l22.53-17.484 45.522 8.027-22.529 17.484-45.523-8.027z" fill="#7684ca" fill-rule="nonzero"/><path d="M149.6 147.013l22.529-17.485.926 46.181-22.53 17.485-.925-46.181zM103.706 133.837l-.926-46.181 22.53-17.484.925 46.181-22.529 17.484zm-.926-46.181l-.009-.466L125.3 69.706l.01.466-22.53 17.484z" fill="#7a88cc" fill-rule="nonzero"/><path d="M148.304 96.147l-44.623-7.868 22.529-17.485 44.623 7.868-22.529 17.485z" fill="#7684ca" fill-rule="nonzero"/><path d="M149.21 141.397l-.906-45.25 22.529-17.485.907 45.251-22.53 17.484z" fill="#7a88cc" fill-rule="nonzero"/><path d="M103.212 87.268l22.53-17.485 45.522 8.027-22.53 17.485-45.522-8.027z" fill="#7684ca" fill-rule="nonzero"/><path d="M149.186 95.839l22.529-17.485.926 46.181-22.529 17.485-.926-46.181z" fill="#7a88cc" fill-rule="nonzero"/><path d="M147.304 45.144l-44.622-7.868 22.529-17.485 44.623 7.868-22.53 17.485z" fill="#7684ca" fill-rule="nonzero"/><path d="M148.211 90.395l-.907-45.251 22.53-17.485.907 45.251-22.53 17.485z" fill="#7a88cc" fill-rule="nonzero"/><path d="M148.187 44.836l22.529-17.485.926 46.182-22.53 17.484-.925-46.181z" fill="#7a88cc" fill-rule="nonzero"/><path d="M199.837 156.411l-44.631-7.87 22.53-17.484 44.63 7.87-22.529 17.484z" fill="#7684ca" fill-rule="nonzero"/><path d="M200.744 201.661l-.907-45.25 22.529-17.484.907 45.25-22.529 17.484z" fill="#7a88cc" fill-rule="nonzero"/><path d="M154.746 147.532l22.529-17.483 45.515 8.025-22.53 17.484-45.514-8.026z" fill="#7684ca" fill-rule="nonzero"/><path d="M200.719 156.103l22.53-17.485.925 46.182-22.529 17.484-.926-46.181z" fill="#7a88cc" fill-rule="nonzero"/><path d="M199.422 105.229l-44.63-7.869 22.529-17.485 44.631 7.87-22.53 17.484z" fill="#7684ca" fill-rule="nonzero"/><path d="M200.33 150.488l-.908-45.259 22.53-17.484.907 45.258-22.529 17.485z" fill="#7a88cc" fill-rule="nonzero"/><path d="M154.332 96.359l22.53-17.484 45.522 8.027-22.53 17.484-45.522-8.027z" fill="#7684ca" fill-rule="nonzero"/><path d="M200.305 104.929l22.529-17.484.926 46.173-22.53 17.484-.925-46.173z" fill="#7a88cc" fill-rule="nonzero"/><path d="M198.424 54.234l-44.631-7.869 22.53-17.485 44.631 7.87-22.53 17.484z" fill="#7684ca" fill-rule="nonzero"/><path d="M153.333 45.356l22.529-17.484 45.514 8.025-22.529 17.484-45.514-8.025z" fill="#7684ca" fill-rule="nonzero"/><path d="M198.306 53.926l22.529-17.484.926 46.181-22.529 17.484-.926-46.181z" fill="#7a88cc" fill-rule="nonzero"/><g fill="#628cbe" fill-rule="nonzero" stroke="#6272c3"><path d="M98.334 188.965l.908 45.259-44.623-7.868-.907-45.259 44.622 7.868zM149.716 198.316l.908 45.257-44.623-7.868-.907-45.257 44.622 7.868zM97.335 137.962l.908 45.259-44.631-7.869-.907-45.259 44.63 7.869zM95.923 35.794l.907 45.25-44.622-7.868-.908-45.25 44.623 7.868zM148.304 96.147l.906 45.25-44.622-7.868-.907-45.25 44.623 7.868zM147.304 45.144l.907 45.25-44.622-7.868-.907-45.25 44.622 7.868z"/></g><g fill="#ffd65d" fill-rule="nonzero" stroke="#6272c3"><path d="M47.953 179.614l.907 45.258-44.623-7.868-.907-45.259 44.623 7.869zM46.54 77.437l.907 45.251-44.623-7.868-.907-45.251 44.623 7.868zM96.922 86.787l.907 45.259-44.622-7.868-.907-45.259 44.622 7.868zM200.835 207.406l.908 45.258-44.631-7.869-.907-45.259 44.63 7.87zM148.717 147.321l.908 45.251-44.623-7.869-.907-45.251 44.622 7.869zM198.424 54.234l.907 45.251-44.631-7.87-.907-45.25 44.631 7.869zM199.837 156.411l.907 45.25-44.631-7.869-.907-45.251 44.631 7.87zM199.422 105.229l.908 45.259-44.631-7.87-.907-45.258 44.63 7.869zM46.954 128.611l.907 45.258L3.23 166l-.907-45.259 44.631 7.87zM45.541 26.434l.907 45.259-44.631-7.87L.91 18.565l44.631 7.869z"/></g></svg>