<svg viewBox="0 0 730 255" xmlns="http://www.w3.org/2000/svg"><path d="M70.482 161.129l.908 45.259-44.623-7.868-.907-45.259 44.622 7.868z" fill="#ffd65d"/><path d="M3.806 217.848l-.45-.079 22.53-17.485.45.08-22.53 17.484z" fill="#7684ca"/><path d="M70.914 161.286l.442.078.009.457.926 46.181.009.466-.442-.078-45.522-8.026-.45-.079-.009-.466-.926-46.182-.009-.457.45.079 45.522 8.027zm.476 46.102l-.907-45.259-44.623-7.868.907 45.259 44.623 7.868" fill="#6272c3"/><path d="M3.347 217.303l-.926-46.182 22.53-17.484.925 46.182-22.529 17.484z" fill="#7a88cc"/><path d="M2.421 171.121l-.009-.457 22.529-17.484.01.457-22.53 17.484zm.909.624l22.53-17.484.907 45.259-22.53 17.484-.907-45.259z" fill="#7a88cc"/><path d="M4.237 217.004l-.907-45.259 22.53-17.484.907 45.259-22.53 17.484z" fill="#fd7"/><path d="M2.412 170.664l22.529-17.484.451.079-22.53 17.484-.45-.079zm46.916 55.21l-45.522-8.026 22.53-17.484 45.522 8.026-22.53 17.484z" fill="#7684ca"/><path d="M48.86 224.872l-44.623-7.868 22.53-17.484 44.623 7.868-22.53 17.484z" fill="#ffdc72"/><path d="M4.237 217.004l22.53-17.484 44.623 7.868-22.53 17.484-44.623-7.868zm45.533 8.948l-.442-.078 22.53-17.484.442.078-22.53 17.484z" fill="#7684ca"/><path d="M49.761 225.487l22.53-17.485.009.466-22.53 17.484-.009-.465z" fill="#7a88cc"/><path d="M47.953 179.614L3.33 171.745l22.53-17.484 44.622 7.868-22.529 17.485z" fill="#7684ca"/><path d="M3.33 171.745l22.53-17.484 44.622 7.868-22.529 17.485-44.623-7.869z" fill="#ffdc72"/><path d="M48.86 224.872l-.907-45.258 22.529-17.485.908 45.259-22.53 17.484z" fill="#7a88cc"/><path d="M47.953 179.614l22.529-17.485.908 45.259-22.53 17.484-.907-45.258z" fill="#fd7"/><path d="M48.384 178.771l.442.078.009.457.926 46.181.009.466-.442-.078-45.522-8.026-.45-.079-.009-.466-.926-46.182-.009-.457.45.079 45.522 8.027zm.476 46.101l-.907-45.259-44.623-7.868.907 45.259 44.623 7.868" fill="#6272c3"/><path d="M47.953 179.614l.907 45.258-44.623-7.868-.907-45.259 44.623 7.869z" fill="#ffd65d"/><path d="M2.862 170.743l22.53-17.484 45.522 8.027-22.53 17.485-45.522-8.028z" fill="#7684ca"/><path d="M48.835 179.306l22.53-17.484.926 46.18-22.53 17.485-.926-46.181z" fill="#7a88cc"/><path d="M48.384 178.771l22.53-17.485.441.079-22.529 17.484-.442-.078z" fill="#7684ca"/><path d="M48.826 178.849l22.529-17.484.01.457-22.53 17.484-.009-.457zm4.912 48.271l-.009-.465 22.529-17.485.01.466-22.53 17.484z" fill="#7a88cc"/><path d="M54.188 227.199l-.45-.079 22.53-17.484.45.079-22.53 17.484z" fill="#7684ca"/><path d="M121.295 170.638l.442.078.009.465.926 46.173.009.466-.442-.078-45.522-8.026-.45-.079-.009-.466-.925-46.173-.01-.466.45.079 45.522 8.027zm.476 46.102l-.907-45.259-44.623-7.868.907 45.259 44.623 7.868" fill="#6272c3"/><path d="M53.729 226.655l-.926-46.173 22.53-17.485.925 46.173-22.529 17.485z" fill="#7a88cc"/><path d="M52.803 180.482l-.009-.466 22.529-17.484.01.465-22.53 17.485zm.909.615l22.53-17.484.907 45.258-22.53 17.485-.907-45.259z" fill="#7a88cc"/><path d="M54.619 226.356l-.907-45.259 22.53-17.484.907 45.258-22.53 17.485z" fill="#7a9ec8"/><path d="M52.794 180.016l22.529-17.484.45.079-22.529 17.484-.45-.079zm46.916 55.21l-45.522-8.027 22.53-17.484 45.522 8.026-22.53 17.485z" fill="#7684ca"/><path d="M99.242 234.224l-44.623-7.868 22.53-17.485 44.622 7.869-22.529 17.484z" fill="#769ac7"/><path d="M54.619 226.356l22.53-17.485 44.622 7.869-22.529 17.484-44.623-7.868zm45.533 8.948l-.442-.078 22.53-17.485.442.079-22.53 17.484z" fill="#7684ca"/><path d="M100.143 234.838l22.529-17.484.01.466-22.53 17.484-.009-.466z" fill="#7a88cc"/><path d="M98.334 188.965l-44.622-7.868 22.53-17.484 44.622 7.868-22.53 17.484z" fill="#7684ca"/><path d="M53.712 181.097l22.53-17.484 44.622 7.868-22.53 17.484-44.622-7.868z" fill="#769ac7"/><path d="M99.242 234.224l-.908-45.259 22.53-17.484.907 45.259-22.529 17.484z" fill="#7a88cc"/><path d="M98.334 188.965l22.53-17.484.907 45.259-22.529 17.484-.908-45.259z" fill="#7a9ec8"/><path d="M98.766 188.122l.442.077.009.466.925 46.173.009.466-.442-.078-45.522-8.026-.45-.079-.009-.466-.926-46.173-.009-.466.45.079 45.523 8.027zm.476 46.102l-.907-45.259-44.623-7.868.907 45.259 44.623 7.868" fill="#6272c3"/><path d="M98.334 188.965l.908 45.259-44.623-7.868-.907-45.259 44.622 7.868z" fill="#628cbe"/><path d="M53.244 180.095l22.529-17.484 45.522 8.027-22.529 17.484-45.522-8.027z" fill="#7684ca"/><path d="M99.217 188.665l22.53-17.484.925 46.173-22.529 17.484-.926-46.173z" fill="#7a88cc"/><path d="M98.766 188.122l22.529-17.484.442.078-22.529 17.483-.442-.077z" fill="#7684ca"/><path d="M99.208 188.199l22.529-17.483.01.465-22.53 17.484-.009-.466zm5.92 48.272l-.009-.465 22.529-17.484.009.465-22.529 17.484z" fill="#7a88cc"/><path d="M105.57 236.549l-.442-.078 22.529-17.484.443.078-22.53 17.484z" fill="#7684ca"/><path d="M172.677 179.988l.441.078.009.465.926 46.174.009.465-.441-.078-45.522-8.026-.442-.078-.009-.465-.925-46.174-.009-.465.442.078 45.521 8.026zm.476 46.101l-.907-45.258-44.623-7.868.908 45.259 44.622 7.867" fill="#6272c3"/><path d="M105.119 236.006l-.926-46.174 22.53-17.484.925 46.174-22.529 17.484z" fill="#7a88cc"/><path d="M104.193 189.832l-.009-.465 22.529-17.484.01.465-22.53 17.484zm.901.616l22.529-17.485.908 45.259-22.53 17.483-.907-45.257z" fill="#7a88cc"/><path d="M106.001 235.705l-.907-45.257 22.53-17.485.907 45.259-22.53 17.483z" fill="#7a9ec8"/><path d="M104.184 189.367l22.529-17.484.442.078-22.53 17.485-.441-.079zm46.908 55.208l-45.522-8.026 22.53-17.484 45.522 8.026-22.53 17.484z" fill="#7684ca"/><path d="M106.001 235.705l22.53-17.483 44.622 7.867-22.529 17.484-44.623-7.868z" fill="#7684ca"/><path d="M150.624 243.573l-44.623-7.868 22.53-17.483 44.622 7.867-22.529 17.484z" fill="#769ac7"/><path d="M151.533 244.654l-.441-.079 22.53-17.484.441.078-22.53 17.485z" fill="#7684ca"/><path d="M151.524 244.189l22.53-17.485.009.465-22.53 17.485-.009-.465z" fill="#7a88cc"/><path d="M149.716 198.316l.908 45.257-44.623-7.868-.907-45.257 44.622 7.868z" fill="#628cbe"/><path d="M149.716 198.316l-44.622-7.868 22.529-17.485 44.623 7.868-22.53 17.485z" fill="#7684ca"/><path d="M105.094 190.448l22.53-17.485 44.622 7.868-22.53 17.485-44.622-7.868z" fill="#769ac7"/><path d="M149.716 198.316l22.53-17.485.907 45.258-22.529 17.484-.908-45.257z" fill="#7a9ec8"/><path d="M150.624 243.573l-.908-45.257 22.53-17.485.907 45.258-22.529 17.484z" fill="#7a88cc"/><path d="M104.625 189.446l22.53-17.485 45.522 8.027-22.53 17.484-45.522-8.026z" fill="#7684ca"/><path d="M150.599 198.015l22.529-17.484.926 46.173-22.53 17.485-.925-46.174z" fill="#7a88cc"/><path d="M150.147 197.472l22.53-17.484.442.078-22.53 17.484-.442-.078z" fill="#7684ca"/><path d="M150.589 197.55l22.53-17.484.009.465-22.529 17.484-.01-.465z" fill="#7a88cc"/><path d="M150.147 197.472l.441.078.01.465.925 46.174.009.465-.441-.078-45.522-8.026-.442-.078-.009-.465-.926-46.174-.009-.465.442.078 45.522 8.026zm.477 46.101l-.907-45.258-44.623-7.868.907 45.258 44.623 7.868" fill="#6272c3"/><path d="M69.483 111.127l.908 45.258-44.631-7.869-.907-45.259 44.63 7.87z" fill="#ffd65d"/><path d="M2.357 166.765l-.009-.465 22.529-17.484.01.465-22.53 17.484z" fill="#7a88cc"/><path d="M2.807 166.845l-.45-.08 22.53-17.484.45.08-22.53 17.484z" fill="#7684ca"/><path d="M69.907 110.282l.45.079.009.465.926 46.173.009.466-.45-.079-45.514-8.025-.45-.08-.009-.465-.925-46.173-.009-.465.45.08 45.513 8.024zm.484 46.103l-.907-45.258-44.631-7.87.908 45.259 44.63 7.869" fill="#6272c3"/><path d="M2.348 166.3l-.926-46.173 22.53-17.485.925 46.174L2.348 166.3zm-.926-46.173l-.009-.466 22.53-17.484.009.465-22.53 17.485z" fill="#7a88cc"/><path d="M2.323 120.741l22.53-17.484.907 45.259L3.23 166l-.907-45.259z" fill="#7a88cc"/><path d="M3.23 166l-.907-45.259 22.53-17.484.907 45.259L3.23 166z" fill="#fd7"/><path d="M1.413 119.661l22.53-17.484.45.08-22.53 17.483-.45-.079zm46.908 55.209l-45.514-8.025 22.53-17.484 45.514 8.025-22.53 17.484z" fill="#7684ca"/><path d="M47.861 173.869L3.23 166l22.53-17.484 44.631 7.869-22.53 17.484z" fill="#ffdc72"/><path d="M3.23 166l22.53-17.484 44.631 7.869-22.53 17.484L3.23 166zm45.541 8.949l-.45-.079 22.53-17.484.45.079-22.53 17.484z" fill="#7684ca"/><path d="M48.762 174.484l22.53-17.485.009.466-22.53 17.484-.009-.465z" fill="#7a88cc"/><path d="M46.954 128.611l.907 45.258L3.23 166l-.907-45.259 44.631 7.87z" fill="#ffd65d"/><path d="M2.323 120.741l22.53-17.484 44.63 7.87-22.529 17.484-44.631-7.87z" fill="#ffdc72"/><path d="M46.954 128.611l-44.631-7.87 22.53-17.484 44.63 7.87-22.529 17.484z" fill="#7684ca"/><path d="M47.861 173.869l-.907-45.258 22.529-17.484.908 45.258-22.53 17.484z" fill="#7a88cc"/><path d="M46.954 128.611l22.529-17.484.908 45.258-22.53 17.484-.907-45.258z" fill="#fd7"/><path d="M1.863 119.74l22.53-17.483 45.514 8.025-22.53 17.484-45.514-8.026z" fill="#7684ca"/><path d="M47.836 128.311l22.53-17.485.926 46.173-22.53 17.485-.926-46.173z" fill="#7a88cc"/><path d="M47.377 127.766l22.53-17.484.449.079-22.529 17.484-.45-.079z" fill="#7684ca"/><path d="M47.827 127.845l22.529-17.484.01.465-22.53 17.485-.009-.466z" fill="#7a88cc"/><path d="M47.377 127.766l.45.08.009.465.925 46.173.009.466-.45-.079-45.514-8.025-.45-.08-.009-.465-.926-46.173-.009-.465.45.079 45.515 8.024zm.484 46.103l-.907-45.259-44.63-7.869L3.231 166l44.63 7.869" fill="#6272c3"/><path d="M52.739 176.116l-.009-.465 22.529-17.485.01.466-22.53 17.484z" fill="#7a88cc"/><path d="M53.189 176.197l-.45-.081 22.53-17.484.45.08-22.53 17.485z" fill="#7684ca"/><path d="M52.73 175.651l-.926-46.173 22.53-17.485.925 46.173-22.529 17.485z" fill="#7a88cc"/><path d="M52.705 130.093l22.529-17.485.908 45.259-22.53 17.485-.907-45.259z" fill="#7a88cc"/><path d="M53.612 175.352l-.907-45.259 22.53-17.485.907 45.259-22.53 17.485z" fill="#7a9ec8"/><path d="M121.673 166.351l-.925-46.174-.01-.465-.449-.079-45.515-8.025-.45-.08.01.465.026 1.294.874-.679 44.631 7.87.907 45.259-44.63-7.87-.875.679.002.086.45.08 45.514 8.026.45.079-.01-.466z" fill="#6272c3"/><path d="M51.804 129.478l-.009-.466 22.529-17.484.01.465-22.53 17.485z" fill="#7a88cc"/><path d="M51.795 129.012l22.529-17.484.45.08-22.529 17.484-.45-.08zm46.908 55.21l-45.514-8.025 22.53-17.485 45.514 8.026-22.53 17.484z" fill="#7684ca"/><path d="M98.243 183.221l-44.631-7.869 22.53-17.485 44.63 7.87-22.529 17.484z" fill="#769ac7"/><path d="M53.612 175.352l22.53-17.485 44.63 7.87-22.529 17.484-44.631-7.869zm45.541 8.949l-.45-.079 22.53-17.484.45.079-22.53 17.484z" fill="#7684ca"/><path d="M99.144 183.834l22.529-17.483.01.466-22.53 17.484-.009-.467z" fill="#7a88cc"/><path d="M97.335 137.962l-44.63-7.869 22.529-17.485 44.631 7.87-22.53 17.484z" fill="#7684ca"/><path d="M52.705 130.093l22.53-17.485 44.63 7.87-22.53 17.484-44.63-7.869z" fill="#769ac7"/><path d="M98.243 183.221l-.908-45.259 22.53-17.484.907 45.259-22.529 17.484z" fill="#7a88cc"/><path d="M97.335 137.962l22.53-17.484.907 45.259-22.529 17.484-.908-45.259z" fill="#7a9ec8"/><path d="M97.759 137.117l.45.079.009.465.925 46.172.009.467-.45-.079-45.514-8.025-.45-.08-.009-.466-.926-46.173-.009-.465.45.08 45.515 8.025zm.484 46.104l-.907-45.259-44.63-7.87.907 45.259 44.63 7.87" fill="#6272c3"/><path d="M97.335 137.962l.908 45.259-44.631-7.869-.907-45.259 44.63 7.869z" fill="#628cbe"/><path d="M52.245 129.092l22.529-17.484 45.515 8.025-22.53 17.484-45.514-8.025z" fill="#7684ca"/><path d="M98.218 137.662l22.53-17.485.925 46.174-22.529 17.483-.926-46.172z" fill="#7a88cc"/><path d="M97.759 137.117l22.53-17.484.449.079-22.529 17.485-.45-.08z" fill="#7684ca"/><path d="M98.209 137.197l22.529-17.485.01.465-22.53 17.485-.009-.465z" fill="#7a88cc"/><path d="M69.069 59.953l.908 45.25-44.623-7.868-.907-45.25 44.622 7.868z" fill="#ffd65d"/><path d="M1.943 115.592l-.009-.466 22.529-17.484.01.465-22.53 17.485z" fill="#7a88cc"/><path d="M2.393 115.671l-.45-.079 22.53-17.485.45.08-22.53 17.484z" fill="#7684ca"/><path d="M69.5 59.11l.442.078.009.458.926 46.181.009.465-.442-.078-45.522-8.026-.45-.08-.009-.465-.926-46.181-.009-.458.45.08L69.5 59.11zm.477 46.093l-.907-45.25-44.623-7.868.907 45.25 44.623 7.868" fill="#6272c3"/><path d="M1.934 115.126l-.926-46.181 22.53-17.484.925 46.181-22.529 17.484zm-.926-46.181l-.009-.457 22.53-17.485.009.458-22.53 17.484z" fill="#7a88cc"/><path d="M1.917 69.569l22.53-17.484.907 45.25-22.53 17.485-.907-45.251z" fill="#7a88cc"/><path d="M2.824 114.82l-.907-45.251 22.53-17.484.907 45.25-22.53 17.485z" fill="#fd7"/><path d="M.999 68.488l22.53-17.485.45.08-22.53 17.484-.45-.079zm46.916 55.21l-45.522-8.027 22.53-17.484 45.522 8.026-22.53 17.485z" fill="#7684ca"/><path d="M2.824 114.82l22.53-17.485 44.623 7.868-22.53 17.485-44.623-7.868z" fill="#7684ca"/><path d="M47.447 122.688L2.824 114.82l22.53-17.485 44.623 7.868-22.53 17.485z" fill="#ffdc72"/><path d="M48.357 123.776l-.442-.078 22.53-17.485.442.078-22.53 17.485z" fill="#7684ca"/><path d="M48.348 123.31l22.529-17.484.01.465-22.53 17.485-.009-.466z" fill="#7a88cc"/><path d="M1.917 69.569l22.53-17.484 44.622 7.868L46.54 77.437 1.917 69.569z" fill="#ffdc72"/><path d="M46.54 77.437L1.917 69.569l22.53-17.484 44.622 7.868L46.54 77.437z" fill="#7684ca"/><path d="M47.447 122.688l-.907-45.251 22.529-17.484.908 45.25-22.53 17.485z" fill="#7a88cc"/><path d="M46.54 77.437l22.529-17.484.908 45.25-22.53 17.485-.907-45.251z" fill="#fd7"/><path d="M46.971 76.594l.442.078.009.457.926 46.182.009.465-.442-.078-45.522-8.027-.45-.079-.009-.465-.926-46.181-.009-.458.45.08 45.522 8.026zm.476 46.094l-.907-45.251-44.623-7.868.907 45.251 44.623 7.868" fill="#6272c3"/><path d="M46.54 77.437l.907 45.251-44.623-7.868-.907-45.251 44.623 7.868z" fill="#ffd65d"/><path d="M1.449 68.567l22.53-17.484L69.5 59.11 46.971 76.594 1.449 68.567z" fill="#7684ca"/><path d="M47.422 77.129l22.53-17.484.925 46.181-22.529 17.484-.926-46.181z" fill="#7a88cc"/><path d="M46.971 76.594L69.5 59.11l.442.077-22.529 17.485-.442-.078z" fill="#7684ca"/><path d="M47.413 76.672l22.529-17.485.01.458-22.53 17.484-.009-.457z" fill="#7a88cc"/><path d="M119.883 68.46l.441.078.009.466.926 46.173.009.466-.441-.078-45.523-8.027-.441-.078-.009-.466-.925-46.173-.01-.465.442.078 45.522 8.026zm.476 46.102l-.907-45.259-44.623-7.868.908 45.259 44.622 7.868" fill="#6272c3"/><path d="M119.452 69.303l.907 45.259-44.622-7.868-.907-45.259 44.622 7.868z" fill="#ffd65d"/><path d="M52.334 124.944l-.009-.466 22.529-17.485.009.466-22.529 17.485z" fill="#7a88cc"/><path d="M52.775 125.021l-.441-.077 22.529-17.485.442.078-22.53 17.484z" fill="#7684ca"/><path d="M52.325 124.478l-.926-46.173 22.53-17.484.925 46.172-22.529 17.485z" fill="#7a88cc"/><path d="M51.399 78.305l-.009-.465 22.529-17.485.01.466-22.53 17.484zm.901.614l22.529-17.484.908 45.259-22.53 17.484-.907-45.259z" fill="#7a88cc"/><path d="M53.207 124.178L52.3 78.919l22.53-17.484.907 45.259-22.53 17.484z" fill="#fd7"/><path d="M51.39 77.84l22.529-17.485.442.078-22.53 17.484-.441-.077zm46.908 55.208l-45.523-8.027 22.53-17.484 45.523 8.027-22.53 17.484z" fill="#7684ca"/><path d="M97.829 132.046l-44.622-7.868 22.53-17.484 44.622 7.868-22.53 17.484z" fill="#ffdc72"/><path d="M53.207 124.178l22.53-17.484 44.622 7.868-22.53 17.484-44.622-7.868zm45.532 8.948l-.441-.078 22.53-17.484.441.078-22.53 17.484z" fill="#7684ca"/><path d="M98.73 132.66l22.53-17.484.009.466-22.53 17.484-.009-.466z" fill="#7a88cc"/><path d="M96.922 86.787l.907 45.259-44.622-7.868-.907-45.259 44.622 7.868z" fill="#ffd65d"/><path d="M96.922 86.787L52.3 78.919l22.529-17.484 44.623 7.868-22.53 17.484z" fill="#7684ca"/><path d="M52.3 78.919l22.53-17.484 44.622 7.868-22.53 17.484L52.3 78.919z" fill="#ffdc72"/><path d="M97.829 132.046l-.907-45.259 22.53-17.484.907 45.259-22.53 17.484z" fill="#7a88cc"/><path d="M96.922 86.787l22.53-17.484.907 45.259-22.53 17.484-.907-45.259z" fill="#fd7"/><path d="M51.831 77.917l22.53-17.484 45.522 8.027-22.529 17.484-45.523-8.027z" fill="#7684ca"/><path d="M97.805 86.488l22.529-17.485.926 46.173-22.53 17.484-.925-46.172z" fill="#7a88cc"/><path d="M97.354 85.944l22.529-17.484.442.077-22.53 17.485-.441-.078z" fill="#7684ca"/><path d="M97.795 86.022l22.53-17.485.009.466-22.529 17.485-.01-.466z" fill="#7a88cc"/><path d="M97.354 85.944l.441.078.01.466.925 46.173.009.465-.441-.078-45.522-8.027-.441-.078-.009-.466-.926-46.173-.009-.465.441.078 45.522 8.027zm.475 46.102l-.907-45.259L52.3 78.919l.907 45.259 44.622 7.868M68.494 8.105l.45.079.009.465.926 46.173.009.465-.45-.079-45.514-8.025-.45-.08-.009-.465L22.54.465 22.53 0l.45.08 45.514 8.025zm.484 46.103L68.07 8.95 23.44 1.08l.907 45.259 44.631 7.869" fill="#6272c3"/><path d="M68.07 8.95l.908 45.258-44.631-7.869L23.44 1.08l44.63 7.87z" fill="#ffd65d"/><path d="M.944 64.589l-.009-.466 22.529-17.484.01.465L.944 64.589z" fill="#7a88cc"/><path d="M1.394 64.668l-.45-.079 22.53-17.485.45.08-22.53 17.484z" fill="#7684ca"/><path d="M.935 64.123L.009 17.95 22.539.466l.925 46.173L.935 64.123z" fill="#7a88cc"/><path d="M.009 17.95L0 17.485 22.529 0l.01.466L.009 17.95z" fill="#7a88cc"/><path d="M1.817 63.823L.91 18.565 23.44 1.08l.907 45.259-22.53 17.484z" fill="#fd7"/><path d="M.91 18.565L23.44 1.08l.907 45.259-22.53 17.484L.91 18.565z" fill="#7a88cc"/><path d="M0 17.485L22.529 0l.45.08L.45 17.564 0 17.485zm46.908 55.208L1.394 64.668l22.53-17.484 45.514 8.025-22.53 17.484z" fill="#7684ca"/><path d="M46.448 71.693l-44.631-7.87 22.53-17.484 44.631 7.869-22.53 17.485z" fill="#ffdc72"/><path d="M1.817 63.823l22.53-17.484 44.631 7.869-22.53 17.485-44.631-7.87zm45.541 8.95l-.45-.08 22.53-17.484.45.079-22.53 17.485z" fill="#7684ca"/><path d="M47.349 72.307l22.529-17.484.01.465-22.53 17.485-.009-.466zm-.901-.614l-.907-45.259L68.07 8.95l.908 45.258-22.53 17.485z" fill="#7a88cc"/><path d="M.91 18.565L23.44 1.08l44.63 7.87-22.529 17.484L.91 18.565z" fill="#ffdc72"/><path d="M45.541 26.434L.91 18.565 23.44 1.08l44.63 7.87-22.529 17.484z" fill="#7684ca"/><path d="M45.541 26.434l.907 45.259-44.631-7.87L.91 18.565l44.631 7.869z" fill="#ffd65d"/><path d="M45.541 26.434L68.07 8.95l.908 45.258-22.53 17.485-.907-45.259z" fill="#fd7"/><path d="M.45 17.564L22.979.08l45.515 8.025-22.53 17.484L.45 17.564z" fill="#7684ca"/><path d="M46.423 26.134L68.953 8.65l.925 46.173-22.529 17.484-.926-46.173z" fill="#7a88cc"/><path d="M45.964 25.589l22.53-17.484.449.079-22.529 17.485-.45-.08z" fill="#7684ca"/><path d="M46.414 25.669L68.943 8.184l.01.466-22.53 17.484-.009-.465z" fill="#7a88cc"/><path d="M45.964 25.589l.45.08.009.465.925 46.173.009.465-.45-.08-45.514-8.025-.45-.079-.009-.465L.009 17.95 0 17.485l.45.079 45.514 8.025zm.484 46.104l-.907-45.259L.91 18.565l.907 45.258 44.631 7.87" fill="#6272c3"/><path d="M51.326 73.94l-.009-.457 22.53-17.485.008.458L51.326 73.94z" fill="#7a88cc"/><path d="M51.776 74.019l-.45-.079 22.529-17.484.451.079-22.53 17.484z" fill="#7684ca"/><path d="M118.884 17.466l.441.078.009.458.926 46.181.009.458-.441-.078-45.522-8.027-.45-.079-.009-.458-.926-46.181-.009-.458.45.08 45.522 8.026zm.475 46.094l-.907-45.25-44.622-7.869.907 45.25 44.622 7.869" fill="#6272c3"/><path d="M51.317 73.483l-.926-46.181 22.53-17.485.926 46.181-22.53 17.485z" fill="#7a88cc"/><path d="M50.391 27.302l-.009-.458L72.912 9.36l.009.457-22.53 17.485zm.909.624l22.53-17.485.907 45.251-22.529 17.484-.908-45.25z" fill="#7a88cc"/><path d="M52.208 73.176l-.908-45.25 22.53-17.485.907 45.251-22.529 17.484z" fill="#7a9ec8"/><path d="M50.382 26.844L72.912 9.36l.45.079-22.53 17.485-.45-.08zm46.916 55.202l-45.522-8.027 22.53-17.484 45.522 8.027-22.53 17.484z" fill="#7684ca"/><path d="M52.208 73.176l22.529-17.484 44.622 7.868L96.83 81.044l-44.622-7.868z" fill="#7684ca"/><path d="M96.83 81.044l-44.622-7.868 22.529-17.484 44.622 7.868L96.83 81.044z" fill="#769ac7"/><path d="M97.74 82.124l-.442-.078 22.53-17.484.442.078-22.53 17.484z" fill="#7684ca"/><path d="M97.73 81.667l22.53-17.485.01.458-22.53 17.484-.01-.457z" fill="#7a88cc"/><path d="M95.923 35.794l.907 45.25-44.622-7.868-.908-45.25 44.623 7.868z" fill="#628cbe"/><path d="M95.922 35.794L51.3 27.926l22.53-17.485 44.622 7.868-22.53 17.485z" fill="#7684ca"/><path d="M51.3 27.926l22.53-17.485 44.622 7.868-22.529 17.485L51.3 27.926z" fill="#769ac7"/><path d="M96.83 81.044l-.908-45.25 22.53-17.485.907 45.251L96.83 81.044z" fill="#7a88cc"/><path d="M95.923 35.794l22.529-17.485.907 45.251L96.83 81.044l-.907-45.25z" fill="#7a9ec8"/><path d="M50.832 26.924l22.53-17.485 45.522 8.027-22.53 17.484-45.522-8.026z" fill="#7684ca"/><path d="M96.805 35.486l22.529-17.485.926 46.181-22.53 17.485-.925-46.181z" fill="#7a88cc"/><path d="M96.354 34.95l22.53-17.484.441.078-22.529 17.484-.442-.078z" fill="#7684ca"/><path d="M96.796 35.028l22.529-17.484.009.457-22.529 17.485-.009-.458z" fill="#7a88cc"/><path d="M96.354 34.95l.441.078.009.458.926 46.181.009.458-.441-.078-45.522-8.027-.45-.079-.009-.458-.926-46.181-.009-.458.45.08 45.522 8.026zm.476 46.094l-.908-45.25L51.3 27.926l.907 45.25 44.623 7.868" fill="#6272c3"/><path d="M223.365 189.921l.907 45.259-44.63-7.869-.907-45.259 44.63 7.869z" fill="#ffd65d"/><path d="M156.239 245.56l-.009-.465 22.529-17.484.01.465-22.53 17.484z" fill="#7a88cc"/><path d="M156.689 245.64l-.45-.08 22.53-17.484.45.08-22.53 17.484z" fill="#7684ca"/><path d="M156.23 245.095l-.926-46.173 22.53-17.484.925 46.173-22.529 17.484z" fill="#7a88cc"/><path d="M156.205 199.536l22.529-17.484.908 45.259-22.53 17.484-.907-45.259z" fill="#7a88cc"/><path d="M157.112 244.795l-.907-45.259 22.53-17.484.907 45.259-22.53 17.484z" fill="#fd7"/><path d="M225.173 235.794l-.925-46.173-.01-.464-.449-.081-45.515-8.025-.45-.079.01.466.026 1.293.874-.679 44.631 7.869.907 45.259-44.63-7.869-.875.679.002.086.45.08 45.514 8.025.45.079-.01-.466z" fill="#6272c3"/><path d="M155.304 198.922l-.009-.466 22.529-17.484.01.466-22.53 17.484z" fill="#7a88cc"/><path d="M155.295 198.456l22.529-17.484.45.079-22.529 17.484-.45-.079zm46.908 55.209l-45.514-8.025 22.53-17.484 45.514 8.025-22.53 17.484z" fill="#7684ca"/><path d="M201.743 252.664l-44.631-7.869 22.53-17.484 44.63 7.869-22.529 17.484z" fill="#ffdc72"/><path d="M157.112 244.795l22.53-17.484 44.63 7.869-22.529 17.484-44.631-7.869zm45.541 8.949l-.45-.079 22.53-17.484.45.079-22.53 17.484z" fill="#7684ca"/><path d="M202.644 253.279l22.529-17.485.01.466-22.53 17.484-.009-.465z" fill="#7a88cc"/><path d="M200.835 207.406l.908 45.258-44.631-7.869-.907-45.259 44.63 7.87z" fill="#ffd65d"/><path d="M200.835 207.406l-44.63-7.87 22.529-17.484 44.631 7.869-22.53 17.485z" fill="#7684ca"/><path d="M156.205 199.536l22.53-17.484 44.63 7.869-22.53 17.485-44.63-7.87z" fill="#ffdc72"/><path d="M201.743 252.664l-.908-45.258 22.53-17.485.907 45.259-22.529 17.484z" fill="#7a88cc"/><path d="M200.835 207.406l22.53-17.485.907 45.259-22.529 17.484-.908-45.258z" fill="#fd7"/><path d="M155.745 198.535l22.529-17.484 45.515 8.025-22.53 17.485-45.514-8.026z" fill="#7684ca"/><path d="M201.718 207.106l22.53-17.485.925 46.173-22.529 17.485-.926-46.173z" fill="#7a88cc"/><path d="M201.259 206.561l22.53-17.485.449.08-22.529 17.484-.45-.079z" fill="#7684ca"/><path d="M201.709 206.64l22.529-17.484.01.465-22.53 17.485-.009-.466z" fill="#7a88cc"/><path d="M201.259 206.561l.45.079.009.466.925 46.173.009.466-.45-.079-45.514-8.025-.45-.08-.009-.465-.926-46.173-.009-.466.45.079 45.515 8.025zm.484 46.103l-.907-45.259-44.63-7.869.907 45.259 44.63 7.869m-30.065-123.671l.442.078.009.457.926 46.181.009.458-.442-.078-45.522-8.027-.442-.077-.009-.458-.926-46.181-.009-.457.442.078 45.522 8.026zm.476 46.094l-.907-45.251-44.623-7.868.907 45.251 44.623 7.868" fill="#6272c3"/><path d="M171.247 129.836l.907 45.251-44.623-7.868-.906-45.251 44.622 7.868z" fill="#ffd65d"/><path d="M104.129 185.469l-.009-.458 22.529-17.484.009.458-22.529 17.484z" fill="#7a88cc"/><path d="M104.571 185.546l-.442-.077 22.529-17.484.442.077-22.529 17.484z" fill="#7684ca"/><path d="M104.12 185.011l-.926-46.181 22.53-17.485.925 46.182-22.529 17.484z" fill="#7a88cc"/><path d="M103.194 138.83l-.009-.457 22.529-17.485.01.457-22.53 17.485zm.901.622l22.53-17.484.906 45.251-22.529 17.484-.907-45.251z" fill="#7a88cc"/><path d="M105.002 184.703l-.907-45.251 22.53-17.484.906 45.251-22.529 17.484z" fill="#fd7"/><path d="M103.185 138.373l22.529-17.485.442.078-22.53 17.484-.441-.077zm46.908 55.2l-45.522-8.027 22.529-17.484 45.523 8.027-22.53 17.484z" fill="#7684ca"/><path d="M149.625 192.572l-44.623-7.869 22.529-17.484 44.623 7.868-22.529 17.485z" fill="#ffdc72"/><path d="M105.002 184.703l22.529-17.484 44.623 7.868-22.529 17.485-44.623-7.869zm45.533 8.949l-.442-.079 22.53-17.484.441.078-22.529 17.485z" fill="#7684ca"/><path d="M150.525 193.194l22.53-17.485.009.458-22.529 17.485-.01-.458z" fill="#7a88cc"/><path d="M104.095 139.452l22.53-17.484 44.622 7.868-22.53 17.485-44.622-7.869z" fill="#ffdc72"/><path d="M148.717 147.321l-44.622-7.869 22.53-17.484 44.622 7.868-22.53 17.485z" fill="#7684ca"/><path d="M149.625 192.572l-.908-45.251 22.53-17.485.907 45.251-22.529 17.485z" fill="#7a88cc"/><path d="M148.717 147.321l22.53-17.485.907 45.251-22.529 17.485-.908-45.251z" fill="#fd7"/><path d="M149.149 146.477l.442.078.009.458.926 46.181.009.458-.442-.078-45.522-8.027-.442-.077-.009-.458-.926-46.181-.009-.457.442.078 45.522 8.025zm.476 46.095l-.907-45.251-44.623-7.868.907 45.251 44.623 7.868" fill="#6272c3"/><path d="M148.717 147.321l.908 45.251-44.623-7.869-.907-45.251 44.622 7.869z" fill="#ffd65d"/><path d="M103.626 138.45l22.53-17.484 45.522 8.027-22.529 17.484-45.523-8.027z" fill="#7684ca"/><path d="M149.6 147.013l22.529-17.485.926 46.181-22.53 17.485-.925-46.181z" fill="#7a88cc"/><path d="M149.149 146.477l22.529-17.484.442.078-22.529 17.484-.442-.078z" fill="#7684ca"/><path d="M149.591 146.555l22.529-17.484.009.457-22.529 17.485-.009-.458z" fill="#7a88cc"/><path d="M171.264 77.81l.442.078.009.466.926 46.181.009.457-.442-.078-45.522-8.027-.442-.078-.009-.457-.926-46.181-.009-.466.442.078 45.522 8.027zm.476 46.103l-.907-45.25-44.623-7.869.907 45.25 44.623 7.869" fill="#6272c3"/><path d="M103.715 134.294l-.009-.457 22.529-17.484.009.457-22.529 17.484z" fill="#7a88cc"/><path d="M104.157 134.372l-.442-.078 22.529-17.484.443.078-22.53 17.484z" fill="#7684ca"/><path d="M103.706 133.837l-.926-46.181 22.53-17.484.925 46.181-22.529 17.484zm-.926-46.181l-.009-.466L125.3 69.706l.01.466-22.53 17.484z" fill="#7a88cc"/><path d="M104.588 133.529l-.907-45.25 22.529-17.485.908 45.251-22.53 17.484z" fill="#7a9ec8"/><path d="M103.681 88.279l22.529-17.485.908 45.251-22.53 17.484-.907-45.25z" fill="#7a88cc"/><path d="M102.771 87.19L125.3 69.706l.442.077-22.53 17.485-.441-.078zm46.908 55.209l-45.522-8.027 22.53-17.484 45.521 8.027-22.529 17.484z" fill="#7684ca"/><path d="M149.21 141.397l-44.622-7.868 22.53-17.484 44.622 7.868-22.53 17.484z" fill="#769ac7"/><path d="M104.588 133.529l22.53-17.484 44.622 7.868-22.53 17.484-44.622-7.868zm45.533 8.948l-.442-.078 22.529-17.484.442.077-22.529 17.485z" fill="#7684ca"/><path d="M150.112 142.02l22.529-17.485.009.457-22.529 17.485-.009-.457z" fill="#7a88cc"/><path d="M148.304 96.147l.906 45.25-44.622-7.868-.907-45.25 44.623 7.868z" fill="#628cbe"/><path d="M148.304 96.147l-44.623-7.868 22.529-17.485 44.623 7.868-22.529 17.485z" fill="#7684ca"/><path d="M103.681 88.279l22.529-17.485 44.623 7.868-22.529 17.485-44.623-7.868z" fill="#769ac7"/><path d="M149.21 141.397l-.906-45.25 22.529-17.485.907 45.251-22.53 17.484z" fill="#7a88cc"/><path d="M148.304 96.147l22.529-17.485.907 45.251-22.53 17.484-.906-45.25z" fill="#7a9ec8"/><path d="M103.212 87.268l22.53-17.485 45.522 8.027-22.53 17.485-45.522-8.027z" fill="#7684ca"/><path d="M149.186 95.839l22.529-17.485.926 46.181-22.529 17.485-.926-46.181z" fill="#7a88cc"/><path d="M148.734 95.295l22.53-17.485.442.078-22.529 17.484-.443-.077z" fill="#7684ca"/><path d="M149.177 95.372l22.529-17.484.009.466-22.529 17.485-.009-.467z" fill="#7a88cc"/><path d="M148.734 95.295l.442.078.009.466.926 46.181.009.457-.442-.078-45.522-8.027-.442-.078-.009-.457-.926-46.181-.009-.466.442.078 45.522 8.027zm.476 46.102l-.907-45.25-44.623-7.868.907 45.25 44.623 7.868" fill="#6272c3"/><path d="M102.716 83.291l-.009-.457 22.529-17.484.009.457-22.529 17.484z" fill="#7a88cc"/><path d="M103.158 83.369l-.442-.078 22.529-17.484.442.078-22.529 17.484z" fill="#7684ca"/><path d="M170.265 26.816l.442.078.009.457.926 46.182.009.457-.442-.078-45.522-8.027-.442-.078-.009-.457-.926-46.182-.009-.457.442.078 45.522 8.027zm.476 46.094l-.907-45.251-44.623-7.868.907 45.251 44.623 7.868" fill="#6272c3"/><path d="M102.707 82.834l-.926-46.181 22.53-17.484.925 46.181-22.529 17.484zm-.926-46.181l-.01-.457 22.53-17.484.01.457-22.53 17.484z" fill="#7a88cc"/><path d="M102.682 37.276l22.529-17.485.907 45.251-22.529 17.484-.907-45.25z" fill="#7a88cc"/><path d="M103.589 82.526l-.907-45.25 22.529-17.485.908 45.251-22.53 17.484z" fill="#7a9ec8"/><path d="M101.771 36.196l22.53-17.484.442.077-22.53 17.485-.442-.078zm46.909 55.2l-45.522-8.027 22.529-17.484 45.522 8.027-22.529 17.484z" fill="#7684ca"/><path d="M103.589 82.526l22.529-17.484 44.623 7.868-22.53 17.485-44.622-7.869z" fill="#7684ca"/><path d="M148.211 90.394l-44.622-7.868 22.53-17.484 44.622 7.868-22.53 17.484z" fill="#769ac7"/><path d="M149.122 91.474l-.442-.078 22.529-17.484.442.078-22.529 17.484z" fill="#7684ca"/><path d="M149.112 91.017l22.53-17.484.009.457-22.529 17.484-.01-.457z" fill="#7a88cc"/><path d="M147.304 45.144l-44.622-7.868 22.529-17.485 44.623 7.868-22.53 17.485z" fill="#7684ca"/><path d="M148.211 90.395l-.907-45.251 22.53-17.485.907 45.251-22.53 17.485z" fill="#7a88cc"/><path d="M102.682 37.276l22.529-17.485 44.623 7.868-22.53 17.485-44.622-7.868z" fill="#769ac7"/><path d="M147.304 45.144l22.53-17.485.907 45.251-22.53 17.484-.907-45.25z" fill="#7a9ec8"/><path d="M147.736 44.301l.442.078.009.457.926 46.181.009.457-.442-.078-45.522-8.026-.442-.078-.009-.457-.926-46.181-.009-.457.442.078 45.522 8.026zm.475 46.094l-.907-45.251-44.623-7.868.907 45.25 44.623 7.869" fill="#6272c3"/><path d="M147.304 45.144l.907 45.25-44.622-7.868-.907-45.25 44.622 7.868z" fill="#628cbe"/><path d="M102.213 36.274l22.53-17.485 45.522 8.027-22.529 17.485-45.523-8.027z" fill="#7684ca"/><path d="M148.187 44.836l22.529-17.485.926 46.182-22.53 17.484-.925-46.181z" fill="#7a88cc"/><path d="M147.736 44.301l22.529-17.485.442.078-22.529 17.485-.442-.078z" fill="#7684ca"/><path d="M148.178 44.379l22.529-17.485.009.457-22.529 17.485-.009-.457z" fill="#7a88cc"/><path d="M222.366 138.927l.907 45.25-44.63-7.869-.907-45.251 44.63 7.87z" fill="#ffd65d"/><path d="M155.24 194.558l-.009-.458 22.53-17.485.009.458-22.53 17.485z" fill="#7a88cc"/><path d="M155.69 194.637l-.45-.079 22.53-17.485.45.08-22.53 17.484z" fill="#7684ca"/><path d="M222.79 138.074l.45.079.009.465.926 46.182.009.457-.45-.079-45.514-8.025-.45-.079-.009-.458-.926-46.181-.01-.465.45.08 45.515 8.024zm.483 46.103l-.907-45.25-44.63-7.87.907 45.251 44.63 7.869" fill="#6272c3"/><path d="M155.231 194.1l-.926-46.181 22.53-17.485.926 46.181-22.53 17.485z" fill="#7a88cc"/><path d="M154.305 147.919l-.009-.466 22.529-17.484.01.465-22.53 17.485zm.901.622l22.53-17.484.907 45.251-22.53 17.484-.907-45.251z" fill="#7a88cc"/><path d="M156.113 193.792l-.907-45.251 22.53-17.484.907 45.251-22.53 17.484z" fill="#fd7"/><path d="M154.296 147.453l22.529-17.484.45.08-22.529 17.483-.45-.079zm46.908 55.209l-45.514-8.025 22.53-17.484 45.514 8.025-22.53 17.484z" fill="#7684ca"/><path d="M156.113 193.792l22.53-17.484 44.63 7.869-22.529 17.484-44.631-7.869z" fill="#7684ca"/><path d="M200.744 201.661l-44.631-7.869 22.53-17.484 44.63 7.869-22.529 17.484z" fill="#ffdc72"/><path d="M201.654 202.741l-.45-.079 22.53-17.484.45.079-22.53 17.484z" fill="#7684ca"/><path d="M201.645 202.284l22.529-17.484.01.457-22.53 17.484-.009-.457z" fill="#7a88cc"/><path d="M199.837 156.411l-44.631-7.87 22.53-17.484 44.63 7.87-22.529 17.484z" fill="#7684ca"/><path d="M199.837 156.411l.907 45.25-44.631-7.869-.907-45.251 44.631 7.87z" fill="#ffd65d"/><path d="M155.206 148.541l22.53-17.484 44.63 7.87-22.529 17.484-44.631-7.87z" fill="#ffdc72"/><path d="M200.744 201.661l-.907-45.25 22.529-17.484.907 45.25-22.529 17.484z" fill="#7a88cc"/><path d="M199.837 156.411l22.529-17.484.907 45.25-22.529 17.484-.907-45.25z" fill="#fd7"/><path d="M154.746 147.532l22.529-17.483 45.515 8.025-22.53 17.484-45.514-8.026z" fill="#7684ca"/><path d="M200.719 156.103l22.53-17.485.925 46.182-22.529 17.484-.926-46.181z" fill="#7a88cc"/><path d="M200.26 155.558l22.53-17.484.449.079-22.529 17.485-.45-.08z" fill="#7684ca"/><path d="M200.71 155.638l22.529-17.485.01.465-22.53 17.485-.009-.465z" fill="#7a88cc"/><path d="M200.26 155.558l.45.08.009.465.926 46.182.009.457-.45-.079-45.514-8.025-.45-.079-.009-.458-.926-46.181-.009-.466.45.079 45.514 8.025zm.484 46.103l-.907-45.25-44.631-7.87.907 45.251 44.631 7.869" fill="#6272c3"/><path d="M221.952 87.745l.907 45.258-44.63-7.869-.907-45.259 44.63 7.87z" fill="#ffd65d"/><path d="M154.826 143.384l-.009-.466 22.529-17.484.009.465-22.529 17.485z" fill="#7a88cc"/><path d="M155.276 143.463l-.45-.079 22.529-17.485.451.08-22.53 17.484z" fill="#7684ca"/><path d="M222.384 86.902l.441.078.009.465.926 46.173.009.465-.441-.078-45.522-8.026-.45-.08-.009-.465-.925-46.173-.01-.465.451.08 45.521 8.026zm.475 46.101l-.907-45.258-44.631-7.87.908 45.259 44.63 7.869" fill="#6272c3"/><path d="M154.817 142.918l-.926-46.173 22.53-17.484.925 46.173-22.529 17.484zm-.926-46.173l-.009-.465 22.529-17.485.01.466-22.53 17.484z" fill="#7a88cc"/><path d="M154.792 97.36l22.529-17.485.908 45.259-22.53 17.484-.907-45.258z" fill="#7a88cc"/><path d="M155.699 142.618l-.907-45.258 22.53-17.485.907 45.259-22.53 17.484z" fill="#fd7"/><path d="M153.882 96.28l22.529-17.485.451.08-22.53 17.484-.45-.079zm46.916 55.21l-45.522-8.027 22.53-17.484 45.522 8.026-22.53 17.485z" fill="#7684ca"/><path d="M200.33 150.488l-44.631-7.87 22.53-17.484 44.63 7.869-22.529 17.485z" fill="#ffdc72"/><path d="M155.699 142.618l22.53-17.484 44.63 7.869-22.529 17.485-44.631-7.87zm45.541 8.95l-.442-.078 22.53-17.485.442.078-22.53 17.485z" fill="#7684ca"/><path d="M201.23 151.102l22.53-17.484.01.465-22.53 17.485-.01-.466z" fill="#7a88cc"/><path d="M199.422 105.229l.908 45.259-44.631-7.87-.907-45.258 44.63 7.869z" fill="#ffd65d"/><path d="M199.422 105.229l-44.63-7.869 22.529-17.485 44.631 7.87-22.53 17.484z" fill="#7684ca"/><path d="M154.792 97.36l22.53-17.485 44.63 7.87-22.53 17.484-44.63-7.869z" fill="#ffdc72"/><path d="M200.33 150.488l-.908-45.259 22.53-17.484.907 45.258-22.529 17.485z" fill="#7a88cc"/><path d="M199.422 105.229l22.53-17.484.907 45.258-22.529 17.485-.908-45.259z" fill="#fd7"/><path d="M154.332 96.359l22.53-17.484 45.522 8.027-22.53 17.484-45.522-8.027z" fill="#7684ca"/><path d="M200.305 104.929l22.529-17.484.926 46.173-22.53 17.484-.925-46.173z" fill="#7a88cc"/><path d="M199.854 104.386l22.53-17.484.441.077-22.529 17.485-.442-.078z" fill="#7684ca"/><path d="M200.296 104.464l22.529-17.485.009.466-22.529 17.484-.009-.465z" fill="#7a88cc"/><path d="M199.854 104.386l.442.078.009.465.925 46.173.009.466-.441-.078-45.522-8.026-.45-.08-.009-.465-.926-46.173-.009-.465.45.08 45.522 8.025zm.476 46.102l-.907-45.259-44.63-7.869.907 45.258 44.63 7.87" fill="#6272c3"/><path d="M220.954 36.75l.907 45.25-44.631-7.869-.907-45.251 44.631 7.87z" fill="#ffd65d"/><path d="M153.827 92.381l-.009-.458 22.53-17.484.008.457-22.529 17.485z" fill="#7a88cc"/><path d="M154.277 92.46l-.45-.079 22.529-17.485.451.08-22.53 17.484z" fill="#7684ca"/><path d="M221.376 35.897l.45.08.009.465.926 46.181.009.458-.45-.08-45.514-8.025-.45-.08-.009-.458-.926-46.181-.01-.465.45.08 45.515 8.025zM221.861 82l-.907-45.25-44.631-7.87.907 45.25L221.861 82" fill="#6272c3"/><path d="M153.818 91.923l-.926-46.181 22.53-17.484.926 46.181-22.53 17.484zm-.926-46.181l-.009-.465 22.529-17.485.01.466-22.53 17.484z" fill="#7a88cc"/><path d="M153.793 46.365l22.53-17.485.907 45.251-22.53 17.484-.907-45.25z" fill="#7a88cc"/><path d="M154.7 91.615l-.907-45.25 22.53-17.485.907 45.251-22.53 17.484z" fill="#fd7"/><path d="M152.883 45.277l22.529-17.485.45.08-22.529 17.484-.45-.079zm46.908 55.208l-45.514-8.025 22.53-17.484 45.514 8.025-22.53 17.484z" fill="#7684ca"/><path d="M199.331 99.485l-44.631-7.87 22.53-17.484L221.861 82l-22.53 17.485z" fill="#ffdc72"/><path d="M154.7 91.615l22.53-17.484L221.861 82l-22.53 17.485-44.631-7.87zm45.541 8.95l-.45-.08 22.53-17.484.45.079-22.53 17.485z" fill="#7684ca"/><path d="M200.232 100.107l22.529-17.484.01.457-22.53 17.485-.009-.458z" fill="#7a88cc"/><path d="M198.424 54.234l.907 45.251-44.631-7.87-.907-45.25 44.631 7.869z" fill="#ffd65d"/><path d="M198.424 54.234l-44.631-7.869 22.53-17.485 44.631 7.87-22.53 17.484z" fill="#7684ca"/><path d="M153.793 46.365l22.53-17.485 44.631 7.87-22.53 17.484-44.631-7.869z" fill="#ffdc72"/><path d="M199.331 99.485l-.907-45.251 22.53-17.484.907 45.25-22.53 17.485z" fill="#7a88cc"/><path d="M198.424 54.234l22.53-17.484.907 45.25-22.53 17.485-.907-45.251z" fill="#fd7"/><path d="M153.333 45.356l22.529-17.484 45.514 8.025-22.529 17.484-45.514-8.025z" fill="#7684ca"/><path d="M199.306 53.926l22.529-17.484.926 46.181-22.529 17.484-.926-46.181z" fill="#7a88cc"/><path d="M198.847 53.381l22.529-17.484.45.079-22.529 17.485-.45-.08z" fill="#7684ca"/><path d="M199.297 53.461l22.529-17.485.009.466-22.529 17.484-.009-.465z" fill="#7a88cc"/><path d="M198.847 53.381l.45.08.009.465.926 46.181.009.458-.45-.08-45.514-8.025-.45-.08-.009-.458-.926-46.181-.009-.465.45.08 45.514 8.025zm.484 46.104l-.907-45.25-44.631-7.87.907 45.25 44.631 7.87" fill="#6272c3"/><path d="M259.368 192.36l-.598-.598v-3.055l.598-.531c2.699-.043 4.857-.2 6.475-.465 1.615-.266 2.656-.707 3.12-1.328.466-.62.774-1.615.93-2.988.155-1.371.31-4.471.466-9.297.154-4.824.232-8.277.232-10.36v-53.655c0-2.258-.41-3.928-1.23-5.014-.82-1.084-1.937-1.77-3.353-2.06-1.418-.286-3.83-.452-7.238-.497l-.531-.531V98.86l.53-.598c6.11.223 10.115.332 12.02.332 4.472 0 8.146-.11 11.024-.332l21.184 27.492L334.14 164.8a249.952 249.952 0 0 0 11.488 13.48v-51.398c0-1.594-.077-4.99-.231-10.193-.156-5.201-.344-8.5-.565-9.895-.223-1.395-.608-2.334-1.161-2.822-.555-.486-1.594-.852-3.122-1.096-1.526-.242-3.597-.387-6.209-.432l-.53-.531v-3.055l.53-.598c3.587.223 8.7.332 15.34.332 6.065 0 10.47-.11 13.216-.332l.598.598v3.055l-.531.53c-2.922.046-5.18.212-6.773.499-1.594.289-2.59.764-2.988 1.428-.398.664-.676 1.639-.83 2.922-.156 1.285-.311 4.34-.465 9.164-.156 4.826-.233 8.3-.233 10.426v31.543l.067 18.262c.087 5.977.175 11.977.266 17.996-2.215-.754-6.043-1.684-11.488-2.79l-4.715-5.577-14.145-17.266-45.024-56.246v50.934c0 2.037.077 5.668.233 10.89.154 5.226.341 8.392.563 9.497.221 1.107.509 1.87.863 2.29.355.423 1.118.81 2.291 1.163 1.173.355 3.596.555 7.272.598l.53.53v3.122l-.53.53c-2.303-.31-6.022-.464-11.156-.464-6.6 0-12.377.155-17.334.465zm131.617-63.75l1.262.863c-.488 5.8-.73 13.172-.73 22.113v15.473c0 5.668.432 9.607 1.295 11.82.863 2.215 2.357 3.908 4.482 5.08 2.125 1.174 4.648 1.76 7.57 1.76 3.23 0 6.176-.631 8.832-1.893a18.286 18.286 0 0 0 6.673-5.346c1.793-2.301 2.822-3.852 3.089-4.648.265-.796.44-3.031.53-6.707l.2-7.438v-7.172c0-1.77-.09-4.184-.266-7.238-.178-3.055-.322-4.936-.433-5.645-.11-.707-.454-1.23-1.028-1.561-.577-.332-1.727-.498-3.453-.498l-5.578-.066-.599-.531v-2.855l.531-.531c8.456-1.018 15.582-2.678 21.384-4.98l1.262.863c-.488 5.8-.73 13.172-.73 22.113v11.688c0 .664.108 6.088.332 16.27.088 3.764.32 6.055.697 6.873.375.82.896 1.395 1.56 1.727.666.332 2.634.498 5.91.498h1.86l.598.53v2.657l-.531.598c-6.243-.355-10.426-.531-12.551-.531-2.702 0-5.822.154-9.363.465l-.599-.531c.267-4.516.466-8.344.599-11.488-2.79 2.17-5.978 5.07-9.563 8.699-1.373 1.373-3.344 2.523-5.91 3.453-2.568.93-5.49 1.395-8.767 1.395-4.959 0-8.822-.787-11.587-2.357-2.769-1.57-4.728-3.74-5.877-6.508-1.152-2.766-1.727-7.537-1.727-14.311l.066-5.246v-12.95c0-1.77-.09-4.183-.267-7.237-.178-3.055-.322-4.936-.431-5.645-.111-.707-.455-1.23-1.03-1.561-.575-.332-1.726-.498-3.452-.498l-5.578-.066-.598-.531v-2.855l.53-.531c8.458-1.02 15.585-2.68 21.386-4.983zm83.473 0l1.261.863c-.265 2.922-.442 6.42-.53 10.492l6.308-5.777c1.77-1.637 2.943-2.69 3.52-3.154.575-.465 1.927-1.006 4.052-1.627 2.125-.62 4.359-.93 6.707-.93 4.426 0 8.3 1.096 11.62 3.287 3.32 2.19 5.778 5.213 7.371 9.064 5.977-5.666 9.463-8.81 10.46-9.43.995-.62 2.577-1.25 4.747-1.893a22.885 22.885 0 0 1 6.508-.963c3.496 0 6.707.754 9.63 2.258 2.922 1.506 5.245 3.477 6.972 5.91 1.728 2.436 2.733 5.07 3.022 7.902.286 2.834.432 6.73.432 11.688v6.973c0 .754.132 6.266.397 16.535.089 4.207.553 6.707 1.395 7.504.84.797 3.563 1.195 8.168 1.195l.531.53v2.856l-.53.53c-5.624-.354-9.43-.53-11.423-.53-1.107 0-4.316.176-9.629.53l-.863-.73c.575-5.753.864-13.257.864-22.511v-7.97c0-7.038-.332-11.962-.996-14.774-.664-2.811-2.216-5.113-4.649-6.906-2.436-1.793-5.336-2.69-8.699-2.69-2.39 0-4.627.478-6.707 1.429-2.082.953-3.95 2.369-5.61 4.25-1.66 1.883-2.58 3.63-2.757 5.246-.178 1.617-.265 4.594-.265 8.932v8.3c0 1.95.087 5.603.265 10.958.177 5.357.365 8.479.564 9.363.2.887.508 1.518.93 1.893.42.377.906.62 1.462.73.553.11 2.932.299 7.139.564l.597.53v2.79l-.53.598a249.847 249.847 0 0 0-16.005-.531c-4.738 0-10.05.176-15.938.53l-.598-.597v-2.79l.599-.53c4.293-.266 6.716-.465 7.27-.598a3.036 3.036 0 0 0 1.462-.83c.42-.42.706-1.063.862-1.926.154-.863.332-3.72.531-8.566.2-4.847.3-8.51.3-10.99v-7.57c0-5.002-.345-8.854-1.03-11.555-.688-2.7-2.158-4.98-4.416-6.84-2.257-1.86-5.092-2.79-8.5-2.79-2.656 0-5.08.522-7.27 1.562-2.192 1.04-3.985 2.324-5.38 3.852s-2.257 2.955-2.59 4.283c-.332 1.328-.498 4.207-.498 8.633V165c0 1.949.088 5.602.266 10.957.176 5.357.365 8.479.565 9.363.198.887.507 1.518.93 1.893.42.377.905.62 1.46.73.553.11 2.933.299 7.14.564l.597.53v2.79l-.53.598a249.847 249.847 0 0 0-16.005-.531c-5.091 0-10.404.176-15.938.53l-.598-.597v-2.79l.599-.53c4.293-.266 6.716-.465 7.27-.598a3.036 3.036 0 0 0 1.461-.83c.42-.42.707-1.063.863-1.926.154-.863.332-3.72.531-8.566.2-4.847.3-8.51.3-10.99v-13.082c0-1.77-.09-4.184-.267-7.238-.178-3.055-.322-4.936-.432-5.645-.11-.707-.455-1.23-1.029-1.561-.576-.332-1.726-.498-3.452-.498l-5.579-.066-.598-.531v-2.855l.531-.531c8.453-1.017 15.58-2.677 21.381-4.98zM574 98.064c11.156.355 18.262.53 21.316.53 4.16 0 8.832-.108 14.012-.331 5.488-.176 8.875-.266 10.16-.266 6.197 0 11.322.643 15.373 1.926 4.05 1.285 7.404 3.63 10.06 7.039 2.657 3.41 3.985 7.527 3.985 12.352 0 3.984-.93 7.836-2.79 11.555-1.858 3.719-4.448 6.885-7.77 9.496-3.32 2.613-6.685 4.482-10.093 5.61a33.584 33.584 0 0 1-10.625 1.694c-2.746 0-5.801-.31-9.164-.93l-1.13-4.051.599-.664c3.32.754 6.02 1.129 8.102 1.129 5.799 0 10.459-1.914 13.979-5.744 3.52-3.828 5.279-8.732 5.279-14.71 0-6.02-1.826-10.823-5.48-14.41-3.652-3.585-9.175-5.378-16.567-5.378-4.03 0-8.457.754-13.281 2.258-.398 3.41-.598 11.645-.598 24.703v30.746l.066 12.949c.043 5.004.176 8.234.398 9.695.22 1.46.54 2.436.963 2.922.42.488 1.229.896 2.424 1.229 1.195.333 4.139.588 8.832.764l.53.398v3.32l-.53.53c-11.29-.354-17.644-.53-19.06-.53-1.505 0-7.835.176-18.991.53l-.531-.53v-3.32l.53-.398c4.118-.176 6.862-.398 8.235-.664 1.37-.266 2.29-.607 2.756-1.03.465-.42.84-1.315 1.129-2.688.287-1.371.453-4.426.498-9.164l.066-14.012v-30.746l-.133-12.95c-.045-5.046-.166-8.3-.365-9.761-.2-1.461-.51-2.434-.93-2.922-.422-.486-1.23-.885-2.424-1.195-1.195-.31-4.141-.553-8.832-.73l-.531-.465v-3.32l.533-.466zm81.215 129.89c1.504-3.72 2.633-7.13 3.387-10.227h1.594c2.168 2.346 4.516 3.52 7.039 3.52 3.143 0 5.877-1.561 8.2-4.682 2.325-3.121 5.612-10.018 9.862-20.686a301.483 301.483 0 0 0-5.113-13.414l-10.56-26.164c-1.106-2.7-2.745-6.563-4.913-11.588-2.17-5.023-3.465-7.791-3.885-8.301-.422-.508-.963-.984-1.627-1.428-.664-.441-2.457-.863-5.38-1.262l-.53-.531v-2.656l.598-.531c5.09.31 10.314.465 15.672.465 6.285 0 11.133-.154 14.543-.465l.53.53v2.657l-.464.53c-1.361.11-2.722.21-4.084.3-2.236.156-3.631.51-4.184 1.063-.555.555-.83 1.186-.83 1.893 0 .754.686 3.199 2.059 7.338 1.37 4.14 2.699 7.803 3.984 10.99l4.184 10.359c2.744 6.818 4.869 11.844 6.375 15.074l3.52-7.77c1.238-2.832 3.01-7.127 5.313-12.883l5.512-14.078c1.416-3.63 2.225-5.887 2.424-6.773.199-.885.299-1.527.299-1.926 0-.973-.355-1.637-1.063-1.992-.71-.354-2.281-.664-4.715-.93l-2.79-.398-.464-.531v-2.922l.53-.531c3.72.31 8.124.465 13.216.465 4.648 0 8.367-.154 11.156-.465l.53.53v2.923l-.53.53c-1.64.046-2.945.267-3.918.665-.975.398-1.904 1.107-2.79 2.125-.886 1.02-2.48 3.885-4.78 8.6a608.454 608.454 0 0 0-6.906 14.643l-6.508 14.277-15.34 35.859c-1.328 3.098-2.98 6.418-4.947 9.96-1.971 3.542-4.383 6.099-7.238 7.67-2.855 1.57-5.877 2.358-9.064 2.358-2.791.002-5.426-.73-7.904-2.19z" fill="#0721a0"/></svg>