<svg clip-rule="evenodd" fill-rule="evenodd" stroke-linejoin="round" stroke-miterlimit="1.41421" viewBox="0 0 482 69" xmlns="http://www.w3.org/2000/svg"><g fill="#0071c5" fill-rule="nonzero"><path d="m152.233 236.938v31.296c0 6.336 1.104 10.992 3.312 13.968s5.648 4.464 10.32 4.464h1.728c4.672 0 8.112-1.488 10.32-4.464s3.312-7.632 3.312-13.968v-31.296c0-6.336-1.104-10.992-3.312-13.968s-5.648-4.464-10.32-4.464h-1.728c-4.672 0-8.112 1.488-10.32 4.464s-3.312 7.632-3.312 13.968zm18.912.864v29.568c0 3.776-.288 6.368-.864 7.776s-1.664 2.112-3.264 2.112h-.576c-1.6 0-2.688-.704-3.264-2.112s-.864-4-.864-7.776v-29.568c0-3.776.288-6.368.864-7.776s1.664-2.112 3.264-2.112h.576c1.6 0 2.688.704 3.264 2.112s.864 4 .864 7.776z" transform="translate(-152.233 -218.506)"/><path d="m196.201 261.61h2.88c5.312 0 9.088-1.248 11.328-3.744s3.36-6.624 3.36-12.384v-9.888c0-5.76-1.12-9.888-3.36-12.384s-6.016-3.744-11.328-3.744h-12.576v66.24h9.696zm0-9.024v-24.096h2.016c2.24 0 3.744.528 4.512 1.584s1.152 3.056 1.152 6v8.928c0 2.944-.384 4.944-1.152 6s-2.272 1.584-4.512 1.584z" transform="translate(-152.233 -218.506)"/><path d="m228.073 256.906h10.176v-9.216h-10.176v-19.008h12.672v-9.216h-22.56v66.24h23.04v-9.216h-13.152z" transform="translate(-152.233 -218.506)"/><path d="m264.841 219.466v38.592l-11.52-38.592h-7.968v66.24h8.928v-38.592l11.52 38.592h7.968v-66.24z" transform="translate(-152.233 -218.506)"/><path d="m294.217 254.314-1.632 16.032-1.728-16.032-4.032-34.848h-10.08l9.696 66.24h11.808l9.792-66.24h-9.792z" transform="translate(-152.233 -218.506)"/><path d="m158.784.96h9.888v66.24h-9.888z"/><g transform="translate(-152.233 -218.506)"><path d="m346.345 219.466v38.592l-11.52-38.592h-7.968v66.24h8.928v-38.592l11.52 38.592h7.968v-66.24z"/><path d="m360.553 236.938v31.296c0 6.336 1.104 10.992 3.312 13.968s5.648 4.464 10.32 4.464h1.728c4.672 0 8.112-1.488 10.32-4.464s3.312-7.632 3.312-13.968v-31.296c0-6.336-1.104-10.992-3.312-13.968s-5.648-4.464-10.32-4.464h-1.728c-4.672 0-8.112 1.488-10.32 4.464s-3.312 7.632-3.312 13.968zm18.912.864v29.568c0 3.776-.288 6.368-.864 7.776s-1.664 2.112-3.264 2.112h-.576c-1.6 0-2.688-.704-3.264-2.112s-.864-4-.864-7.776v-29.568c0-3.776.288-6.368.864-7.776s1.664-2.112 3.264-2.112h.576c1.6 0 2.688.704 3.264 2.112s.864 4 .864 7.776z"/><path d="m397.129 233.098h3.648v-10.752h4.32v-2.88h-12.288v2.88h4.32zm9.6 0h3.36v-8.832l2.784 6.24h2.688l2.784-6.24v8.832h3.36v-13.632h-3.936l-3.552 7.392-3.552-7.392h-3.936z"/><path d="m453.769 228.682h9.024v-9.216h-27.936v9.216h9.024v57.024h9.888z"/><path d="m465.001 236.938v31.296c0 6.336 1.104 10.992 3.312 13.968s5.648 4.464 10.32 4.464h1.728c4.672 0 8.112-1.488 10.32-4.464s3.312-7.632 3.312-13.968v-31.296c0-6.336-1.104-10.992-3.312-13.968s-5.648-4.464-10.32-4.464h-1.728c-4.672 0-8.112 1.488-10.32 4.464s-3.312 7.632-3.312 13.968zm18.912.864v29.568c0 3.776-.288 6.368-.864 7.776s-1.664 2.112-3.264 2.112h-.576c-1.6 0-2.688-.704-3.264-2.112s-.864-4-.864-7.776v-29.568c0-3.776.288-6.368.864-7.776s1.664-2.112 3.264-2.112h.576c1.6 0 2.688.704 3.264 2.112s.864 4 .864 7.776z"/><path d="m498.601 236.938v31.296c0 6.336 1.104 10.992 3.312 13.968s5.648 4.464 10.32 4.464h1.728c4.672 0 8.112-1.488 10.32-4.464s3.312-7.632 3.312-13.968v-31.296c0-6.336-1.104-10.992-3.312-13.968s-5.648-4.464-10.32-4.464h-1.728c-4.672 0-8.112 1.488-10.32 4.464s-3.312 7.632-3.312 13.968zm18.912.864v29.568c0 3.776-.288 6.368-.864 7.776s-1.664 2.112-3.264 2.112h-.576c-1.6 0-2.688-.704-3.264-2.112s-.864-4-.864-7.776v-29.568c0-3.776.288-6.368.864-7.776s1.664-2.112 3.264-2.112h.576c1.6 0 2.688.704 3.264 2.112s.864 4 .864 7.776z"/><path d="m542.761 276.49v-57.024h-9.888v66.24h22.272v-9.216z"/><path d="m568.873 285.706v-29.28h1.344c1.024 0 1.776.272 2.256.816s.848 1.424 1.104 2.64l5.952 25.824h10.368l-6.816-28.32c-.64-2.688-1.824-4.512-3.552-5.472 1.728-1.216 2.944-3.36 3.648-6.432l5.856-26.016h-10.176l-5.088 24.576c-.32 1.408-.768 2.4-1.344 2.976s-1.44.864-2.592.864h-.96v-28.416h-9.792v66.24z"/></g><path d="m439.968.96h9.888v66.24h-9.888z"/><path d="m624.649 228.682h9.024v-9.216h-27.936v9.216h9.024v57.024h9.888z" transform="translate(-152.233 -218.506)"/></g></svg>