<svg clip-rule="evenodd" fill-rule="evenodd" stroke-linejoin="round" stroke-miterlimit="1.41421" viewBox="0 0 270 122" xmlns="http://www.w3.org/2000/svg"><g fill="#0071c5" fill-rule="nonzero"><g transform="translate(-152.233 -218.506)"><path d="m152.233 236.938v31.296c0 6.336 1.104 10.992 3.312 13.968s5.648 4.464 10.32 4.464h1.728c4.672 0 8.112-1.488 10.32-4.464s3.312-7.632 3.312-13.968v-31.296c0-6.336-1.104-10.992-3.312-13.968s-5.648-4.464-10.32-4.464h-1.728c-4.672 0-8.112 1.488-10.32 4.464s-3.312 7.632-3.312 13.968zm18.912.864v29.568c0 3.776-.288 6.368-.864 7.776s-1.664 2.112-3.264 2.112h-.576c-1.6 0-2.688-.704-3.264-2.112s-.864-4-.864-7.776v-29.568c0-3.776.288-6.368.864-7.776s1.664-2.112 3.264-2.112h.576c1.6 0 2.688.704 3.264 2.112s.864 4 .864 7.776z"/><path d="m196.201 261.61h2.88c5.312 0 9.088-1.248 11.328-3.744s3.36-6.624 3.36-12.384v-9.888c0-5.76-1.12-9.888-3.36-12.384s-6.016-3.744-11.328-3.744h-12.576v66.24h9.696zm0-9.024v-24.096h2.016c2.24 0 3.744.528 4.512 1.584s1.152 3.056 1.152 6v8.928c0 2.944-.384 4.944-1.152 6s-2.272 1.584-4.512 1.584z"/><path d="m228.073 256.906h10.176v-9.216h-10.176v-19.008h12.672v-9.216h-22.56v66.24h23.04v-9.216h-13.152z"/><path d="m264.841 219.466v38.592l-11.52-38.592h-7.968v66.24h8.928v-38.592l11.52 38.592h7.968v-66.24z"/><path d="m294.217 254.314-1.632 16.032-1.728-16.032-4.032-34.848h-10.08l9.696 66.24h11.808l9.792-66.24h-9.792z"/></g><path d="m158.784.96h9.888v66.24h-9.888z"/><path d="m346.345 219.466v38.592l-11.52-38.592h-7.968v66.24h8.928v-38.592l11.52 38.592h7.968v-66.24z" transform="translate(-152.233 -218.506)"/><path d="m360.553 236.938v31.296c0 6.336 1.104 10.992 3.312 13.968s5.648 4.464 10.32 4.464h1.728c4.672 0 8.112-1.488 10.32-4.464s3.312-7.632 3.312-13.968v-31.296c0-6.336-1.104-10.992-3.312-13.968s-5.648-4.464-10.32-4.464h-1.728c-4.672 0-8.112 1.488-10.32 4.464s-3.312 7.632-3.312 13.968zm18.912.864v29.568c0 3.776-.288 6.368-.864 7.776s-1.664 2.112-3.264 2.112h-.576c-1.6 0-2.688-.704-3.264-2.112s-.864-4-.864-7.776v-29.568c0-3.776.288-6.368.864-7.776s1.664-2.112 3.264-2.112h.576c1.6 0 2.688.704 3.264 2.112s.864 4 .864 7.776z" transform="translate(-152.233 -218.506)"/><path d="m397.129 233.098h3.648v-10.752h4.32v-2.88h-12.288v2.88h4.32zm9.6 0h3.36v-8.832l2.784 6.24h2.688l2.784-6.24v8.832h3.36v-13.632h-3.936l-3.552 7.392-3.552-7.392h-3.936z" transform="translate(-152.233 -218.506)"/><path d="m162.985 247.69h6.016v-6.144h-18.624v6.144h6.016v38.016h6.592z" transform="translate(-45.5094 -164.763)"/><path d="m170.473 253.194v20.864c0 4.224.736 7.328 2.208 9.312s3.766 2.976 6.88 2.976h1.152c3.115 0 5.408-.992 6.88-2.976s2.208-5.088 2.208-9.312v-20.864c0-4.224-.736-7.328-2.208-9.312s-3.765-2.976-6.88-2.976h-1.152c-3.114 0-5.408.992-6.88 2.976s-2.208 5.088-2.208 9.312zm12.608.576v19.712c0 2.517-.192 4.245-.576 5.184-.384.938-1.109 1.408-2.176 1.408h-.384c-1.066 0-1.792-.47-2.176-1.408-.384-.939-.576-2.667-.576-5.184v-19.712c0-2.518.192-4.246.576-5.184.384-.939 1.11-1.408 2.176-1.408h.384c1.067 0 1.792.469 2.176 1.408.384.938.576 2.666.576 5.184z" transform="translate(-45.5094 -164.763)"/><path d="m192.873 253.194v20.864c0 4.224.736 7.328 2.208 9.312s3.766 2.976 6.88 2.976h1.152c3.115 0 5.408-.992 6.88-2.976s2.208-5.088 2.208-9.312v-20.864c0-4.224-.736-7.328-2.208-9.312s-3.765-2.976-6.88-2.976h-1.152c-3.114 0-5.408.992-6.88 2.976s-2.208 5.088-2.208 9.312zm12.608.576v19.712c0 2.517-.192 4.245-.576 5.184-.384.938-1.109 1.408-2.176 1.408h-.384c-1.066 0-1.792-.47-2.176-1.408-.384-.939-.576-2.667-.576-5.184v-19.712c0-2.518.192-4.246.576-5.184.384-.939 1.11-1.408 2.176-1.408h.384c1.067 0 1.792.469 2.176 1.408.384.938.576 2.666.576 5.184z" transform="translate(-45.5094 -164.763)"/><path d="m222.313 279.562v-38.016h-6.592v44.16h14.848v-6.144z" transform="translate(-45.5094 -164.763)"/><path d="m239.721 285.706v-19.52h.896c.683 0 1.184.181 1.504.544.32.362.566.949.736 1.76l3.968 17.216h6.912l-4.544-18.88c-.426-1.792-1.216-3.008-2.368-3.648 1.152-.811 1.963-2.24 2.432-4.288l3.904-17.344h-6.784l-3.392 16.384c-.213.938-.512 1.6-.896 1.984s-.96.576-1.728.576h-.64v-18.944h-6.528v44.16z" transform="translate(-45.5094 -164.763)"/><path d="m209.7636 76.783h6.592v44.16h-6.592z"/><path d="m276.905 247.69h6.016v-6.144h-18.624v6.144h6.016v38.016h6.592z" transform="translate(-45.5094 -164.763)"/></g></svg>