<svg xmlns="http://www.w3.org/2000/svg" viewBox="0 0 539.54193 160.02434" height="160.024" width="539.542"><path d="M212.711 127.088c33.87-33.867 39.498-83.146 12.572-110.07C198.361-9.903 149.084-4.275 115.217 29.59c-33.867 33.866-24.07 98.568-12.57 110.07 9.293 9.293 76.2 21.293 110.064-12.572z" fill="#f89939"/><path d="M73.741 78.15C54.093 58.504 25.5 55.233 9.874 70.857c-15.62 15.622-12.355 44.22 7.297 63.865 19.652 19.654 57.195 13.969 63.863 7.295 5.396-5.387 12.361-44.215-7.293-63.865z" fill="#3499cd"/><path d="M138.167 72.595c-.154 0-.385.053-.69.155l-9.73 3.601c-3.318 6.331-6.143 13.25-8.463 20.76-2.324 7.504-3.486 13.942-3.486 19.303 0 3.578.833 6.422 2.507 8.543 1.671 2.119 3.876 3.177 6.608 3.177 2.375 0 4.871-.759 7.488-2.279 2.617-1.515 5.662-3.873 9.133-7.068v-.045c.412 2.4 1.398 4.422 2.969 6.062 2.135 2.22 4.937 3.33 8.41 3.33 3.117 0 5.96-.759 8.54-2.279 2.487-1.46 5.289-3.722 8.39-6.742.262 2.25 1 4.206 2.238 5.863 1.573 2.107 3.48 3.158 5.724 3.158 2.301 0 4.53-.865 6.686-2.601 2.158-1.74 4.515-4.434 7.068-8.084-.229 7.125 1.67 10.685 5.705 10.685 1.61 0 3.297-.585 5.059-1.76 1.76-1.175 4.682-3.707 8.768-7.587h.002c3.548-3.52 6.154-6.815 7.814-9.88 2.248-.383 4.314-1.057 6.205-2.028-3.855 6.053-5.785 10.876-5.785 14.476 0 1.942.54 3.57 1.61 4.887 1.07 1.31 2.386 1.969 3.945 1.969 3.408 0 8.24-3.048 14.48-9.1-.013.468-.04.93-.04 1.404 0 1.683.142 4.25.421 7.698l8.465-1.989c0-2.303.037-4.126.115-5.476.13-1.815.383-3.81.768-5.98.229-1.279.816-2.49 1.76-3.638l2.148-2.492a61.058 61.058 0 0 1 2.219-2.453 42.914 42.914 0 0 1 2.144-2.14c.715-.637 1.34-1.14 1.88-1.497.585-.355 1.06-.535 1.417-.535.635 0 .957.41.957 1.229 0 .814-.602 2.73-1.8 5.744-2.249 5.615-3.374 9.791-3.374 12.523 0 2.017.524 3.626 1.573 4.825 1.047 1.2 2.425 1.8 4.136 1.8 4.211 0 9.27-3.113 15.168-9.347v-4.4c-4.173 4.927-7.197 7.392-9.064 7.392-1.254 0-1.881-.768-1.881-2.305 0-1.155.754-3.656 2.262-7.51 2.193-5.62 3.29-9.656 3.29-12.105 0-1.474-.431-2.706-1.3-3.688-.865-.98-1.951-1.47-3.25-1.47-1.912 0-4.1.894-6.557 2.695-2.46 1.803-5.78 5.037-9.969 9.71.613-3.038 1.903-7.196 3.868-12.483l-9.344 1.798c-2.121 4.599-3.658 8.733-4.615 12.413a43.503 43.503 0 0 0-1.059 5.554c-2.934 2.83-4.823 4.557-5.664 5.188-.842.622-1.725.935-2.643.935-.842 0-1.513-.316-2.011-.959-.496-.634-.746-1.492-.746-2.566 0-1.147.219-2.47.652-3.963.433-1.492 1.391-4.308 2.871-8.445l3.56-9.807-3.482.154c-3.168 6.028-6.871 9.268-11.11 9.729 1.152-2.99 1.725-5.286 1.725-6.895 0-2.044-.994-3.062-2.986-3.062-2.35 0-4.195 1.117-5.535 3.35-1.344 2.237-2.012 4.335-2.012 6.304 0 1.912 1.096 3.355 3.295 4.326a50.206 50.206 0 0 1-4.523 5.715v-.008c-2.17 2.17-3.852 3.785-5.053 4.846-1.201 1.06-2.3 1.59-3.291 1.59-1.56 0-2.336-1.098-2.336-3.293 0-2.093.871-5.963 2.607-11.608L206.4 94.7h-2.148l-7.828 4.326c-1.277-2.935-3.512-4.404-6.705-4.404-2.525 0-5.44 1.073-8.733 3.218s-5.992 4.951-8.101 8.424c-1.634 2.697-2.625 5.501-2.99 8.41-2.934 2.935-5.158 4.87-6.641 5.746-1.531.904-3.138 1.358-4.824 1.358-4.316 0-6.984-2.492-8.004-7.469 11.235-3.295 16.853-7.582 16.853-12.87 0-1.991-.716-3.598-2.146-4.825-1.432-1.225-3.332-1.84-5.707-1.84-4.57 0-8.733 2.19-12.483 6.57-3.408 3.971-5.25 8.372-5.566 13.194-3.106 3.05-5.436 5.074-6.963 6.054-1.558.996-3.025 1.49-4.406 1.49-1.354 0-2.438-.648-3.256-1.953-.817-1.303-1.225-3.062-1.225-5.285 0-.997.102-2.82.307-5.476 5.106-5.541 8.858-10.75 11.26-15.63 2.403-4.876 3.601-9.92 3.601-15.128 0-1.838-.238-3.299-.71-4.387-.469-1.083-1.08-1.627-1.817-1.627zm-1.88 4.407c.434 0 .794.29 1.075.865.28.574.418 1.337.418 2.277 0 3.225-1.007 7.074-3.023 11.549a46.734 46.734 0 0 1-7.891 12.121c1.736-8.465 3.504-15.052 5.305-19.756 1.8-4.705 3.176-7.056 4.117-7.056zm53.858 20.76c1.07 0 1.924.4 2.565 1.206.635.803.957 1.922.957 3.35 0 3.676-1.129 7.694-3.389 12.049-2.264 4.353-4.67 6.53-7.223 6.53-1.049 0-1.908-.428-2.584-1.284-.676-.856-1.015-1.973-1.015-3.354 0-3.648 1.145-7.644 3.43-11.986 2.28-4.342 4.704-6.512 7.26-6.512zm-32.904.077c1.785 0 2.68 1.225 2.68 3.676 0 4.954-3.27 8.348-9.805 10.188 0-4.113.765-7.449 2.3-10.014 1.532-2.569 3.139-3.85 4.825-3.85z" fill="#010101"/><g font-size="23.08" font-family="Helvetica" fill="#fff"><path d="M156.026 78.16q.09 1.014.507 1.555.767.98 2.66.98 1.127 0 1.983-.485.857-.495.857-1.52 0-.778-.688-1.184-.44-.248-1.735-.575l-1.612-.406q-1.544-.383-2.276-.856-1.307-.823-1.307-2.276 0-1.713 1.228-2.773 1.24-1.059 3.324-1.059 2.728 0 3.933 1.6.755 1.014.733 2.186h-1.916q-.056-.687-.484-1.25-.7-.8-2.423-.8-1.15 0-1.747.439-.586.44-.586 1.16 0 .79.778 1.263.45.282 1.33.496l1.34.327q2.187.53 2.93 1.025 1.184.778 1.184 2.445 0 1.612-1.229 2.784-1.217 1.172-3.719 1.172-2.693 0-3.82-1.217-1.116-1.228-1.194-3.032h1.95zm2.998-8.576zM171.06 69.527q2.04 0 3.313.992 1.284.992 1.543 3.414h-1.972q-.18-1.115-.822-1.848-.643-.743-2.063-.743-1.938 0-2.772 1.893-.54 1.228-.54 3.031 0 1.815.766 3.054.766 1.24 2.411 1.24 1.262 0 1.995-.767.744-.777 1.025-2.118h1.972q-.338 2.4-1.69 3.516-1.352 1.104-3.46 1.104-2.366 0-3.775-1.724-1.408-1.735-1.408-4.327 0-3.178 1.543-4.948 1.544-1.769 3.933-1.769zm-.316.057zM177.945 69.933h2.062v12.013h-2.062V69.933zm0-4.542h2.062v2.3h-2.062v-2.3zM183.039 65.391h1.95v9.613l5.206-5.127h2.592l-4.62 4.519 4.879 7.55h-2.592l-3.764-6.085-1.702 1.555v4.53h-1.95V65.39zM194.623 69.933h2.063v12.013h-2.063V69.933zm0-4.542h2.063v2.3h-2.063v-2.3zM200.168 66.507h2.051v3.37h1.927v1.656h-1.927v7.877q0 .631.428.846.237.123.789.123h.316q.169-.01.394-.033v1.6q-.35.101-.732.146-.372.046-.812.046-1.42 0-1.927-.722-.507-.732-.507-1.893v-7.99h-1.634v-1.656h1.634v-3.37z"/></g><g font-size="23.08" font-family="Verdana" fill="#010101"><path d="M245.414 155.257h-2.12v-7.167q0-.811-.078-1.566-.068-.755-.304-1.206-.26-.485-.744-.733-.485-.248-1.397-.248-.89 0-1.78.451-.891.44-1.781 1.127.033.26.056.609.022.338.022.676v8.057h-2.118v-7.167q0-.834-.08-1.578-.067-.755-.303-1.205-.26-.485-.744-.722-.485-.248-1.398-.248-.867 0-1.746.429-.868.428-1.736 1.093v9.398h-2.118V142.67h2.118v1.397q.992-.823 1.972-1.285.992-.462 2.108-.462 1.284 0 2.175.541.901.541 1.34 1.499 1.285-1.082 2.345-1.555 1.06-.485 2.265-.485 2.073 0 3.054 1.262.992 1.251.992 3.505v8.17zM259.23 155.257h-2.108v-1.34q-.281.191-.766.54-.473.338-.924.541-.53.26-1.217.428-.688.18-1.612.18-1.701 0-2.885-1.126-1.183-1.127-1.183-2.874 0-1.431.609-2.31.62-.89 1.758-1.397 1.15-.508 2.76-.688 1.612-.18 3.46-.27v-.327q0-.721-.259-1.195-.248-.473-.721-.743-.45-.26-1.082-.35-.631-.09-1.318-.09-.834 0-1.86.225-1.025.215-2.119.632h-.112v-2.153q.62-.169 1.792-.372 1.172-.203 2.31-.203 1.33 0 2.31.226.992.214 1.713.744.71.518 1.082 1.34.372.823.372 2.04v8.542zm-2.108-3.099v-3.504q-.969.056-2.287.169-1.308.112-2.074.326-.913.26-1.476.812-.564.54-.564 1.499 0 1.082.654 1.634.654.54 1.995.54 1.115 0 2.04-.428.923-.44 1.712-1.048zM272.595 154.469q-1.06.507-2.017.788-.947.282-2.017.282-1.364 0-2.502-.394-1.138-.406-1.95-1.217-.822-.812-1.273-2.051-.45-1.24-.45-2.897 0-3.087 1.69-4.845 1.701-1.758 4.485-1.758 1.082 0 2.118.304 1.048.304 1.916.744v2.355h-.113q-.969-.755-2.006-1.16-1.025-.406-2.005-.406-1.804 0-2.852 1.217-1.036 1.205-1.036 3.55 0 2.276 1.014 3.504 1.025 1.217 2.874 1.217.642 0 1.307-.169.665-.169 1.194-.44.462-.236.868-.495.406-.27.642-.462h.113v2.333zM285.848 155.257h-2.119v-7.167q0-.868-.101-1.623-.102-.766-.372-1.194-.282-.473-.812-.699-.53-.237-1.374-.237-.868 0-1.815.429-.946.428-1.814 1.093v9.398h-2.119v-17.535h2.119v6.345q.992-.823 2.05-1.285 1.06-.462 2.176-.462 2.04 0 3.11 1.229 1.07 1.228 1.07 3.538v8.17zM292.204 140.562h-2.39v-2.197h2.39v2.197zm-.136 14.695h-2.118V142.67h2.118v12.587zM306.809 155.257h-2.119v-7.167q0-.868-.101-1.623-.102-.766-.372-1.194-.282-.473-.812-.699-.53-.237-1.375-.237-.867 0-1.814.429-.947.428-1.814 1.093v9.398h-2.119V142.67h2.119v1.397q.991-.823 2.05-1.285 1.06-.462 2.176-.462 2.04 0 3.11 1.229 1.07 1.228 1.07 3.538v8.17zM321.425 149.183h-9.275q0 1.161.35 2.029.349.856.958 1.408.586.541 1.386.812.811.27 1.78.27 1.285 0 2.58-.507 1.308-.518 1.86-1.014h.113v2.31q-1.07.45-2.186.755-1.116.304-2.344.304-3.133 0-4.891-1.69-1.758-1.702-1.758-4.823 0-3.088 1.679-4.902 1.69-1.815 4.44-1.815 2.547 0 3.922 1.488 1.386 1.487 1.386 4.226v1.15zm-2.062-1.622q-.012-1.668-.846-2.581-.822-.913-2.513-.913-1.701 0-2.716 1.003-1.003 1.003-1.138 2.49h7.213zM334.892 155.257h-2.119v-17.535h2.119v17.535zM349.643 149.183h-9.274q0 1.161.349 2.029.35.856.958 1.408.586.541 1.386.812.811.27 1.78.27 1.285 0 2.581-.507 1.307-.518 1.86-1.014h.112v2.31q-1.07.45-2.186.755-1.116.304-2.344.304-3.133 0-4.89-1.69-1.759-1.702-1.759-4.823 0-3.088 1.68-4.902 1.69-1.815 4.44-1.815 2.546 0 3.921 1.488 1.386 1.487 1.386 4.226v1.15zm-2.062-1.622q-.011-1.668-.845-2.581-.823-.913-2.513-.913-1.702 0-2.716 1.003-1.003 1.003-1.138 2.49h7.212zM362.637 155.257h-2.108v-1.34q-.281.191-.766.54-.473.338-.924.541-.53.26-1.217.428-.688.18-1.612.18-1.701 0-2.885-1.126-1.183-1.127-1.183-2.874 0-1.431.609-2.31.62-.89 1.758-1.397 1.15-.508 2.76-.688 1.612-.18 3.46-.27v-.327q0-.721-.259-1.195-.248-.473-.721-.743-.45-.26-1.082-.35-.631-.09-1.318-.09-.834 0-1.86.225-1.025.215-2.119.632h-.112v-2.153q.62-.169 1.792-.372 1.172-.203 2.31-.203 1.33 0 2.31.226.992.214 1.713.744.71.518 1.082 1.34.372.823.372 2.04v8.542zm-2.108-3.099v-3.504q-.969.056-2.287.169-1.308.112-2.074.326-.913.26-1.476.812-.564.54-.564 1.499 0 1.082.654 1.634.654.54 1.995.54 1.115 0 2.04-.428.923-.44 1.712-1.048zM374.548 144.98h-.112q-.474-.113-.924-.158-.44-.056-1.049-.056-.98 0-1.893.44-.913.427-1.758 1.115v8.936h-2.118V142.67h2.118v1.86q1.262-1.015 2.22-1.432.97-.428 1.972-.428.553 0 .8.033.248.023.744.102v2.175zM387.091 155.257h-2.119v-7.167q0-.868-.101-1.623-.101-.766-.372-1.194-.282-.473-.811-.699-.53-.237-1.375-.237-.868 0-1.815.429-.946.428-1.814 1.093v9.398h-2.118V142.67h2.118v1.397q.992-.823 2.051-1.285 1.06-.462 2.175-.462 2.04 0 3.11 1.229 1.071 1.228 1.071 3.538v8.17zM393.447 140.562h-2.39v-2.197h2.39v2.197zm-.135 14.695h-2.119V142.67h2.119v12.587zM408.052 155.257h-2.119v-7.167q0-.868-.101-1.623-.102-.766-.372-1.194-.282-.473-.811-.699-.53-.237-1.375-.237-.868 0-1.815.429-.946.428-1.814 1.093v9.398h-2.119V142.67h2.119v1.397q.992-.823 2.051-1.285 1.06-.462 2.175-.462 2.04 0 3.11 1.229 1.07 1.228 1.07 3.538v8.17zM422.341 153.826q0 3.2-1.453 4.7-1.454 1.498-4.474 1.498-1.003 0-1.961-.146-.947-.135-1.87-.395v-2.163h.112q.518.203 1.645.496 1.127.304 2.254.304 1.082 0 1.792-.26.71-.259 1.104-.72.395-.44.564-1.06.169-.62.169-1.386v-1.15q-.958.767-1.837 1.15-.868.372-2.22.372-2.254 0-3.584-1.623-1.318-1.634-1.318-4.598 0-1.623.45-2.795.462-1.183 1.251-2.04.733-.8 1.78-1.239 1.049-.45 2.086-.45 1.093 0 1.825.225.744.214 1.567.665l.135-.541h1.983v11.156zm-2.118-2.028v-6.863q-.845-.383-1.578-.541-.721-.17-1.442-.17-1.747 0-2.75 1.173-1.003 1.172-1.003 3.403 0 2.119.744 3.212.743 1.093 2.468 1.093.924 0 1.848-.35.935-.36 1.713-.957zM436.901 140.562h-2.389v-2.197h2.39v2.197zm-.135 14.695h-2.119V142.67h2.12v12.587zM451.506 155.257h-2.118v-7.167q0-.868-.102-1.623-.101-.766-.372-1.194-.281-.473-.811-.699-.53-.237-1.375-.237-.868 0-1.814.429-.947.428-1.815 1.093v9.398h-2.118V142.67h2.118v1.397q.992-.823 2.051-1.285 1.06-.462 2.175-.462 2.04 0 3.11 1.229 1.071 1.228 1.071 3.538v8.17zM474.845 143.549q0 1.115-.394 2.073-.384.947-1.082 1.646-.868.867-2.051 1.307-1.184.428-2.987.428H466.1v6.254h-2.231v-16.78h4.552q1.51 0 2.559.26 1.048.248 1.859.789.958.642 1.476 1.6.53.958.53 2.423zm-2.322.056q0-.868-.304-1.51t-.924-1.048q-.54-.35-1.24-.496-.687-.158-1.746-.158H466.1v6.705h1.882q1.352 0 2.197-.236.846-.248 1.375-.778.53-.54.744-1.138.225-.597.225-1.341zM488.515 142.67l-7.348 17.23h-2.265l2.344-5.251-5.015-11.98h2.299l3.865 9.332 3.9-9.331h2.22zM497.823 155.145q-.597.158-1.307.259-.699.101-1.251.101-1.927 0-2.93-1.036-1.003-1.037-1.003-3.325v-6.694H489.9v-1.78h1.43v-3.618h2.12v3.618h4.372v1.78h-4.372v5.736q0 .992.045 1.555.045.553.315 1.037.248.451.676.665.44.203 1.33.203.519 0 1.082-.147.563-.157.811-.259h.113v1.905zM510.918 155.257h-2.119v-7.167q0-.868-.101-1.623-.102-.766-.372-1.194-.282-.473-.811-.699-.53-.237-1.375-.237-.868 0-1.815.429-.946.428-1.814 1.093v9.398h-2.119v-17.535h2.12v6.345q.99-.823 2.05-1.285 1.06-.462 2.175-.462 2.04 0 3.11 1.229 1.071 1.228 1.071 3.538v8.17zM525.726 148.97q0 3.076-1.578 4.856-1.578 1.78-4.226 1.78-2.67 0-4.248-1.78-1.567-1.78-1.567-4.857 0-3.076 1.567-4.857 1.577-1.792 4.248-1.792 2.648 0 4.226 1.792 1.578 1.78 1.578 4.857zm-2.186 0q0-2.446-.958-3.63-.958-1.194-2.66-1.194-1.724 0-2.682 1.194-.947 1.184-.947 3.63 0 2.366.958 3.594.958 1.217 2.671 1.217 1.69 0 2.648-1.206.97-1.217.97-3.606zM539.542 155.257h-2.119v-7.167q0-.868-.101-1.623-.102-.766-.372-1.194-.282-.473-.811-.699-.53-.237-1.375-.237-.868 0-1.815.429-.946.428-1.814 1.093v9.398h-2.119V142.67h2.12v1.397q.99-.823 2.05-1.285 1.06-.462 2.175-.462 2.04 0 3.11 1.229 1.071 1.228 1.071 3.538v8.17z"/></g></svg>