<?xml version="1.0" encoding="UTF-8" standalone="no"?>
<!DOCTYPE svg PUBLIC "-//W3C//DTD SVG 1.1//EN" "http://www.w3.org/Graphics/SVG/1.1/DTD/svg11.dtd">
<svg version="1.1" xmlns="http://www.w3.org/2000/svg" xmlns:xlink="http://www.w3.org/1999/xlink" preserveAspectRatio="xMidYMid meet" viewBox="146.35070986903446 36.45592520245256 410.4295243751598 590.1979209513934" width="406.43" height="586.2"><defs><path d="" id="f7fu9QD8t"></path><path d="M263.59 432.86L297.29 414.33L231.58 623.65L314.13 468.24L321.71 387.38L284.65 374.74L253.49 378.96L147.35 571.85L263.59 432.86Z" id="e3IOHrEjI"></path><path d="M273.7 404.23L230.74 518.78L308.24 421.91L312.45 562.58L371.41 370.53L359.62 289.67L279.6 324.2L152.4 474.98L273.7 404.23Z" id="bAG9pUwlS"></path><path d="M468.62 317.85C467.75 315.88 467.36 314.89 466.89 313.93C454.38 288.48 441.89 263.01 429.26 237.62C427.98 235.07 428.14 233.55 429.88 231.37C449.79 206.5 469.6 181.52 489.43 156.57C490.13 155.7 490.75 154.76 491.02 153.2C485.22 154.82 479.42 156.42 473.63 158.07C449.57 164.88 425.51 171.68 401.47 178.59C399.23 179.24 398.21 178.53 397.1 176.55C383.43 152.14 369.7 127.79 355.97 103.43C355.26 102.16 354.5 100.93 352.99 99.87C351.89 106.37 350.76 112.87 349.68 119.37C345.86 142.33 342.05 165.3 338.24 188.27C337.82 190.75 337.25 193.22 337.05 195.71C336.86 198.09 335.73 198.96 333.72 199.63C305.37 209.15 277.04 218.77 248.71 228.37C247.47 228.79 246.25 229.33 244.92 230.63C268.09 240.48 291.27 250.33 314.8 260.33C313.94 261.06 313.39 261.61 312.76 262.05C298.27 272.08 283.76 282.06 269.31 292.14C267.58 293.34 266.2 293.51 264.26 292.58C246.96 284.24 229.58 276.07 212.25 267.79C204.47 264.08 197.47 259.14 192.02 252.01C179.7 235.89 182.13 217.55 198.55 206.35C203.93 202.68 210.02 199.93 216.11 197.81C243.88 188.13 271.75 178.8 299.62 169.44C301.95 168.66 303.04 167.54 303.47 164.84C307.18 141.85 311.03 118.89 314.9 95.94C316.98 83.66 318.08 71.07 323.66 59.83C325.81 55.5 328.38 51.27 331.44 47.64C342.49 34.52 357.93 34.01 369.63 46.51C373.57 50.73 376.97 55.71 379.9 60.82C392.78 83.28 405.46 105.89 418.06 128.54C419.55 131.21 420.9 131.76 423.66 130.96C454.72 122.06 485.82 113.29 516.92 104.5C523.34 102.69 529.83 102.02 536.41 103.34C550.74 106.21 557.01 117.88 552.16 132.69C549.95 139.44 546.15 145.13 541.86 150.52C520.16 177.81 498.5 205.13 476.72 232.35C474.94 234.58 474.9 236.19 476.14 238.67C489.13 264.85 502 291.1 514.93 317.32C518.02 323.6 520.38 330.11 520.45 337.32C520.6 353.71 509.39 367.12 494.16 369.51C485.63 370.85 477.7 368.9 469.71 366.26C450.23 359.82 430.72 353.49 411.19 347.21C409.38 346.63 408.69 345.88 408.37 343.79C406.13 329.1 403.68 314.43 401.31 299.76C401.24 299.36 401.35 298.92 401.41 298.02C423.64 304.58 445.67 311.08 468.62 317.85" id="a5F7NOPcz"></path></defs><g><g><g><use xlink:href="#f7fu9QD8t" opacity="1" fill-opacity="0" stroke="#5fcbef" stroke-width="1" stroke-opacity="1"></use></g></g><g><use xlink:href="#e3IOHrEjI" opacity="1" fill="#9fe0f5" fill-opacity="1"></use><g><use xlink:href="#e3IOHrEjI" opacity="1" fill-opacity="0" stroke="#9fe0f5" stroke-width="1" stroke-opacity="1"></use></g></g><g><use xlink:href="#bAG9pUwlS" opacity="1" fill="#5fcbef" fill-opacity="1"></use><g><use xlink:href="#bAG9pUwlS" opacity="1" fill-opacity="0" stroke="#5fcbef" stroke-width="1" stroke-opacity="1"></use></g></g><g><use xlink:href="#a5F7NOPcz" opacity="1" fill="#e25a1c" fill-opacity="1"></use><g><use xlink:href="#a5F7NOPcz" opacity="1" fill-opacity="0" stroke="#000000" stroke-width="1" stroke-opacity="0"></use></g></g></g></svg>