<svg height="586.2" preserveAspectRatio="xMidYMid meet" viewBox="146.35070987 36.4559252 410.42952438 590.19792095" width="406.43" xmlns="http://www.w3.org/2000/svg" xmlns:xlink="http://www.w3.org/1999/xlink"><defs><path id="a" d="m263.59 432.86 33.7-18.53-65.71 209.32 82.55-155.41 7.58-80.86-37.06-12.64-31.16 4.22-106.14 192.89z"/><path id="b" d="m273.7 404.23-42.96 114.55 77.5-96.87 4.21 140.67 58.96-192.05-11.79-80.86-80.02 34.53-127.2 150.78z"/><path id="c" d="m468.62 317.85c-.87-1.97-1.26-2.96-1.73-3.92-12.51-25.45-25-50.92-37.63-76.31-1.28-2.55-1.12-4.07.62-6.25 19.91-24.87 39.72-49.85 59.55-74.8.7-.87 1.32-1.81 1.59-3.37-5.8 1.62-11.6 3.22-17.39 4.87-24.06 6.81-48.12 13.61-72.16 20.52-2.24.65-3.26-.06-4.37-2.04-13.67-24.41-27.4-48.76-41.13-73.12-.71-1.27-1.47-2.5-2.98-3.56-1.1 6.5-2.23 13-3.31 19.5-3.82 22.96-7.63 45.93-11.44 68.9-.42 2.48-.99 4.95-1.19 7.44-.19 2.38-1.32 3.25-3.33 3.92-28.35 9.52-56.68 19.14-85.01 28.74-1.24.42-2.46.96-3.79 2.26 23.17 9.85 46.35 19.7 69.88 29.7-.86.73-1.41 1.28-2.04 1.72-14.49 10.03-29 20.01-43.45 30.09-1.73 1.2-3.11 1.37-5.05.44-17.3-8.34-34.68-16.51-52.01-24.79-7.78-3.71-14.78-8.65-20.23-15.78-12.32-16.12-9.89-34.46 6.53-45.66 5.38-3.67 11.47-6.42 17.56-8.54 27.77-9.68 55.64-19.01 83.51-28.37 2.33-.78 3.42-1.9 3.85-4.6 3.71-22.99 7.56-45.95 11.43-68.9 2.08-12.28 3.18-24.87 8.76-36.11 2.15-4.33 4.72-8.56 7.78-12.19 11.05-13.12 26.49-13.63 38.19-1.13 3.94 4.22 7.34 9.2 10.27 14.31 12.88 22.46 25.56 45.07 38.16 67.72 1.49 2.67 2.84 3.22 5.6 2.42 31.06-8.9 62.16-17.67 93.26-26.46 6.42-1.81 12.91-2.48 19.49-1.16 14.33 2.87 20.6 14.54 15.75 29.35-2.21 6.75-6.01 12.44-10.3 17.83-21.7 27.29-43.36 54.61-65.14 81.83-1.78 2.23-1.82 3.84-.58 6.32 12.99 26.18 25.86 52.43 38.79 78.65 3.09 6.28 5.45 12.79 5.52 20 .15 16.39-11.06 29.8-26.29 32.19-8.53 1.34-16.46-.61-24.45-3.25-19.48-6.44-38.99-12.77-58.52-19.05-1.81-.58-2.5-1.33-2.82-3.42-2.24-14.69-4.69-29.36-7.06-44.03-.07-.4.04-.84.1-1.74 22.23 6.56 44.26 13.06 67.21 19.83"/></defs><use fill="#9fe0f5" xlink:href="#a"/><use fill="none" stroke="#9fe0f5" xlink:href="#a"/><use fill="#5fcbef" xlink:href="#b"/><use fill="none" stroke="#5fcbef" xlink:href="#b"/><use fill="#e25a1c" xlink:href="#c"/><use fill="none" xlink:href="#c"/></svg>