<svg xmlns="http://www.w3.org/2000/svg" xmlns:xlink="http://www.w3.org/1999/xlink" width="750" height="750"><title>SymPy Logo, with tail.</title><desc>I created this logo and permit its free use on the same terms as the rest of Sympy&apos;s code and documentation. Fredrik Johansson</desc><defs><linearGradient id="a"><stop offset="0" stop-color="#fff"/><stop offset="1" stop-color="#fff" stop-opacity="0"/></linearGradient><linearGradient x1="123.534" y1="182.213" x2="43.33" y2="182.213" id="b" xlink:href="#a" gradientUnits="userSpaceOnUse"/><mask id="c"><path fill="url(#b)" d="M43.331 182.213h81.203v185.818H43.331z"/><path fill="#fff" d="M123.534 0h800v800h-800z"/></mask></defs><g font-size="160" font-weight="400" stroke="#7d7d7d" stroke-width="2" font-family="FreeSerif" text-anchor="middle"><path d="M208.838 623.4c0-5.013-1.76-9.44-5.28-13.28-3.52-3.947-7.787-7.307-12.8-10.08-5.014-2.773-10.027-5.6-15.04-8.48a45.872 45.872 0 0 1-12.64-11.36c-3.52-4.587-5.28-9.92-5.28-16 0-8.107 2.72-14.667 8.16-19.68 5.546-5.12 12.053-7.68 19.52-7.68 4.48 0 9.333.907 14.56 2.72 5.226 1.813 8.373 2.72 9.44 2.72 2.773 0 4.48-1.813 5.12-5.44h3.36l3.52 34.08h-4c-2.56-9.387-6.507-16.32-11.84-20.8-5.227-4.48-11.04-6.72-17.44-6.72-4.907 0-8.907 1.387-12 4.16-3.094 2.773-4.64 6.347-4.64 10.72 0 4.267 1.813 8.32 5.44 12.16 3.626 3.84 9.653 8.107 18.08 12.8 10.56 5.653 18.186 11.253 22.88 16.8 4.693 5.44 7.04 11.467 7.04 18.08 0 8.213-3.147 15.147-9.44 20.8-6.294 5.547-14.027 8.32-23.2 8.32-5.334 0-10.774-.907-16.32-2.72-5.44-1.813-8.8-2.72-10.08-2.72-1.174 0-2.187.533-3.04 1.6-.854.96-1.334 2.187-1.44 3.68h-3.52l-4.8-33.92h3.68c3.946 9.707 8.533 16.853 13.76 21.44 5.226 4.587 11.413 6.88 18.56 6.88 5.866 0 10.613-1.653 14.24-4.96 3.626-3.413 5.44-7.787 5.44-13.12M254.973 666.44c2.986 0 6.133-3.307 9.44-9.92 3.306-6.613 4.96-11.467 4.96-14.56 0-2.347-2.347-7.733-7.04-16.16l-2.4-4.8-18.72-40.64c-1.28-2.773-4-4.48-8.16-5.12V573h32.96v2.4c-3.414.107-5.814.48-7.2 1.12-1.387.64-2.08 1.707-2.08 3.2 0 1.6.533 3.627 1.6 6.08l18.4 40.48 15.52-44.16c.426-.96.64-1.867.64-2.72 0-2.667-2.56-4-7.68-4V573h21.6v2.4c-1.92.213-3.467.853-4.64 1.92-1.067.96-2.08 2.72-3.04 5.28l-24.64 65.28c-4.267 11.52-8.534 19.733-12.8 24.64-4.16 4.907-8.907 7.36-14.24 7.36-3.414 0-6.24-.907-8.48-2.72-2.24-1.707-3.36-3.893-3.36-6.56 0-1.92.693-3.573 2.08-4.96 1.386-1.387 2.986-2.08 4.8-2.08 2.346 0 4.853.48 7.52 1.44 2.666.96 4.32 1.44 4.96 1.44M309.165 581.32v-2.72a289.138 289.138 0 0 0 22.4-7.2l1.12.32v12c6.613-5.013 11.52-8.32 14.72-9.92 3.2-1.6 6.56-2.4 10.08-2.4 8.427 0 14.08 4.48 16.96 13.44 8.32-8.96 17.013-13.44 26.08-13.44 12.373 0 18.56 9.493 18.56 28.48v32.96c0 5.973 2.293 9.12 6.88 9.44l4.16.32v2.4h-35.04v-2.4c4.693-.533 7.627-1.44 8.8-2.72 1.173-1.28 1.76-4.213 1.76-8.8v-33.76c0-6.613-.853-11.2-2.56-13.76-1.707-2.56-4.853-3.84-9.44-3.84-7.04 0-12.853 3.253-17.44 9.76v40.32c0 5.013.747 8.373 2.24 10.08 1.6 1.707 4.693 2.613 9.28 2.72v2.4h-35.84v-2.4c4.587-.32 7.52-1.173 8.8-2.56 1.387-1.387 2.08-4.32 2.08-8.8v-34.72c0-11.2-3.52-16.8-10.56-16.8-2.773 0-5.707.64-8.8 1.92-3.093 1.173-5.653 2.667-7.68 4.48-1.6 1.6-2.4 2.613-2.4 3.04v45.12c0 3.093.747 5.227 2.24 6.4 1.493 1.067 4.373 1.707 8.64 1.92v2.4h-35.52v-2.4c4.48-.107 7.467-.907 8.96-2.4 1.493-1.493 2.24-4.427 2.24-8.8v-40.48c0-3.84-.427-6.507-1.28-8-.747-1.493-2.187-2.24-4.32-2.24-1.6 0-3.307.213-5.12.64M517.22 568.04c0 2.773-.32 5.44-.96 8-.64 2.56-1.92 5.28-3.84 8.16-1.813 2.88-4.267 5.387-7.36 7.52-3.093 2.027-7.307 3.733-12.64 5.12s-11.52 2.08-18.56 2.08c-3.2 0-6.88-.16-11.04-.48v29.12c0 5.867.907 9.707 2.72 11.52 1.92 1.707 6.027 2.667 12.32 2.88V645h-44.8v-3.04c6.08-.533 9.813-1.653 11.2-3.36 1.493-1.813 2.24-6.08 2.24-12.8v-69.28c0-5.76-.747-9.44-2.24-11.04-1.493-1.6-5.227-2.72-11.2-3.36v-3.04h42.24c4.8 0 9.44.48 13.92 1.44 4.48.853 8.907 2.293 13.28 4.32 4.48 2.027 8.053 5.013 10.72 8.96 2.667 3.947 4 8.693 4 14.24m-54.4-17.6v41.6c3.627.32 6.667.48 9.12.48 18.56 0 27.84-7.84 27.84-23.52 0-8.213-2.56-14.24-7.68-18.08-5.12-3.947-13.067-5.92-23.84-5.92-2.133 0-3.573.373-4.32 1.12-.747.747-1.12 2.187-1.12 4.32M543.722 666.44c2.987 0 6.134-3.307 9.44-9.92 3.307-6.613 4.96-11.467 4.96-14.56 0-2.347-2.346-7.733-7.04-16.16l-2.4-4.8-18.72-40.64c-1.28-2.773-4-4.48-8.16-5.12V573h32.96v2.4c-3.413.107-5.813.48-7.2 1.12-1.386.64-2.08 1.707-2.08 3.2 0 1.6.534 3.627 1.6 6.08l18.4 40.48 15.52-44.16c.427-.96.64-1.867.64-2.72 0-2.667-2.56-4-7.68-4V573h21.6v2.4c-1.92.213-3.466.853-4.64 1.92-1.066.96-2.08 2.72-3.04 5.28l-24.64 65.28c-4.266 11.52-8.533 19.733-12.8 24.64-4.16 4.907-8.906 7.36-14.24 7.36-3.413 0-6.24-.907-8.48-2.72-2.24-1.707-3.36-3.893-3.36-6.56 0-1.92.694-3.573 2.08-4.96 1.387-1.387 2.987-2.08 4.8-2.08 2.347 0 4.854.48 7.52 1.44 2.667.96 4.32 1.44 4.96 1.44"/></g><g mask="url(#c)" transform="translate(-7 10)"><path d="M170.921 334.283s-17.667-10.234-40.08-15.976c-22.413-5.741-26.896-4.243-49.573-6.99-22.677-2.745-41.135-3.993-41.135-3.993L39.08 228.44s33.08 3.744 59.448 7.988c26.369 4.244 27.927 4.493 46.026 8.987 18.098 4.493 26.368 8.986 26.368 8.986v79.881z" fill="#72ba45" fill-rule="evenodd" stroke="#293720" stroke-width="8"/><path d="M162.55 277.048s-22.75-10.265-55-15.764c-32.25-5.499-75-8.23-75-8.23l-.5-9.863s44.5 2.082 77.5 7.03c33 4.95 53 12.765 53 12.765v14.062z" fill="#c7e06d" fill-rule="evenodd" stroke="#c7e06d" stroke-width="8" stroke-opacity=".539"/><path d="M167.586 331.034s-13.25-9.404-45.5-16.035c-32.25-6.63-84.914-8.389-84.914-8.389l.414-30.091s44 .917 77 6.885c33 5.967 52.5 13.913 52.5 13.913l.5 33.717z" fill="#2e642c" fill-rule="evenodd"/><path d="M167.207 314.62s-13.25-10.3-45.5-14.74c-32.25-4.442-84.914-5.62-84.914-5.62l.414-20.155s44 3.614 77 7.611 52.5 14.32 52.5 14.32l.5 18.584z" fill="#4f873b" fill-rule="evenodd"/><g opacity=".647" fill="#3b4f87" stroke="#066506" stroke-width="8" stroke-linejoin="bevel"><path d="M157.447 283.726a16.97 18.385 0 1 1-33.94 0 16.97 18.385 0 1 1 33.94 0zM89.565 273.827a20.506 21.213 0 1 1-41.012 0 20.506 21.213 0 1 1 41.012 0z" opacity=".5"/></g></g><path d="M165.63 133.731l200 60v270l-200-60v-270z" fill="#decd85" fill-rule="evenodd" stroke="#505050" stroke-width="8" stroke-opacity=".618"/><path d="M565.63 133.731l-200 60v270l200-60v-270z" fill="#b9b083" fill-rule="evenodd" stroke="#505050" stroke-width="8"/><path d="M165.63 133.732l200 60 200-60-200-70-200 70z" fill="#eee5bd" fill-rule="evenodd" stroke="#505050" stroke-width="8" stroke-linejoin="bevel" stroke-opacity=".658"/><path d="M403.7 430.959c-4.827 1.944-9.05 2.136-12.67.575-3.511-1.605-5.174-5.005-4.99-10.2.09-2.53.819-4.793 2.187-6.789 1.478-2.04 3.15-3.435 5.014-4.186 1.865-.751 3.429-.66 4.693.276 1.374.89 2.016 2.6 1.926 5.132-.085 2.397-.757 4.571-2.015 6.523-1.259 1.95-2.77 3.413-4.535 4.386 2.753 1.649 6.268 1.61 10.545-.112 10.64-4.287 16.449-20.215 17.428-47.786l4.554-128.264c.435-12.253 3.5-23.991 9.197-35.213 5.81-11.4 13.158-18.89 22.042-22.469 4.826-1.944 8.994-2.113 12.505-.508 3.62 1.561 5.339 4.939 5.154 10.133-.094 2.664-.88 5.016-2.358 7.055-1.364 1.863-2.978 3.17-4.843 3.92-1.864.752-3.486.748-4.864-.01-1.265-.934-1.85-2.733-1.755-5.397.085-2.398.757-4.572 2.016-6.523 1.258-1.951 2.77-3.413 4.534-4.387-2.752-1.648-6.268-1.61-10.545.113-10.64 4.286-16.449 20.215-17.427 47.785l-4.555 128.264c-.435 12.254-3.555 24.014-9.36 35.28-5.702 11.355-12.994 18.823-21.879 22.402" text-anchor="middle" font-size="180" font-weight="400" fill="#897751" font-family="LMRoman10, FreeSerif, times"/><g font-size="110" font-weight="400" fill="#897751" font-family="LMRoman10, Times, FreeSerif"><path d="M498.488 337.249v-4.136c-6.35 1.983-7.075 1.276-7.075-5.26v-80.968l-13.063 5.545v4.135c6.35-1.982 7.076-1.275 7.076 5.261v28.812c-2.63-3.98-6.532-6.23-11.43-4.702-10.704 3.342-20.229 19.388-20.229 36.595 0 16.94 8.89 27.37 19.231 24.142 5.806-1.812 9.888-7.622 12.156-12.598v8.804l13.334-5.63m-13.334-11.578c0 2.401 0 2.668-.998 5.247-2.722 7.253-6.804 11.461-10.704 12.68-4.082 1.273-7.348-1.175-9.525-5.564-2.359-4.733-2.63-12.251-2.63-17.72 0-4.936.18-12.996 2.811-19.82 1.905-4.73 5.352-10.207 10.25-11.736 3.176-.991 6.986-.18 9.798 4.945.998 1.956.998 2.223.998 4.624v27.344"/><path d="M545.444 303.515c0-1.334-.725-1.107-1.36-.909-1.089.34-1.18.502-1.633 2.777-2.45 12.236-6.985 18.855-10.795 20.044-1.814.566-4.263-.27-4.263-7.206 0-3.201.998-9.249 1.723-14.01l3.084-19.238c1.27-7.332 3.72-15.433 7.983-16.764.272-.085 2.54-.793 3.991.621-3.628 2.467-3.628 7.536-3.628 7.536 0 1.734.816 4.013 3.175 3.277 1.633-.51 4.445-3.255 4.445-8.457 0-6.803-5.262-6.761-7.892-5.94-4.99 1.557-7.983 9.028-8.89 11.846-1.996-7.38-6.44-7.06-8.708-6.352-9.071 2.831-13.97 21.835-13.97 24.903 0 1.334.907 1.05 1.36.909 1.18-.368 1.18-.502 1.634-2.778 2.449-12.236 7.166-18.91 10.794-20.043 2.63-.821 4.354 1.709 4.354 7.044 0 3.201-1.088 10.077-1.904 15.268l-2.087 12.79c-1.451 9.123-3.356 20.389-8.799 22.088-.272.085-2.45.764-3.991-.622 2.721-1.916 3.538-5.506 3.538-7.507 0-3.468-1.905-3.674-3.085-3.306-2.267.708-4.535 4.218-4.535 8.62 0 5.202 3.81 7.08 7.982 5.778 4.355-1.36 7.348-7.363 8.89-11.846 1.814 7.037 6.26 7.116 8.618 6.38 9.343-2.917 13.97-22.235 13.97-24.903" font-style="italic"/></g><path d="M331.097 353.086l-5.116-1.557c-3.683 47.469-17.597 51.09-49.722 41.31l-56.474-17.19 51.359-67c1.841-2.349 1.841-4.094 1.841-4.094 0-1.455-.818-3.16-1.432-4.51l-41.947-98.893 47.267 14.388c34.58 10.526 44.811 24.115 49.108 71.395l5.116 1.557-5.73-67.21-113.562-34.569c-4.911-1.495-5.32-1.62-5.32 5.073l50.95 120.837-48.7 64.027c-2.046 2.578-2.046 3.16-2.046 4.032 0 3.201 2.046 3.824 5.116 4.758l113.563 34.569 5.729-66.923" font-size="244" font-weight="400" fill="#897751" font-family="LMRoman10, Times, FreeSerif"/><g font-size="50" font-weight="700" fill="#9a8354" font-family="LMRoman10, Times, FreeSerif"><path d="M323.834 128.032l-3.125-.83-9.986 2.617-38.3-10.157c-1.463-.388-2.128-.564-3.983-.078-.784.205-.927.243-1.103.534-1.702 2.444-9.05 4.368-10.547 4.76l-1.427.374 3.126.829 1.426-.374c1.141-.299 4.998-1.344 7.943-2.781l34.377 9.116-9.914 2.597 3.125.829c2.939-.875 10.5-2.856 13.995-3.771 3.495-.916 11.056-2.896 14.393-3.665M373.383 103.873c-6.45-1.71-22.414-5.906-39.604-1.403-17.19 4.502-1.436 8.717 5.08 10.445 6.584 1.746 22.015 5.8 39.205 1.298 17.119-4.484 1.968-8.577-4.681-10.34m-9.928 2.18c3.723.987 9.774 2.591 12.733 3.64 5.185 1.9 1.622 3.324-.518 3.885-2.567.672-8.025 1.33-13.806.287-4.1-.75-11.015-2.583-14.672-3.553-4.788-1.27-9.11-2.415-11.997-3.482-5.062-1.793-.734-3.277.978-3.726 2.64-.691 6.827-1.122 11.108-.701 3.673.335 10.721 2.204 16.174 3.65M403.53 147.849c-6.45-1.71-22.413-5.906-39.603-1.403-17.19 4.502-1.436 8.718 5.08 10.446 6.584 1.745 22.015 5.8 39.205 1.297 17.119-4.484 1.968-8.577-4.681-10.34m-9.928 2.18c3.723.987 9.774 2.592 12.733 3.64 5.185 1.9 1.622 3.325-.518 3.885-2.567.673-8.025 1.331-13.806.287-4.1-.749-11.015-2.583-14.672-3.552-4.788-1.27-9.11-2.416-11.997-3.482-5.062-1.794-.734-3.278.978-3.726 2.639-.692 6.827-1.123 11.108-.702 3.673.335 10.721 2.204 16.174 3.65M490.509 136.247l-3.125-.829-9.986 2.616-38.3-10.156c-1.464-.388-2.129-.564-3.983-.079-.785.206-.927.243-1.104.535-1.702 2.444-9.049 4.368-10.547 4.76l-1.426.374 3.125.829 1.426-.374c1.142-.299 4.998-1.344 7.943-2.782l34.378 9.116-9.915 2.597 3.125.83c2.94-.876 10.5-2.856 13.995-3.772 3.495-.915 11.056-2.896 14.394-3.665"/></g><g font-size="160" font-weight="700" fill="#9a8354" font-family="LMRoman10, Times, FreeSerif"><path d="M388.08 174.23l-9.41-2.782-8.41 2.456-135.454-40.037 8.41-2.456-9.41-2.781-13.344 3.896 154.275 45.6 13.344-3.896M520.268 135.636l-154.275-45.6-13.344 3.896 9.41 2.781 8.412-2.456 135.453 40.037-8.41 2.456 9.41 2.782 13.344-3.896"/></g><g><g fill-rule="evenodd" stroke="#000"><path d="M354 268.362c-16.75-14 62.75 3.25 90 12s43.25 17 60 31c11.335 9.474 24.424 31.777 26.491 45.082.988 6.357 5.319 60.747-3.491 57.918-1.07-.343-30.58 10.45-14.98 4.111 34.714-14.106-141.927-136.66-158.02-150.11z" opacity=".5"/><path d="M231.158 203.796c-4.671 41.78 23.21 78.944 53.621 101.29 23.936 17.764 50.202 35.462 79.734 38.667 22.63-2 51.61-4.883 64.277 19.818 18.5 14.193 34.73-17.247 22.163-32.731-20.506-31.161-53.926-48.247-83.707-67.327-45.583-26.678-81.427-66.818-127.846-91.7-4.184 5.413-6.452 18.176-8.242 31.983z" opacity=".5" stroke-width="1.082"/><path d="M525 119.362c-54.438-2.2-110.702-3.9-162.714 15.007-24.077 7.592-46.17 28.992-47.174 55.315.999 10.799 2.991 21.111 4.832 31.777 3.22 12.798 11.081 24.302 12.554 37.501-5.683 5.294-17.717-4.57-25.911-5.404-8.211-4.666-24.425-4.155-27.274-12.29L289 145.362l101-46 135 20z" opacity=".5"/></g><path d="M241.767 454.185c-5.13-4.399-17.694-21.133-22.254-26.632-9.858-11.89 5.441-3.344 18.808-.175 38.312 10.521 82.085 24.112 120.355 34.615 21.393-1.751 46.722-6.403 64.085-20.294 18.403-24.124 22.835-59.447 10.105-87.073-19.035-24.884-52.69-29.63-80.937-38.095-34.12-7.743-64.147-27.048-88.686-51.56-31.221-25.392-31.347-71.701-17.4-106.329 8.156-27.746 28.01-52.043 55.788-61.613 44.023-19.4 92.768-22.25 140.176-19.603 45.647 2.045 91.171 10.306 133.402 28.134 19.526 7.871 35.512 8.143 56.876 4.457 10.857 3.85 23.302 9.705 29.783 16.19 11.743 11.752 18.034 32.848 28.669 45.226 20.131 22.851-10.355 50.693-34.593 36.824-24.513-7.428-59.28-.938-71.119-30.095-5.652-15.945-18.446-20.323-17.832-40.598-15.554-14.82-42.922-17.184-63.178-20.58-59.993-9.003-126.86-11.641-180.375 21.958-22.552 13.85-36.068 46.785-20.636 70.298 19.63 19.337 49.71 19.974 74.76 28.008 48.574 11.079 101.244 28.81 128.598 73.798 14.287 23.12 14.071 51.742 15.905 78.057 1.098 41.76-11.009 80.013-55.886 107.912-46.933 20.14-87.039 16.763-130.536 6.697-37.849-9.047-63.904-20.804-93.878-49.527z" fill="#72ba45" fill-rule="evenodd" stroke="#344829" stroke-width="8" stroke-linejoin="round"/><path d="M635.78 185.064a6.364 5.657 0 1 1-12.727 0 6.364 5.657 0 1 1 12.728 0zM659.822 147.588a6.364 6.364 0 1 1-12.727 0 6.364 6.364 0 1 1 12.727 0z" opacity=".5" stroke="#505050" stroke-width="6" stroke-linejoin="round"/><path d="M692.685 205.613c4.407 5.245 6.648 11.314 16.97 11.314.845 4.22 0 9.739 0 14.142M709.492 216.935c.018.09 11.987 0 16.97 0" fill="none" stroke="#9d2020" stroke-width="6"/><g fill-rule="evenodd"><path d="M240.065 211.868c1.236 14.879 3.852 27.335 12.412 38.687 15.445 20.483 35.437 36.048 58.929 48.496 9.535 5.053 21.872 9.316 32.163 12.16 29.32 8.857 63.592 15.443 86.944 37.55 16.698 19.602-1.213-17.273-16.59-28.928-42.868-32.489-105.805-26.42-145.424-65.615-11.298-12.054-22.169-27.175-28.434-42.35zM516.949 360.51c-1.92 36.12-9.324 81.59-33.952 107.824-42.4 29.908-111.311 31.942-159.206 15.15-26.049-8.084-46.169-19.908-69.904-33.32-9.286-5.266-21.151-18.147-25.032-19.545-5.428-1.955 5.487 15.117 11.712 21.592 28.783 32.918 65.956 42.627 116.38 54.374 43.882 5.748 74.335 9.265 118.998-17.756 31.703-24.224 36.659-44.21 41.633-67.825 3.996-36.676 1.156-34.619-.63-60.494zM300.358 211.832c-9.583-27.38-5.844-50.952 11.364-65.682 21.448-18.36 36.785-24.06 67.88-33.462 33.559-2.85 48.228-2.527 123.09 1.609-57.348-10.27-133.433-19.896-186.618 8.781-30.878 17.82-44.484 59.197-15.716 88.754zM569 132.862c1.303 1.146 1.694 7.735 6.255 14.896 4.561 7.161 8.08 7.018 11.99 13.75s2.085 6.589 3.649 13.177c1.563 6.589 3.91 13.893 2.606 13.177-1.303-.716-3.258-8.594-7.82-16.041-4.56-7.448-6.515-6.589-10.425-13.75-3.91-7.162-3.649-8.594-5.212-14.896-1.564-6.302-2.346-11.459-1.043-10.313z" fill="#2e642c"/><path d="M515.643 360.787c-3.423 22.38-10.29 50.824-21.047 68.875-18.65 24.062-26.782 29.518-51.234 41.497-39.022 12.013-89.72 16.621-135.598-1.02-24.225-8.379-49.396-16.185-69.66-33.567-2.754-5.435-16.993-13.102-9.047-1.515 19.068 33.027 54.276 48.307 87.415 57.314 35.226 9.613 73.007 16.515 108.735 5.852 36.396-6.613 64.847-25.709 83.514-63.251 5.515-12.862 9.004-43.638 7.77-57.786.053-5.57-1.394-10.861-.848-16.399zM240.424 201.096c1.236 14.88 3.852 27.335 12.412 38.687 15.445 20.483 35.437 36.048 58.93 48.496 9.534 5.053 21.871 9.316 32.163 12.16 29.32 8.857 62.09 18.943 85.444 41.05 8.197 7.102-.713-11.773-16.091-23.427-42.868-32.49-108.805-28.421-148.424-67.616-11.298-12.054-18.169-34.175-24.434-49.35z" fill="#4f873b"/></g><g fill="#c7e06d"><path d="M482.767 404.907c-.297-28.042-5.47-77.538-36.005-100.975-35.927-36.025-101.644-26.7-143.427-52.779-17.191-15.58 29.212-4.309 67.802 5.383 39.27 9.143 86.228 17.742 109.843 52.021 19.125 32.544 22.726 74.716 1.787 96.35z" fill-rule="evenodd" stroke="#c7e06d" stroke-width="13.423" stroke-opacity=".526"/><path d="M256.158 199.54c-4.75-27.326 2.952-57.616 24.605-75.983 32.02-28.124 75.849-37.042 117.36-37.853 57.225-2.748 114.83 5.845 168.764 25.166 13.389 4.67 26.76 9.484 39.655 15.401-42.821-8.274-84.183-23.646-127.729-28.448-35.398-4.295-71.325-5.582-106.863-2.826-30.695 4.1-64.043 10.443-85.85 34.485-12.762 10.444-21.751 25.323-22.778 42.019-3.986 18.828 2.038 40.066 15.704 52.92 15.245 10.624 14.667 11.294 26.254 15.847 7.06 2.773 7.122 3.867 8.613 7.995.754 2.084-.405 4.243 1.347 6.001-7.055-1.23-12.48-1.657-18.449-4.487-6.479-3.07-10.983-6.205-20.493-14.127-10.188-10.422-18.287-20.657-20.14-36.11z" fill-rule="evenodd" stroke="#c7e06d" stroke-width="8" stroke-opacity=".513"/><path d="M653.5 134.862c.649 3.244-4.853-4.515-7.5-6.5-2.738-2.053-5.709-2.354-8-3.5-2.737-1.368-3.231-2.231-5.5-4.5-4.012-4.012 3.476-1.5 7-1.5 1.877 0 6.783 3.892 9 5 2.614 1.307 5.535 3.026 7.5 4.5 2.055 1.541 2.147 3.794 3 5.5.833 1.667-3.732.41-5.5 1zM678.5 202.362c-2.386 3.182 4.855-4.21 7-8.5 1.032-2.064.034-8.864-.5-11-.832-3.33-2.55-5.4-4.5-8-1.616-2.154 5.092 1.796 7.5 3 1.583.792 2 4.024 2 6.5v7.5c0 2.693-1.068 5.637-2 7.5-.71 1.42-2.95 1-4.5 1M606.769 177.065c3.955-7.234 9.596-9.9 19.799-9.9 11.272 0 16.396.265 11.313-9.9-3.822-7.643-8.858-10.567-4.242-19.798 6.159-12.318-9.17-3.023-11.314-1.415-7.89 5.918-12.206 5.657-22.627 5.657-6.033 0-4.243 3.166-4.243 8.485" opacity=".5"/></g><g opacity=".647" fill="#3b4f87" stroke="#066506" stroke-linejoin="bevel"><path d="M572.978 116.786a4.243 4.95 0 1 1-8.486 0 4.243 4.95 0 1 1 8.486 0zM532.45 104.473a6.364 4.95 0 1 1-12.727 0 6.364 4.95 0 1 1 12.728 0z" opacity=".5" stroke-width="8"/><path d="M493.56 88.576a7.071 7.778 0 1 1-14.142 0 7.071 7.778 0 1 1 14.143 0z" transform="matrix(.8537 0 0 .67415 68.154 36.774)" opacity=".5" stroke-width="8"/><path d="M446.527 92.866a7.778 5.657 0 1 1-15.556 0 7.778 5.657 0 1 1 15.556 0zM396.03 94.694a8.485 7.071 0 1 1-16.971 0 8.485 7.071 0 1 1 16.97 0zM350.775 105.715a9.9 7.778 0 1 1-19.8 0 9.9 7.778 0 1 1 19.8 0zM311.348 130.928a12.02 10.607 0 1 1-24.041 0 12.02 10.607 0 1 1 24.041 0zM284.478 177.183a12.728 12.02 0 1 1-25.456 0 12.728 12.02 0 1 1 25.456 0z" opacity=".5" stroke-width="8"/><path d="M318.198 229.29a14.142 14.142 0 1 1-28.284 0 14.142 14.142 0 1 1 28.284 0z" transform="matrix(1.19685 0 0 1.1615 -68.374 -27.617)" opacity=".5" stroke-width="6.785"/><path d="M396.201 277.3a20.506 18.385 0 1 1-41.012 0 20.506 18.385 0 1 1 41.012 0zM469.74 314.776a16.97 17.678 0 1 1-33.941 0 16.97 17.678 0 1 1 33.941 0zM500.853 384.073a15.556 19.092 0 1 1-31.113 0 15.556 19.092 0 1 1 31.113 0zM485.296 442.763a14.85 15.556 0 1 1-29.698 0 14.85 15.556 0 1 1 29.698 0z" opacity=".5" stroke-width="8"/><path d="M446.891 469.706a11.314 9.9 0 1 1-22.627 0 11.314 9.9 0 1 1 22.627 0z" transform="matrix(1.57434 0 0 1.20182 -261.19 -78.884)" opacity=".5" stroke-width="5.816"/><path d="M376.18 470.413a11.314 6.364 0 1 1-22.627 0 11.314 6.364 0 1 1 22.628 0z" transform="matrix(1.44314 0 0 1.5521 -182.515 -247.01)" opacity=".5" stroke-width="5.345"/><path d="M301.227 447.786a12.02 3.536 0 1 1-24.041 0 12.02 3.536 0 1 1 24.041 0z" transform="matrix(1.3927 0 0 1.76951 -118.403 -332.374)" opacity=".5" stroke-width="5.096"/></g><g opacity=".507"><path d="M221.402 424.052l144.276 37.326 12.73-3.999c-3.836 4.513-7.7 9.045-12.418 12.756-4.468 5.061-1.453 11.98-1.96 17.894.716 5.23-2.01 12.175-8.85 10.92-9.778-.493-18.58-5.196-28.002-7.314-21.217-5.372-42.872-11.708-61.22-22.591-16.587-9.838-29.94-24.44-44.91-36.66l.354-8.332z" fill-rule="evenodd" stroke="#000" stroke-width=".971"/></g></g></svg>