<svg viewBox="0 0 1056 405" xmlns="http://www.w3.org/2000/svg" fill-rule="evenodd" clip-rule="evenodd" stroke-linejoin="round" stroke-miterlimit="1.414"><path d="M273.105 625.998c-14.375-2.953-27.502-13.328-33.619-26.572-3.192-6.909-3.583-9.104-3.504-19.653.071-9.417.659-13.139 2.84-17.979 5.738-12.738 15.855-21.812 28.776-25.81l6.933-2.145 3.538-12.345c6.002-20.942 10.191-38.977 8.982-44.416-.585-2.632-3.664-19.899-6.149-36.055-7.503-48.791-8.304-51.118-20.68-60.12-11.868-8.632-16.147-14.848-21.859-31.755-1.811-5.36-5.206-9.313-23.84-27.758-21.024-20.812-20.747-20.966-25.87-23.28-4.375-1.976-16.296-4.001-20.891-4.759l-8.356-1.38-8.724 8.724c-6.152 6.152-11.532 10.112-18.25 13.432-9.255 4.574-9.841 4.693-20.533 4.175-9.516-.46-12.067-1.099-18.842-4.717-11.776-6.29-20.778-17.816-23.409-29.974-1.737-8.027-.884-20.565 1.905-28.021 3.732-9.975 13.819-20.62 23.987-25.316 6.829-3.153 9.323-3.626 19.129-3.626 10.213 0 12.06.386 19.59 4.093 5.42 2.668 10.475 6.458 14.526 10.89 6.535 7.151 12.733 18.093 12.733 22.482 0 1.646 5.687 8.374 15.516 18.354 14.479 14.701 11.22 14.287 19.777 17.483 5.044 1.884 21.273 8.209 30.062 11.982l16.784 7.931 6.576-9.125c9.221-12.796 19.134-15.341 35.035-15.339 22.006.002 30.861 5.635 40.298 25.633 5.272 11.172 5.391 11.308 11.491 13.14 10.135 3.043 17.217 2.349 33.755-3.306 15.319-5.239 49.183-19.041 59.494-24.247 3.115-1.573 6.473-4.374 7.463-6.224 3.321-6.205 15.769-16.513 23.393-19.371 10.364-3.886 26.774-3.229 36.851 1.475 9.061 4.23 17.079 12.243 21.731 21.717 3.344 6.812 3.644 8.528 3.596 20.557-.044 10.77-.545 14.199-2.79 19.113-4.052 8.867-13.959 18.683-23.129 22.919-6.839 3.159-9.212 3.593-19.653 3.593-10.219 0-12.855-.46-18.9-3.294-12.502-5.862-21.823-16.48-25.405-28.939-1.749-6.086-5.209-8.296-18.195-11.621-14.23-3.644-24.193-3.102-44.503 5.67-28.63 12.365-39.657 22.311-44.191 31.199-2.622 5.14-14.032 16.37-19.504 19.198-2.022 1.045-5.951 2.511-8.729 3.259l-5.052 1.359-.071 27.834c-.046 18.164-1.147 34.622-2.576 46.778-2.48 21.094-2.262 19.859 6.157 54.599 5.023 20.728 5.166 21.084 9.597 23.887 24.513 15.507 29.223 49.325 9.922 71.251-9.61 10.917-28.911 17.358-43.213 14.42z" fill="url(#a)" fill-rule="nonzero" transform="translate(-68.748 -226.648)"/><path d="M467.993 222.33h-57.792v-34.916l-8.428.301v5.418c0 3.612-.051 7.575-.151 11.89a372.48 372.48 0 0 1-.451 11.89c-.201 3.611-.502 5.417-.903 5.417h-30.702v7.826h31.906V354.47c0 13.244 3.16 22.474 9.481 27.692 6.321 5.217 15.803 7.826 28.445 7.826 5.016 0 10.133-.25 15.351-.753 5.217-.502 9.13-1.053 11.739-1.655v-7.224c-2.408.401-6.422.802-12.04 1.204-5.619.401-10.034.602-13.244.602-10.836 0-18.713-1.957-23.629-5.87-4.916-3.913-7.374-12.19-7.374-24.832V230.156h57.792v-7.826zm85.183-3.01c-14.047 0-26.037 2.257-35.97 6.772-9.933 4.515-18.01 10.635-24.23 18.361-6.221 7.726-10.736 16.806-13.545 27.241-2.81 10.434-4.214 21.471-4.214 33.11 0 30.3 6.772 52.173 20.317 65.618 13.545 13.444 32.859 20.167 57.943 20.167 25.083 0 44.247-7.425 57.491-22.274 13.244-14.85 19.866-36.02 19.866-63.51 0-26.289-5.77-47.108-17.308-62.459-11.538-15.35-31.655-23.026-60.35-23.026zm.301 163.443c-23.679 0-41.187-6.32-52.525-18.963-11.338-12.642-17.006-32.308-17.006-58.996 0-11.037 1.254-21.27 3.762-30.702 2.508-9.432 6.472-17.609 11.89-24.532 5.418-6.923 12.541-12.34 21.371-16.254 8.829-3.913 19.464-5.869 31.906-5.869 26.488 0 44.648 6.973 54.481 20.92 9.832 13.945 14.749 32.758 14.749 56.437 0 25.484-5.77 44.85-17.308 58.093-11.538 13.244-28.645 19.866-51.32 19.866zM722.639 219.32c-14.448 0-26.99 3.812-37.625 11.438-10.636 7.625-17.358 17.157-20.167 28.595V222.33h-8.729v165.55h8.428V287.346c0-9.23 1.605-17.509 4.816-24.833 3.21-7.324 7.474-13.545 12.792-18.662 5.318-5.117 11.488-9.03 18.512-11.739 7.023-2.709 14.347-4.063 21.973-4.063 6.22 0 12.19.351 17.909 1.053 5.719.702 10.686 1.656 14.9 2.86v-9.33c-3.813-1.005-8.178-1.807-13.094-2.409-4.916-.602-11.488-.903-19.715-.903zm105.046 0c-24.679 0-43.592 7.675-56.736 23.026-13.144 15.351-19.715 36.17-19.715 62.458 0 29.9 6.622 51.671 19.866 65.317 13.244 13.645 32.006 20.468 56.285 20.468 23.28 0 40.59-5.218 51.92-15.652 11.34-10.435 18.01-23.278 20.02-38.528h-8.43c-.8 6.02-2.56 11.84-5.27 17.458-2.7 5.618-6.62 10.585-11.73 14.9-5.12 4.313-11.49 7.725-19.12 10.233-7.62 2.508-16.55 3.763-26.79 3.763-21.668 0-38.424-6.02-50.263-18.06-11.84-12.04-17.759-31.806-17.759-59.297 0-24.482 5.719-43.495 17.157-57.04 11.438-13.545 28.294-20.317 50.565-20.317 20.27 0 35.62 4.414 46.06 13.244 10.43 8.83 15.95 20.468 16.55 34.916h8.73c-.4-16.656-6.42-30.3-18.06-40.936-11.64-10.636-29.4-15.953-53.28-15.953zm227.255 44.85c0-14.65-5.06-25.787-15.19-33.412-10.14-7.626-24.85-11.438-44.105-11.438-15.05 0-28.14 2.658-39.28 7.976s-18.31 13.194-21.52 23.63V147.982h-8.43V387.88h8.43V274.403c0-8.228 1.65-15.3 4.97-21.22 3.31-5.92 7.67-10.737 13.09-14.449 5.42-3.712 11.74-6.47 18.96-8.277 7.23-1.806 14.75-2.709 22.58-2.709 19.055 0 32.445 3.612 40.175 10.836 7.74 7.224 11.59 17.157 11.59 29.8v102.941c0 7.625.06 12.24.16 13.846.09 1.605.25 2.508.45 2.71h8.73c-.2-.202-.36-1.155-.45-2.86-.1-1.707-.16-6.472-.16-14.298V264.17z" fill-rule="nonzero"/><defs><radialGradient id="a" cx="0" cy="0" r="1" gradientUnits="userSpaceOnUse" gradientTransform="matrix(227.512 -41.529 36.547 200.219 286.113 340.969)"><stop offset="0%" stop-color="#4fffff" stop-opacity=".894"/><stop offset="100%" stop-color="#00c4c2" stop-opacity=".894"/></radialGradient></defs></svg>