<svg viewBox="0 0 3962 1057" xmlns="http://www.w3.org/2000/svg"><path d="M1015.78 528.207c0 269.279-218.292 487.573-487.571 487.573S40.634 797.486 40.634 528.207c0-269.28 218.296-487.575 487.575-487.575s487.571 218.295 487.571 487.575" fill="#02373f"/><path d="M204.047 892.422C196.839 859.438 193 824.804 193 789.089c0-223.304 243.992-606.496 335.208-606.496 91.217 0 335.208 383.191 335.209 606.496 0 35.714-3.839 70.347-11.047 103.331-86.153 76.735-199.712 123.36-324.163 123.36-124.448 0-238.006-46.624-324.16-123.358z" fill="#64c8d0"/><path d="M528.207 182.59c91.223.003 335.213 383.193 335.213 606.5 0 35.708-3.842 70.354-11.05 103.333-86.155 76.734-199.712 123.357-324.163 123.357V182.59z" fill="#7dd1d8"/><path d="M235.519 918.193c-7.843-36.963-12.047-76.044-12.047-116.468 0-230.284 136.438-416.967 304.738-416.967s304.733 186.683 304.733 416.967c0 40.424-4.204 79.505-12.047 116.468-81.513 61.274-182.86 97.587-292.689 97.587-109.827 0-211.174-36.313-292.688-97.587z" fill="#fff"/><path d="M528.208 612.195c-110.941 0-204.562 96.033-234.087 227.437-6.304-28.071-9.7-57.742-9.7-88.45 0-174.458 109.146-315.883 243.787-315.883 134.642 0 243.788 141.425 243.788 315.883 0 30.708-3.396 60.379-9.7 88.45-29.525-131.404-123.146-227.437-234.088-227.437z" fill="#02373f"/><path d="M528.208 81.263c-246.445 0-446.946 200.5-446.946 446.945 0 246.446 200.501 446.942 446.946 446.942 246.446 0 446.946-200.496 446.946-446.942 0-246.445-200.5-446.945-446.946-446.945m0 975.147C236.954 1056.41 0 819.463 0 528.208 0 236.954 236.954 0 528.208 0c291.255 0 528.212 236.954 528.212 528.208 0 291.255-236.957 528.202-528.212 528.202m765.012-715.879l121.73 276.425 118.64-276.425h87.21l-190.14 436.054h-28.96l-196.3-436.054h87.82zm418.44 262.556h138.98l-72.73-170.417-66.25 170.417zm108.47-262.555l190.14 430.505h-87.83l-44.68-104.775h-191.38l-41.59 104.775h-87.22l177.51-430.505h85.05zm323.88-.001v365.483h208.93v65.021h-292.13V340.531h83.2zm322.03 215.407c0 28.558 6.47 54.237 19.41 77.041 12.95 22.804 30.98 40.471 54.09 53.004 23.11 12.534 49.26 18.796 78.43 18.796 44.17 0 80.47-13.866 108.94-41.6 28.45-27.733 42.67-63.483 42.67-107.241 0-28.555-6.42-54.288-19.25-77.196-12.85-22.904-30.93-40.625-54.24-53.159-23.32-12.529-49.57-18.796-78.74-18.796-29.17 0-55.42 6.317-78.74 18.951-23.31 12.633-41.24 30.304-53.77 53.004-12.53 22.704-18.8 48.437-18.8 77.196m151.93-220.955c44.57 0 84.69 9.196 120.33 27.58 35.65 18.391 64.05 44.895 85.21 79.508 21.16 34.621 31.75 72.571 31.75 113.867 0 40.27-10.33 77.608-30.98 112.016-20.64 34.413-49 61.121-85.05 80.125-36.05 19-76.69 28.504-121.88 28.504-44.58 0-85.1-9.654-121.57-28.966-36.47-19.313-64.87-45.867-85.21-79.663-20.34-33.791-30.51-71.129-30.51-112.016 0-39.446 10.17-76.525 30.51-111.246 20.34-34.717 48.38-61.684 84.13-80.896 35.75-19.204 76.84-28.813 123.27-28.813m398.45 5.548v181.2h223.42v-181.2h83.21v430.504h-83.21V589.218h-223.42v181.817h-83.2V340.531h83.2zm511.25 262.556h138.98l-72.73-170.417-66.25 170.417zm108.47-262.555l190.14 430.505h-87.83l-44.68-104.775H3502.4l-41.6 104.775h-87.22l177.51-430.505h85.05zm242.52 0h83.2v430.504h-83.2V340.532z" fill="#02373f" fill-rule="nonzero"/></svg>