<svg viewBox="0 0 1057 1057" xmlns="http://www.w3.org/2000/svg" fill-rule="evenodd" clip-rule="evenodd" stroke-linejoin="round" stroke-miterlimit="1.414"><path fill="none" d="M0 0h1056.42v1056.41H0z"/><path d="M1015.781 526.707c0 269.28-218.292 487.573-487.57 487.573-269.28 0-487.576-218.294-487.576-487.573 0-269.28 218.296-487.575 487.575-487.575 269.28 0 487.571 218.295 487.571 487.575" fill="#02373f" fill-rule="nonzero"/><path d="M205.048 893.922c-7.208-32.984-11.047-67.618-11.047-103.333 0-223.304 243.992-606.496 335.208-606.496 91.217 0 335.208 383.191 335.21 606.496 0 35.714-3.84 70.347-11.048 103.331-86.153 76.735-199.712 123.36-324.163 123.36-124.448 0-238.006-46.624-324.16-123.358z" fill="#64c8d0"/><path d="M528.208 184.09c91.223.003 335.213 383.193 335.213 606.5 0 35.708-3.842 70.354-11.05 103.333-86.155 76.734-199.712 123.357-324.163 123.357V184.09z" fill="#a2dee3"/><path d="M237.293 920.272c-8.339-38.016-12.82-78.315-12.82-120.047 0-230.284 136.438-416.967 304.738-416.967s304.733 186.683 304.733 416.967c0 41.732-4.48 82.031-12.819 120.047-81.38 60.924-182.434 97.008-291.917 97.008-109.48 0-210.534-36.084-291.915-97.008z" fill="#fff"/><path d="M528.21 613.695c110.941 0 204.562 96.033 234.087 227.437 6.304-28.07 9.7-57.742 9.7-88.45 0-174.458-109.146-315.883-243.788-315.883-134.64 0-243.787 141.425-243.787 315.883 0 30.708 3.396 60.38 9.7 88.45 29.525-131.404 123.146-227.437 234.087-227.437" fill="#02373f" fill-rule="nonzero"/><path d="M528.208 81.261c-246.446 0-446.946 200.5-446.946 446.947 0 246.446 200.5 446.942 446.946 446.942 246.446 0 446.946-200.496 446.946-446.942S774.654 81.26 528.208 81.26m0 975.151c-291.254 0-528.209-236.95-528.209-528.204C0 236.953 236.954-.002 528.208-.002c291.254 0 528.209 236.955 528.209 528.21 0 291.254-236.955 528.204-528.209 528.204" fill="#02373f" fill-rule="nonzero"/></svg>